<svg xmlns="http://www.w3.org/2000/svg" xmlns:xlink="http://www.w3.org/1999/xlink" width="500" zoomAndPan="magnify" viewBox="0 0 375 374.999991" height="500" preserveAspectRatio="xMidYMid meet" version="1.0"><metadata><ContainsAiGeneratedContent>Yes</ContainsAiGeneratedContent></metadata><defs><clipPath id="a7164864b4"><path d="M 69.015625 65 L 299.265625 65 L 299.265625 295.238281 L 69.015625 295.238281 Z M 69.015625 65 " clip-rule="nonzero"/></clipPath><clipPath id="bb42bf2d28"><path d="M 142 128 L 299.265625 128 L 299.265625 294 L 142 294 Z M 142 128 " clip-rule="nonzero"/></clipPath></defs><g clip-path="url(#a7164864b4)"><path fill="#86d008" d="M 184.09375 295.238281 C 120.621094 295.238281 68.96875 243.601562 68.96875 180.113281 C 68.96875 116.625 120.605469 65.003906 184.09375 65.003906 C 247.582031 65.003906 299.21875 116.640625 299.21875 180.128906 C 299.21875 243.617188 247.566406 295.238281 184.09375 295.238281 Z M 184.09375 295.238281 " fill-opacity="1" fill-rule="nonzero"/></g><g clip-path="url(#bb42bf2d28)"><path fill="#5dad07" d="M 246.207031 128.777344 L 142.109375 232.871094 L 202.941406 293.703125 C 256.964844 284.777344 298.410156 238.109375 299.21875 181.773438 Z M 246.207031 128.777344 " fill-opacity="1" fill-rule="nonzero"/></g><path fill="#ffffff" d="M 248.515625 131.007812 C 241.871094 123.792969 235.839844 118.933594 228.625 125.5625 L 154.929688 193.515625 L 136.320312 172.246094 C 129.863281 164.875 123.34375 169.066406 115.953125 175.523438 C 108.5625 181.980469 103.101562 188.261719 109.574219 195.636719 L 128.785156 217.617188 L 144.46875 235.5625 C 148.695312 240.390625 156.066406 240.785156 160.785156 236.449219 L 178.300781 220.292969 L 252.710938 151.707031 C 259.925781 145.058594 255.164062 138.222656 248.515625 131.007812 Z M 248.515625 131.007812 " fill-opacity="1" fill-rule="nonzero"/></svg>