<svg xmlns="http://www.w3.org/2000/svg" xmlns:xlink="http://www.w3.org/1999/xlink" width="500" zoomAndPan="magnify" viewBox="0 0 375 374.999991" height="500" preserveAspectRatio="xMidYMid meet" version="1.0"><metadata><ContainsAiGeneratedContent>Yes</ContainsAiGeneratedContent></metadata><defs><clipPath id="e632bf91b7"><path d="M 72.960938 85.886719 L 317.460938 85.886719 L 317.460938 228 L 72.960938 228 Z M 72.960938 85.886719 " clip-rule="nonzero"/></clipPath><clipPath id="19750703cc"><path d="M 72.960938 98.808594 L 287.390625 98.808594 L 287.390625 289.066406 L 72.960938 289.066406 Z M 72.960938 98.808594 " clip-rule="nonzero"/></clipPath><clipPath id="dc807229e7"><path d="M 209.035156 227.949219 L 72.960938 148.890625 L 72.960938 210.003906 L 209.035156 289.066406 Z M 196.722656 100.980469 L 157.613281 98.808594 L 157.613281 113.609375 C 157.34375 118.511719 167.683594 122.96875 178.484375 123.566406 C 189.28125 124.164062 196.449219 120.679688 196.722656 115.78125 C 196.726562 115.488281 196.722656 100.980469 196.722656 100.980469 Z M 202.820312 125.214844 L 202.820312 140.015625 C 202.550781 144.917969 211.082031 149.375 221.882812 149.972656 C 237.484375 150.839844 241.671875 146.820312 241.929688 142.1875 L 241.929688 127.386719 Z M 287.390625 153.738281 L 248.28125 151.570312 L 248.28125 166.371094 C 248.027344 171.003906 261.347656 175.996094 267.34375 176.328125 C 278.144531 176.925781 287.117188 173.4375 287.390625 168.539062 C 287.390625 168.238281 287.390625 153.738281 287.390625 153.738281 Z M 194.191406 182.929688 L 194.191406 197.730469 C 193.9375 202.363281 207.257812 207.355469 213.253906 207.6875 C 224.054688 208.285156 233.027344 204.800781 233.300781 199.898438 L 233.300781 185.101562 Z M 148.890625 156.554688 L 148.890625 171.351562 C 148.621094 176.253906 157.15625 180.710938 167.957031 181.308594 C 183.554688 182.175781 187.742188 178.15625 188 173.519531 L 188 158.722656 Z M 142.535156 132.472656 L 142.535156 147.269531 C 142.277344 151.90625 138.089844 155.925781 122.488281 155.058594 C 111.6875 154.460938 103.15625 150 103.425781 145.101562 L 103.425781 130.300781 Z M 142.535156 132.472656 " clip-rule="nonzero"/></clipPath><clipPath id="3451307388"><path d="M 209.035156 227.949219 L 72.960938 148.890625 L 72.960938 210.003906 L 209.035156 289.066406 Z M 196.722656 100.980469 L 157.613281 98.808594 L 157.613281 113.609375 C 157.34375 118.511719 167.683594 122.96875 178.484375 123.566406 C 189.28125 124.164062 196.449219 120.679688 196.722656 115.78125 C 196.726562 115.488281 196.722656 100.980469 196.722656 100.980469 Z M 202.820312 125.214844 L 202.820312 140.015625 C 202.550781 144.917969 211.082031 149.375 221.882812 149.972656 C 237.484375 150.839844 241.671875 146.820312 241.929688 142.1875 L 241.929688 127.386719 Z M 287.390625 153.738281 L 248.28125 151.570312 L 248.28125 166.371094 C 248.027344 171.003906 261.347656 175.996094 267.34375 176.328125 C 278.144531 176.925781 287.117188 173.4375 287.390625 168.539062 C 287.390625 168.238281 287.390625 153.738281 287.390625 153.738281 Z M 194.191406 182.929688 L 194.191406 197.730469 C 193.9375 202.363281 207.257812 207.355469 213.253906 207.6875 C 224.054688 208.285156 233.027344 204.800781 233.300781 199.898438 L 233.300781 185.101562 Z M 148.890625 156.554688 L 148.890625 171.351562 C 148.621094 176.253906 157.15625 180.710938 167.957031 181.308594 C 183.554688 182.175781 187.742188 178.15625 188 173.519531 L 188 158.722656 Z M 142.535156 132.472656 L 142.535156 147.269531 C 142.277344 151.90625 138.089844 155.925781 122.488281 155.058594 C 111.6875 154.460938 103.15625 150 103.425781 145.101562 L 103.425781 130.300781 L 142.535156 132.472656 " clip-rule="nonzero"/></clipPath><linearGradient x1="0.00000000540979" gradientTransform="matrix(214.432295, 0, 0, 214.528805, 72.959178, 193.938195)" y1="0" x2="1.000003" gradientUnits="userSpaceOnUse" y2="0" id="8a4857958e"><stop stop-opacity="1" stop-color="rgb(96.859741%, 72.938538%, 87.838745%)" offset="0"/><stop stop-opacity="1" stop-color="rgb(96.664429%, 72.935486%, 87.838745%)" offset="0.03125"/><stop stop-opacity="1" stop-color="rgb(96.279907%, 72.740173%, 87.838745%)" offset="0.0625"/><stop stop-opacity="1" stop-color="rgb(96.083069%, 72.547913%, 87.643433%)" offset="0.078125"/><stop stop-opacity="1" stop-color="rgb(95.884705%, 72.355652%, 87.449646%)" offset="0.09375"/><stop stop-opacity="1" stop-color="rgb(95.591736%, 72.161865%, 87.449646%)" offset="0.101563"/><stop stop-opacity="1" stop-color="rgb(95.384216%, 72.154236%, 87.449646%)" offset="0.109375"/><stop stop-opacity="1" stop-color="rgb(95.089722%, 71.954346%, 87.449646%)" offset="0.125"/><stop stop-opacity="1" stop-color="rgb(94.898987%, 71.759033%, 87.449646%)" offset="0.140625"/><stop stop-opacity="1" stop-color="rgb(94.801331%, 71.661377%, 87.35199%)" offset="0.148438"/><stop stop-opacity="1" stop-color="rgb(94.606018%, 71.466064%, 87.156677%)" offset="0.15625"/><stop stop-opacity="1" stop-color="rgb(94.316101%, 71.176147%, 87.059021%)" offset="0.1875"/><stop stop-opacity="1" stop-color="rgb(94.026184%, 70.88623%, 87.059021%)" offset="0.195313"/><stop stop-opacity="1" stop-color="rgb(93.826294%, 70.68634%, 87.057495%)" offset="0.203125"/><stop stop-opacity="1" stop-color="rgb(93.530273%, 70.394897%, 86.865234%)" offset="0.21875"/><stop stop-opacity="1" stop-color="rgb(93.232727%, 70.101929%, 86.672974%)" offset="0.226563"/><stop stop-opacity="1" stop-color="rgb(93.031311%, 69.898987%, 86.669922%)" offset="0.234375"/><stop stop-opacity="1" stop-color="rgb(92.739868%, 69.799805%, 86.669922%)" offset="0.25"/><stop stop-opacity="1" stop-color="rgb(92.353821%, 69.604492%, 86.479187%)" offset="0.265625"/><stop stop-opacity="1" stop-color="rgb(91.947937%, 69.213867%, 86.277771%)" offset="0.269531"/><stop stop-opacity="1" stop-color="rgb(91.737366%, 69.018555%, 86.268616%)" offset="0.273438"/><stop stop-opacity="1" stop-color="rgb(91.551208%, 69.017029%, 86.268616%)" offset="0.28125"/><stop stop-opacity="1" stop-color="rgb(91.175842%, 68.824768%, 86.268616%)" offset="0.3125"/><stop stop-opacity="1" stop-color="rgb(90.982056%, 68.536377%, 86.174011%)" offset="0.320313"/><stop stop-opacity="1" stop-color="rgb(90.977478%, 68.338013%, 85.978699%)" offset="0.328125"/><stop stop-opacity="1" stop-color="rgb(90.785217%, 68.238831%, 85.879517%)" offset="0.34375"/><stop stop-opacity="1" stop-color="rgb(90.493774%, 68.138123%, 85.879517%)" offset="0.351563"/><stop stop-opacity="1" stop-color="rgb(90.290833%, 67.938232%, 85.879517%)" offset="0.359375"/><stop stop-opacity="1" stop-color="rgb(89.994812%, 67.83905%, 85.879517%)" offset="0.375"/><stop stop-opacity="1" stop-color="rgb(89.7995%, 67.648315%, 85.688782%)" offset="0.390625"/><stop stop-opacity="1" stop-color="rgb(89.701843%, 67.356873%, 85.493469%)" offset="0.398438"/><stop stop-opacity="1" stop-color="rgb(89.503479%, 67.156982%, 85.488892%)" offset="0.40625"/><stop stop-opacity="1" stop-color="rgb(89.212036%, 67.059326%, 85.488892%)" offset="0.421875"/><stop stop-opacity="1" stop-color="rgb(88.832092%, 66.870117%, 85.488892%)" offset="0.4375"/><stop stop-opacity="1" stop-color="rgb(88.539124%, 66.674805%, 85.394287%)" offset="0.445312"/><stop stop-opacity="1" stop-color="rgb(88.336182%, 66.667175%, 85.198975%)" offset="0.453125"/><stop stop-opacity="1" stop-color="rgb(88.040161%, 66.470337%, 85.099792%)" offset="0.46875"/><stop stop-opacity="1" stop-color="rgb(87.841797%, 66.172791%, 85.099792%)" offset="0.476562"/><stop stop-opacity="1" stop-color="rgb(87.834167%, 65.975952%, 85.099792%)" offset="0.484375"/><stop stop-opacity="1" stop-color="rgb(87.638855%, 65.879822%, 85.099792%)" offset="0.5"/><stop stop-opacity="1" stop-color="rgb(87.449646%, 65.689087%, 84.909058%)" offset="0.515625"/><stop stop-opacity="1" stop-color="rgb(87.35199%, 65.493774%, 84.713745%)" offset="0.523437"/><stop stop-opacity="1" stop-color="rgb(87.153625%, 65.486145%, 84.709167%)" offset="0.53125"/><stop stop-opacity="1" stop-color="rgb(86.862183%, 65.292358%, 84.709167%)" offset="0.546875"/><stop stop-opacity="1" stop-color="rgb(86.477661%, 65.100098%, 84.709167%)" offset="0.5625"/><stop stop-opacity="1" stop-color="rgb(86.180115%, 65.003967%, 84.709167%)" offset="0.570312"/><stop stop-opacity="1" stop-color="rgb(85.978699%, 64.808655%, 84.707642%)" offset="0.578125"/><stop stop-opacity="1" stop-color="rgb(85.879517%, 64.709473%, 84.510803%)" offset="0.59375"/><stop stop-opacity="1" stop-color="rgb(85.780334%, 64.608765%, 84.312439%)" offset="0.601563"/><stop stop-opacity="1" stop-color="rgb(85.585022%, 64.408875%, 84.309387%)" offset="0.609375"/><stop stop-opacity="1" stop-color="rgb(85.488892%, 64.309692%, 84.309387%)" offset="0.625"/><stop stop-opacity="1" stop-color="rgb(85.298157%, 64.118958%, 84.309387%)" offset="0.640625"/><stop stop-opacity="1" stop-color="rgb(85.006714%, 63.923645%, 84.211731%)" offset="0.648438"/><stop stop-opacity="1" stop-color="rgb(84.803772%, 63.916016%, 84.016418%)" offset="0.65625"/><stop stop-opacity="1" stop-color="rgb(84.507751%, 63.722229%, 83.918762%)" offset="0.671875"/><stop stop-opacity="1" stop-color="rgb(84.121704%, 63.529968%, 83.918762%)" offset="0.6875"/><stop stop-opacity="1" stop-color="rgb(83.830261%, 63.433838%, 83.918762%)" offset="0.695313"/><stop stop-opacity="1" stop-color="rgb(83.627319%, 63.238525%, 83.918762%)" offset="0.703125"/><stop stop-opacity="1" stop-color="rgb(83.335876%, 63.139343%, 83.918762%)" offset="0.71875"/><stop stop-opacity="1" stop-color="rgb(83.094788%, 63.043213%, 83.87146%)" offset="0.726562"/><stop stop-opacity="1" stop-color="rgb(82.99408%, 62.846375%, 83.77533%)" offset="0.734375"/><stop stop-opacity="1" stop-color="rgb(82.896423%, 62.64801%, 83.676147%)" offset="0.742187"/><stop stop-opacity="1" stop-color="rgb(82.798767%, 62.44812%, 83.578491%)" offset="0.75"/><stop stop-opacity="1" stop-color="rgb(82.554626%, 62.158203%, 83.529663%)" offset="0.765625"/><stop stop-opacity="1" stop-color="rgb(82.25708%, 61.964417%, 83.432007%)" offset="0.773438"/><stop stop-opacity="1" stop-color="rgb(82.054138%, 61.956787%, 83.236694%)" offset="0.78125"/><stop stop-opacity="1" stop-color="rgb(81.761169%, 61.761475%, 83.139038%)" offset="0.8125"/><stop stop-opacity="1" stop-color="rgb(81.373596%, 61.373901%, 83.139038%)" offset="0.84375"/><stop stop-opacity="1" stop-color="rgb(81.077576%, 61.077881%, 83.039856%)" offset="0.851562"/><stop stop-opacity="1" stop-color="rgb(80.873108%, 60.873413%, 82.846069%)" offset="0.859375"/><stop stop-opacity="1" stop-color="rgb(80.578613%, 60.578918%, 82.749939%)" offset="0.875"/><stop stop-opacity="1" stop-color="rgb(80.389404%, 60.389709%, 82.749939%)" offset="0.890625"/><stop stop-opacity="1" stop-color="rgb(80.291748%, 60.292053%, 82.650757%)" offset="0.898437"/><stop stop-opacity="1" stop-color="rgb(80.093384%, 60.096741%, 82.449341%)" offset="0.90625"/><stop stop-opacity="1" stop-color="rgb(79.801941%, 59.999084%, 82.348633%)" offset="0.921875"/><stop stop-opacity="1" stop-color="rgb(79.421997%, 59.809875%, 82.348633%)" offset="0.9375"/><stop stop-opacity="1" stop-color="rgb(79.127502%, 59.519958%, 82.348633%)" offset="0.945312"/><stop stop-opacity="1" stop-color="rgb(78.919983%, 59.318542%, 82.348633%)" offset="0.953125"/><stop stop-opacity="1" stop-color="rgb(78.625488%, 59.21936%, 82.348633%)" offset="0.96875"/><stop stop-opacity="1" stop-color="rgb(78.33252%, 59.21936%, 82.249451%)" offset="0.976563"/><stop stop-opacity="1" stop-color="rgb(78.135681%, 59.214783%, 82.055664%)" offset="0.984375"/><stop stop-opacity="1" stop-color="rgb(78.039551%, 59.014893%, 81.959534%)" offset="1"/></linearGradient><clipPath id="0cc5150536"><path d="M 209 164.699219 L 317.460938 164.699219 L 317.460938 289.066406 L 209 289.066406 Z M 209 164.699219 " clip-rule="nonzero"/></clipPath></defs><g clip-path="url(#e632bf91b7)"><path fill="#fabde1" d="M 209.035156 227.949219 L 72.960938 148.890625 L 181.398438 85.882812 L 317.476562 164.949219 L 209.035156 227.949219 " fill-opacity="1" fill-rule="nonzero"/></g><g clip-path="url(#19750703cc)"><g clip-path="url(#dc807229e7)"><g clip-path="url(#3451307388)"><path fill="url(#8a4857958e)" d="M 72.960938 98.808594 L 72.960938 289.066406 L 287.390625 289.066406 L 287.390625 98.808594 Z M 72.960938 98.808594 " fill-rule="nonzero"/></g></g></g><g clip-path="url(#0cc5150536)"><path fill="#a383c8" d="M 317.476562 226.0625 L 209.035156 289.066406 L 209.035156 227.949219 L 317.476562 164.949219 L 317.476562 226.0625 " fill-opacity="1" fill-rule="nonzero"/></g><path fill="#fcdaca" d="M 267.34375 161.527344 C 278.144531 162.125 287.117188 158.640625 287.390625 153.738281 C 287.660156 148.839844 279.128906 144.382812 268.328125 143.78125 C 257.53125 143.183594 248.554688 146.671875 248.28125 151.570312 C 248.011719 156.46875 256.546875 160.929688 267.34375 161.527344 Z M 213.253906 192.886719 C 224.050781 193.484375 233.027344 190 233.300781 185.101562 C 233.570312 180.199219 225.035156 175.742188 214.238281 175.144531 C 203.4375 174.542969 194.464844 178.03125 194.191406 182.929688 C 193.921875 187.832031 202.453125 192.289062 213.253906 192.886719 Z M 221.882812 135.171875 C 232.683594 135.773438 241.65625 132.285156 241.929688 127.386719 C 242.199219 122.484375 233.667969 118.027344 222.867188 117.429688 C 212.070312 116.828125 203.09375 120.316406 202.820312 125.214844 C 202.550781 130.117188 211.082031 134.574219 221.882812 135.171875 Z M 167.957031 166.511719 C 178.753906 167.109375 187.726562 163.621094 188 158.722656 C 188.273438 153.820312 179.738281 149.363281 168.9375 148.765625 C 158.140625 148.164062 149.164062 151.652344 148.890625 156.554688 C 148.621094 161.453125 157.15625 165.910156 167.957031 166.511719 Z M 176.675781 108.765625 C 187.476562 109.367188 196.449219 105.878906 196.722656 100.980469 C 196.996094 96.078125 188.460938 91.621094 177.660156 91.023438 C 166.859375 90.421875 157.886719 93.910156 157.613281 98.808594 C 157.34375 103.710938 165.878906 108.167969 176.675781 108.765625 Z M 103.425781 130.300781 C 103.699219 125.402344 112.671875 121.914062 123.472656 122.515625 C 134.269531 123.113281 142.804688 127.574219 142.535156 132.472656 C 142.261719 137.371094 133.289062 140.859375 122.488281 140.261719 C 111.6875 139.660156 103.15625 135.203125 103.425781 130.300781 " fill-opacity="1" fill-rule="nonzero"/></svg>