<svg xmlns="http://www.w3.org/2000/svg" xmlns:xlink="http://www.w3.org/1999/xlink" width="500" zoomAndPan="magnify" viewBox="0 0 375 374.999991" height="500" preserveAspectRatio="xMidYMid meet" version="1.0"><defs><filter x="0%" y="0%" width="100%" height="100%" id="45907d375d"><feColorMatrix values="0 0 0 0 1 0 0 0 0 1 0 0 0 0 1 0 0 0 1 0" color-interpolation-filters="sRGB"/></filter><clipPath id="d6aee147fd"><path d="M 32.527344 90 L 206 90 L 206 264 L 32.527344 264 Z M 32.527344 90 " clip-rule="nonzero"/></clipPath><mask id="dd58482c44"><g filter="url(#45907d375d)"><rect x="-37.5" width="450" fill="#000000" y="-37.499999" height="449.999989" fill-opacity="0.5"/></g></mask><clipPath id="e5424975db"><path d="M 95 138 L 118 138 L 118 156.71875 L 95 156.71875 Z M 95 138 " clip-rule="nonzero"/></clipPath><clipPath id="a53cd47ec5"><path d="M 146 72 L 164.679688 72 L 164.679688 89 L 146 89 Z M 146 72 " clip-rule="nonzero"/></clipPath><clipPath id="ea060db7d5"><path d="M 81 0.480469 L 100 0.480469 L 100 17 L 81 17 Z M 81 0.480469 " clip-rule="nonzero"/></clipPath><clipPath id="cc030c2332"><rect x="0" width="165" y="0" height="157"/></clipPath><clipPath id="54f861ae94"><path d="M 86 65.90625 L 116 65.90625 L 116 116 L 86 116 Z M 86 65.90625 " clip-rule="nonzero"/></clipPath><clipPath id="68309284a8"><path d="M 153 211 L 325 211 L 325 308.90625 L 153 308.90625 Z M 153 211 " clip-rule="nonzero"/></clipPath></defs><g clip-path="url(#d6aee147fd)"><path fill="#c12121" d="M 205.332031 176.789062 C 205.332031 179.605469 202.125 182.230469 201.882812 184.949219 C 201.59375 187.71875 204.214844 190.925781 203.679688 193.648438 C 203.148438 196.371094 199.503906 198.363281 198.679688 200.984375 C 197.851562 203.65625 199.796875 207.300781 198.726562 209.878906 C 197.65625 212.453125 193.722656 213.667969 192.414062 216.097656 C 191.101562 218.574219 192.265625 222.511719 190.761719 224.792969 C 189.207031 227.128906 185.125 227.515625 183.328125 229.652344 C 181.582031 231.792969 181.96875 235.921875 179.976562 237.867188 C 178.035156 239.808594 173.90625 239.421875 171.769531 241.21875 C 169.632812 242.96875 169.195312 247.097656 166.914062 248.652344 C 164.628906 250.207031 160.648438 248.992188 158.21875 250.304688 C 155.789062 251.617188 154.574219 255.550781 152 256.621094 C 149.425781 257.691406 145.785156 255.746094 143.113281 256.574219 C 140.492188 257.351562 138.5 260.996094 135.777344 261.578125 C 133.058594 262.113281 129.902344 259.488281 127.085938 259.78125 C 124.363281 260.023438 121.742188 263.230469 118.925781 263.230469 C 116.109375 263.230469 113.484375 260.023438 110.765625 259.78125 C 107.996094 259.488281 104.792969 262.113281 102.070312 261.578125 C 99.351562 261.042969 97.359375 257.398438 94.738281 256.574219 C 92.066406 255.746094 88.421875 257.691406 85.847656 256.621094 C 83.273438 255.550781 82.058594 251.617188 79.632812 250.304688 C 77.15625 248.992188 73.21875 250.160156 70.9375 248.652344 C 68.605469 247.097656 68.21875 243.015625 66.082031 241.21875 C 63.941406 239.46875 59.816406 239.859375 57.871094 237.867188 C 55.929688 235.875 56.316406 231.792969 54.519531 229.652344 C 52.773438 227.515625 48.644531 227.078125 47.089844 224.792969 C 45.535156 222.511719 46.75 218.527344 45.4375 216.097656 C 44.125 213.667969 40.191406 212.453125 39.125 209.878906 C 38.054688 207.300781 39.996094 203.65625 39.171875 200.984375 C 38.394531 198.363281 34.753906 196.371094 34.167969 193.648438 C 33.636719 190.925781 36.257812 187.769531 35.964844 184.949219 C 35.773438 182.230469 32.566406 179.605469 32.566406 176.789062 C 32.566406 173.96875 35.773438 171.34375 36.015625 168.625 C 36.308594 165.855469 33.683594 162.648438 34.21875 159.925781 C 34.753906 157.207031 38.394531 155.214844 39.222656 152.589844 C 40.046875 149.917969 38.105469 146.273438 39.171875 143.699219 C 40.242188 141.121094 44.175781 139.90625 45.488281 137.476562 C 46.796875 135 45.632812 131.0625 47.136719 128.78125 C 48.691406 126.449219 52.773438 126.058594 54.570312 123.921875 C 56.316406 121.785156 55.929688 117.652344 57.921875 115.710938 C 59.863281 113.765625 63.992188 114.15625 66.128906 112.355469 C 68.265625 110.609375 68.703125 106.476562 70.984375 104.921875 C 73.269531 103.367188 77.25 104.582031 79.679688 103.269531 C 82.109375 101.957031 83.324219 98.023438 85.898438 96.953125 C 88.472656 95.882812 92.113281 97.828125 94.785156 97.003906 C 97.410156 96.226562 99.398438 92.582031 102.121094 91.996094 C 104.839844 91.464844 107.996094 94.085938 110.8125 93.796875 C 113.535156 93.550781 116.15625 90.34375 118.972656 90.34375 C 121.789062 90.34375 124.414062 93.550781 127.132812 93.796875 C 129.902344 94.085938 133.109375 91.464844 135.828125 91.996094 C 138.546875 92.53125 140.539062 96.175781 143.160156 97.003906 C 145.832031 97.828125 149.476562 95.882812 152.050781 96.953125 C 154.625 98.023438 155.839844 101.957031 158.265625 103.269531 C 160.746094 104.582031 164.679688 103.417969 166.960938 104.921875 C 169.292969 106.476562 169.679688 110.558594 171.820312 112.355469 C 173.957031 114.105469 178.085938 113.71875 180.027344 115.710938 C 181.96875 117.703125 181.582031 121.785156 183.378906 123.921875 C 185.125 126.058594 189.253906 126.496094 190.808594 128.78125 C 192.363281 131.0625 191.148438 135.046875 192.460938 137.476562 C 193.773438 139.90625 197.707031 141.121094 198.773438 143.699219 C 199.84375 146.273438 197.902344 149.917969 198.726562 152.589844 C 199.503906 155.214844 203.148438 157.207031 203.730469 159.925781 C 204.261719 162.648438 201.640625 165.804688 201.933594 168.625 C 202.125 171.34375 205.332031 173.96875 205.332031 176.789062 Z M 205.332031 176.789062 " fill-opacity="1" fill-rule="nonzero"/></g><path fill="#d63030" d="M 111.832031 235.144531 C 110.28125 234.222656 108.09375 232.957031 105.277344 232.667969 C 104.9375 232.617188 104.546875 232.617188 104.207031 232.617188 C 101.828125 232.617188 99.789062 233.347656 98.28125 233.882812 C 98.1875 233.929688 98.136719 233.929688 98.039062 233.976562 C 97.941406 233.929688 97.894531 233.832031 97.84375 233.785156 C 96.484375 232.570312 94.640625 230.917969 91.921875 230.140625 C 90.851562 229.847656 89.6875 229.652344 88.472656 229.652344 C 87.113281 229.652344 85.847656 229.847656 84.828125 229.992188 C 84.730469 229.992188 84.683594 230.042969 84.585938 230.042969 C 84.539062 229.945312 84.488281 229.898438 84.441406 229.847656 C 83.371094 228.390625 81.867188 226.445312 79.390625 225.183594 C 76.863281 223.921875 74.335938 223.824219 72.492188 223.726562 C 72.394531 223.726562 72.296875 223.726562 72.199219 223.726562 C 72.152344 223.628906 72.101562 223.578125 72.101562 223.484375 C 71.324219 221.878906 70.257812 219.644531 68.070312 217.945312 C 65.886719 216.242188 63.410156 215.660156 61.613281 215.269531 C 61.515625 215.269531 61.417969 215.222656 61.320312 215.222656 C 61.320312 215.125 61.273438 215.027344 61.273438 214.980469 C 60.835938 213.230469 60.253906 210.898438 58.453125 208.808594 C 56.65625 206.71875 54.328125 205.699219 52.675781 204.96875 C 52.578125 204.921875 52.527344 204.921875 52.433594 204.871094 C 52.433594 204.777344 52.433594 204.679688 52.433594 204.628906 C 52.382812 202.832031 52.285156 200.402344 50.925781 198.023438 C 49.566406 195.640625 47.527344 194.230469 46.019531 193.164062 C 45.972656 193.113281 45.875 193.066406 45.777344 193.015625 C 45.777344 192.917969 45.828125 192.824219 45.828125 192.773438 C 46.117188 191.023438 46.507812 188.59375 45.679688 186.019531 C 44.855469 183.445312 43.15625 181.648438 41.890625 180.382812 C 41.84375 180.335938 41.746094 180.238281 41.699219 180.1875 C 41.746094 180.089844 41.746094 180.042969 41.796875 179.945312 C 42.425781 178.292969 43.347656 176.011719 43.058594 173.289062 C 42.765625 170.617188 41.457031 168.527344 40.484375 167.019531 C 40.433594 166.921875 40.386719 166.828125 40.339844 166.777344 C 40.386719 166.679688 40.433594 166.582031 40.484375 166.535156 C 41.457031 165.027344 42.765625 162.988281 43.058594 160.265625 C 43.347656 157.546875 42.425781 155.261719 41.796875 153.609375 C 41.746094 153.5625 41.746094 153.464844 41.699219 153.367188 C 41.746094 153.320312 41.84375 153.222656 41.890625 153.171875 C 43.15625 151.859375 44.855469 150.113281 45.679688 147.535156 C 46.507812 144.914062 46.117188 142.53125 45.828125 140.78125 C 45.828125 140.683594 45.777344 140.636719 45.777344 140.539062 C 45.875 140.492188 45.921875 140.441406 46.019531 140.394531 C 47.527344 139.375 49.566406 137.964844 50.925781 135.535156 C 52.285156 133.152344 52.382812 130.722656 52.433594 128.925781 C 52.433594 128.828125 52.433594 128.78125 52.433594 128.683594 C 52.527344 128.632812 52.625 128.585938 52.675781 128.585938 C 54.375 127.855469 56.65625 126.835938 58.453125 124.746094 C 60.253906 122.65625 60.835938 120.277344 61.273438 118.578125 C 61.273438 118.480469 61.320312 118.429688 61.320312 118.332031 C 61.417969 118.332031 61.515625 118.285156 61.613281 118.285156 C 63.410156 117.894531 65.886719 117.3125 68.070312 115.613281 C 70.257812 113.910156 71.324219 111.675781 72.101562 110.074219 C 72.152344 109.976562 72.199219 109.925781 72.199219 109.832031 C 72.296875 109.832031 72.394531 109.832031 72.492188 109.832031 C 74.335938 109.78125 76.910156 109.683594 79.390625 108.371094 C 81.867188 107.109375 83.371094 105.117188 84.441406 103.707031 C 84.488281 103.660156 84.539062 103.5625 84.585938 103.511719 C 84.683594 103.511719 84.78125 103.5625 84.828125 103.5625 C 85.847656 103.707031 87.113281 103.902344 88.472656 103.902344 C 89.6875 103.902344 90.851562 103.757812 91.921875 103.417969 C 94.640625 102.640625 96.484375 100.988281 97.84375 99.773438 C 97.894531 99.722656 97.992188 99.675781 98.039062 99.578125 C 98.136719 99.625 98.1875 99.625 98.28125 99.675781 C 99.789062 100.210938 101.828125 100.9375 104.207031 100.9375 C 104.546875 100.9375 104.9375 100.9375 105.277344 100.890625 C 108.09375 100.648438 110.230469 99.335938 111.832031 98.410156 C 111.929688 98.363281 112.027344 98.3125 112.125 98.265625 C 112.222656 98.3125 112.320312 98.363281 112.417969 98.410156 C 113.972656 99.335938 116.15625 100.597656 118.972656 100.890625 C 119.3125 100.9375 119.703125 100.9375 120.042969 100.9375 C 122.421875 100.9375 124.460938 100.210938 125.96875 99.675781 C 126.066406 99.625 126.113281 99.625 126.210938 99.578125 C 126.308594 99.625 126.355469 99.722656 126.40625 99.773438 C 127.765625 100.988281 129.609375 102.640625 132.332031 103.417969 C 133.398438 103.707031 134.566406 103.902344 135.777344 103.902344 C 137.140625 103.902344 138.402344 103.707031 139.421875 103.5625 C 139.519531 103.5625 139.566406 103.511719 139.664062 103.511719 C 139.714844 103.609375 139.761719 103.660156 139.808594 103.707031 C 140.878906 105.164062 142.386719 107.109375 144.863281 108.371094 C 147.386719 109.636719 149.914062 109.734375 151.757812 109.832031 C 151.855469 109.832031 151.953125 109.832031 152.050781 109.832031 C 152.097656 109.925781 152.148438 109.976562 152.148438 110.074219 C 152.925781 111.675781 153.992188 113.910156 156.179688 115.613281 C 158.363281 117.3125 160.839844 117.894531 162.640625 118.285156 C 162.734375 118.285156 162.832031 118.332031 162.929688 118.332031 C 162.929688 118.429688 162.980469 118.527344 162.980469 118.578125 C 163.414062 120.324219 164 122.65625 165.796875 124.746094 C 167.59375 126.835938 169.925781 127.855469 171.574219 128.585938 C 171.671875 128.632812 171.722656 128.632812 171.820312 128.683594 C 171.820312 128.78125 171.820312 128.878906 171.820312 128.925781 C 171.867188 130.722656 171.964844 133.152344 173.324219 135.535156 C 174.683594 137.914062 176.722656 139.324219 178.230469 140.394531 C 178.277344 140.441406 178.375 140.492188 178.472656 140.539062 C 178.472656 140.636719 178.425781 140.734375 178.425781 140.78125 C 178.132812 142.53125 177.746094 144.960938 178.570312 147.535156 C 179.394531 150.113281 181.09375 151.910156 182.359375 153.171875 C 182.40625 153.222656 182.503906 153.320312 182.550781 153.367188 C 182.503906 153.464844 182.503906 153.511719 182.457031 153.609375 C 181.824219 155.261719 180.902344 157.546875 181.191406 160.265625 C 181.484375 162.9375 182.796875 165.027344 183.765625 166.535156 C 183.816406 166.632812 183.863281 166.730469 183.914062 166.777344 C 183.863281 166.875 183.816406 166.972656 183.765625 167.019531 C 182.796875 168.527344 181.484375 170.566406 181.191406 173.289062 C 180.902344 176.011719 181.824219 178.292969 182.457031 179.945312 C 182.503906 179.996094 182.503906 180.089844 182.550781 180.1875 C 182.503906 180.238281 182.40625 180.335938 182.359375 180.382812 C 181.09375 181.695312 179.394531 183.445312 178.570312 186.019531 C 177.742188 188.644531 178.132812 191.023438 178.425781 192.773438 C 178.425781 192.871094 178.472656 192.917969 178.472656 193.015625 C 178.375 193.066406 178.328125 193.113281 178.230469 193.164062 C 176.722656 194.183594 174.683594 195.59375 173.324219 198.023438 C 171.964844 200.402344 171.867188 202.832031 171.820312 204.628906 C 171.820312 204.726562 171.820312 204.777344 171.820312 204.871094 C 171.722656 204.921875 171.625 204.96875 171.574219 204.96875 C 169.875 205.699219 167.59375 206.71875 165.796875 208.808594 C 164 210.898438 163.414062 213.277344 162.980469 214.980469 C 162.980469 215.078125 162.929688 215.125 162.929688 215.222656 C 162.832031 215.222656 162.734375 215.269531 162.640625 215.269531 C 160.839844 215.660156 158.363281 216.242188 156.179688 217.945312 C 153.992188 219.644531 152.925781 221.878906 152.148438 223.484375 C 152.097656 223.578125 152.050781 223.628906 152.050781 223.726562 C 151.953125 223.726562 151.855469 223.726562 151.757812 223.726562 C 149.914062 223.773438 147.339844 223.871094 144.863281 225.183594 C 142.386719 226.445312 140.878906 228.4375 139.808594 229.847656 C 139.761719 229.898438 139.714844 229.992188 139.664062 230.042969 C 139.566406 230.042969 139.46875 229.992188 139.421875 229.992188 C 138.402344 229.847656 137.140625 229.652344 135.777344 229.652344 C 134.566406 229.652344 133.398438 229.800781 132.332031 230.140625 C 129.609375 230.917969 127.765625 232.570312 126.40625 233.785156 C 126.355469 233.832031 126.257812 233.882812 126.210938 233.976562 C 126.113281 233.929688 126.066406 233.929688 125.96875 233.882812 C 124.460938 233.347656 122.421875 232.617188 120.042969 232.617188 C 119.703125 232.617188 119.3125 232.617188 118.972656 232.667969 C 116.15625 232.910156 114.019531 234.171875 112.417969 235.144531 C 112.320312 235.191406 112.222656 235.242188 112.125 235.289062 C 111.980469 235.242188 111.882812 235.191406 111.832031 235.144531 Z M 111.832031 235.144531 " fill-opacity="1" fill-rule="nonzero"/><g mask="url(#dd58482c44)"><g transform="matrix(1, 0, 0, 1, 35, 96)"><g clip-path="url(#cc030c2332)"><g clip-path="url(#e5424975db)"><path fill="#b0160e" d="M 117.875 146.53125 C 117.875 147.792969 117.632812 148.960938 117.195312 150.027344 C 116.757812 151.097656 116.078125 152.019531 115.300781 152.796875 C 112.097656 156.003906 106.609375 157.121094 102.285156 155.324219 C 97.332031 153.429688 93.105469 146.917969 96.941406 142.304688 C 101.070312 137.542969 109.183594 137.785156 114.378906 141.476562 C 115.398438 142.207031 116.320312 143.082031 117.097656 144.101562 C 117.535156 144.878906 117.777344 145.703125 117.875 146.53125 Z M 117.875 146.53125 " fill-opacity="1" fill-rule="nonzero"/></g><path fill="#b0160e" d="M 140.511719 135.5 C 140.121094 141.234375 134 146.96875 127.882812 144.636719 C 124.433594 143.128906 122.925781 139.289062 122.925781 135.839844 C 123.316406 131.613281 126.375 128.210938 130.554688 127.046875 C 134.390625 126.269531 138.566406 128.210938 139.976562 132.097656 C 140.414062 133.121094 140.605469 134.285156 140.511719 135.5 Z M 140.511719 135.5 " fill-opacity="1" fill-rule="nonzero"/><path fill="#b0160e" d="M 141.140625 114.898438 C 140.996094 116.988281 139.925781 118.6875 138.324219 119.855469 C 137.546875 120.4375 136.671875 120.921875 135.703125 121.214844 C 131.28125 122.476562 124.433594 122.089844 122.878906 117.472656 C 121.375 112.515625 125.9375 107.511719 130.894531 106.785156 C 131.863281 106.6875 132.835938 106.734375 133.808594 106.878906 C 136.671875 107.316406 139.34375 108.921875 140.511719 111.789062 C 140.996094 112.761719 141.191406 113.78125 141.140625 114.898438 Z M 141.140625 114.898438 " fill-opacity="1" fill-rule="nonzero"/><path fill="#b0160e" d="M 121.277344 125.976562 C 121.128906 128.066406 120.0625 129.765625 118.457031 130.933594 C 117.683594 131.515625 116.808594 132 115.835938 132.292969 C 111.417969 133.554688 104.566406 133.167969 103.011719 128.550781 C 101.507812 123.59375 106.074219 118.589844 111.027344 117.863281 C 112 117.765625 112.96875 117.8125 113.941406 117.960938 C 116.808594 118.394531 119.480469 120 120.644531 122.867188 C 121.128906 123.839844 121.324219 124.90625 121.277344 125.976562 Z M 121.277344 125.976562 " fill-opacity="1" fill-rule="nonzero"/><path fill="#b0160e" d="M 153.136719 109.554688 C 154.984375 110.523438 156.050781 112.273438 156.488281 114.167969 C 156.683594 115.140625 156.734375 116.113281 156.636719 117.132812 C 155.957031 121.652344 152.699219 127.726562 147.894531 127.238281 C 142.742188 126.558594 140.121094 120.292969 141.53125 115.480469 C 141.820312 114.558594 142.257812 113.683594 142.792969 112.90625 C 144.394531 110.476562 146.921875 108.726562 150.078125 108.824219 C 151.097656 108.824219 152.167969 109.066406 153.136719 109.554688 Z M 153.136719 109.554688 " fill-opacity="1" fill-rule="nonzero"/><path fill="#b0160e" d="M 91.257812 147.015625 C 91.597656 150.367188 90.046875 154.207031 86.597656 155.082031 C 85.867188 155.421875 85.042969 155.617188 84.265625 155.761719 C 83.488281 155.90625 82.664062 155.90625 81.933594 155.8125 C 80.429688 155.617188 79.066406 154.839844 78.242188 153.429688 C 75.183594 148.472656 77.078125 139.289062 83.585938 139.289062 C 84.945312 139.097656 86.355469 139.386719 87.566406 140.117188 C 88.78125 140.84375 89.703125 141.960938 90.09375 143.46875 C 90.628906 144.539062 91.066406 145.703125 91.257812 147.015625 Z M 91.257812 147.015625 " fill-opacity="1" fill-rule="nonzero"/><path fill="#b0160e" d="M 71.34375 141.867188 C 73.871094 144.101562 75.375 147.890625 73.484375 150.953125 C 73.140625 151.679688 72.753906 152.410156 72.21875 153.042969 C 71.734375 153.671875 71.152344 154.257812 70.519531 154.695312 C 69.257812 155.566406 67.800781 155.957031 66.195312 155.472656 C 60.5625 153.964844 55.65625 145.945312 60.417969 141.476562 C 61.242188 140.40625 62.503906 139.628906 63.867188 139.339844 C 65.226562 139.046875 66.683594 139.242188 67.992188 140.066406 C 69.160156 140.457031 70.324219 141.039062 71.34375 141.867188 Z M 71.34375 141.867188 " fill-opacity="1" fill-rule="nonzero"/><path fill="#d82a25" d="M 89.800781 125.929688 C 90.433594 128.210938 89.707031 131.660156 87.375 132.777344 C 86.5 133.214844 85.527344 133.554688 84.554688 133.75 C 79.601562 134.820312 73.871094 132.972656 71.34375 128.164062 C 69.839844 125.101562 70.566406 121.261719 73.238281 118.980469 C 77.078125 115.480469 83.003906 116.5 86.5 119.953125 C 87.179688 120.632812 87.8125 121.457031 88.246094 122.332031 C 88.976562 123.449219 89.511719 124.664062 89.800781 125.929688 Z M 89.800781 125.929688 " fill-opacity="1" fill-rule="nonzero"/><path fill="#d82a25" d="M 126.132812 97.648438 C 126.765625 99.933594 126.035156 103.382812 123.703125 104.5 C 122.832031 104.9375 121.859375 105.277344 120.886719 105.472656 C 115.933594 106.539062 110.203125 104.695312 107.675781 99.882812 C 106.171875 96.824219 106.898438 92.984375 109.570312 90.699219 C 113.40625 87.203125 119.332031 88.222656 122.832031 91.671875 C 123.511719 92.351562 124.140625 93.179688 124.578125 94.050781 C 125.308594 95.171875 125.839844 96.386719 126.132812 97.648438 Z M 126.132812 97.648438 " fill-opacity="1" fill-rule="nonzero"/><path fill="#d82a25" d="M 61.632812 121.992188 C 63.429688 123.5 64.789062 126.753906 63.527344 129.039062 C 63.039062 129.914062 62.457031 130.738281 61.726562 131.46875 C 58.28125 135.160156 52.5 136.859375 47.691406 134.382812 C 44.679688 132.730469 43.175781 129.136719 44.046875 125.734375 C 45.214844 120.679688 50.703125 118.152344 55.511719 119.027344 C 56.484375 119.222656 57.40625 119.515625 58.28125 120 C 59.589844 120.4375 60.707031 121.117188 61.632812 121.992188 Z M 61.632812 121.992188 " fill-opacity="1" fill-rule="nonzero"/><path fill="#d82a25" d="M 105.152344 106.394531 C 107.386719 107.171875 109.8125 109.746094 109.425781 112.273438 C 109.277344 113.246094 109.035156 114.21875 108.648438 115.191406 C 106.753906 119.855469 101.945312 123.546875 96.554688 122.964844 C 93.152344 122.476562 90.433594 119.707031 90.09375 116.210938 C 89.363281 111.058594 93.542969 106.734375 98.398438 105.8125 C 99.371094 105.617188 100.34375 105.570312 101.363281 105.714844 C 102.671875 105.714844 103.984375 105.910156 105.152344 106.394531 Z M 105.152344 106.394531 " fill-opacity="1" fill-rule="nonzero"/><path fill="#b0160e" d="M 154.011719 101.097656 C 150.808594 105.8125 142.597656 107.707031 138.519531 102.652344 C 136.332031 99.59375 136.914062 95.511719 138.664062 92.546875 C 141.09375 89.097656 145.511719 87.6875 149.691406 88.804688 C 153.382812 90.066406 156.050781 93.859375 155.273438 97.890625 C 155.082031 98.960938 154.691406 100.078125 154.011719 101.097656 Z M 154.011719 101.097656 " fill-opacity="1" fill-rule="nonzero"/><g clip-path="url(#a53cd47ec5)"><path fill="#d82a25" d="M 163.386719 85.5 C 162.222656 87.25 160.425781 88.125 158.480469 88.367188 C 157.507812 88.464844 156.488281 88.417969 155.519531 88.222656 C 151.097656 87.105469 145.367188 83.265625 146.339844 78.550781 C 147.503906 73.5 154.011719 71.507812 158.675781 73.351562 C 159.550781 73.742188 160.375 74.277344 161.152344 74.859375 C 163.386719 76.707031 164.890625 79.378906 164.503906 82.488281 C 164.359375 83.605469 164.019531 84.578125 163.386719 85.5 Z M 163.386719 85.5 " fill-opacity="1" fill-rule="nonzero"/></g><path fill="#d82a25" d="M 140.65625 85.0625 C 139.488281 86.8125 137.691406 87.6875 135.75 87.929688 C 134.777344 88.027344 133.757812 87.980469 132.789062 87.785156 C 128.367188 86.667969 122.636719 82.828125 123.605469 78.113281 C 124.773438 73.0625 131.28125 71.070312 135.945312 72.914062 C 136.820312 73.304688 137.644531 73.839844 138.421875 74.421875 C 140.65625 76.269531 142.160156 78.941406 141.773438 82.050781 C 141.578125 83.121094 141.238281 84.140625 140.65625 85.0625 Z M 140.65625 85.0625 " fill-opacity="1" fill-rule="nonzero"/><path fill="#d82a25" d="M 147.746094 38.027344 C 148.816406 39.777344 148.914062 41.816406 148.328125 43.714844 C 148.039062 44.636719 147.550781 45.558594 146.96875 46.335938 C 144.105469 49.882812 138.226562 53.527344 134.339844 50.660156 C 130.214844 47.453125 131.136719 40.75 134.777344 37.300781 C 135.507812 36.667969 136.332031 36.132812 137.207031 35.695312 C 139.828125 34.433594 142.890625 34.191406 145.511719 35.839844 C 146.386719 36.375 147.164062 37.105469 147.746094 38.027344 Z M 147.746094 38.027344 " fill-opacity="1" fill-rule="nonzero"/><path fill="#d82a25" d="M 159.113281 63.050781 C 158.53125 65.335938 156.148438 67.910156 153.574219 67.765625 C 152.605469 67.714844 151.585938 67.523438 150.613281 67.183594 C 145.804688 65.628906 141.820312 61.109375 142.015625 55.714844 C 142.257812 52.3125 144.832031 49.398438 148.28125 48.765625 C 153.332031 47.648438 157.996094 51.535156 159.257812 56.296875 C 159.5 57.269531 159.648438 58.242188 159.597656 59.214844 C 159.648438 60.476562 159.5 61.789062 159.113281 63.050781 Z M 159.113281 63.050781 " fill-opacity="1" fill-rule="nonzero"/><path fill="#d82a25" d="M 136.625 60.039062 C 138.179688 61.835938 138.957031 65.238281 137.351562 67.28125 C 136.722656 68.058594 135.992188 68.785156 135.214844 69.367188 C 131.183594 72.429688 125.210938 73.207031 120.886719 69.953125 C 118.214844 67.863281 117.246094 64.074219 118.703125 60.816406 C 120.644531 56.007812 126.472656 54.402344 131.085938 56.054688 C 132.011719 56.394531 132.882812 56.832031 133.710938 57.464844 C 134.828125 58.144531 135.796875 59.019531 136.625 60.039062 Z M 136.625 60.039062 " fill-opacity="1" fill-rule="nonzero"/><path fill="#d82a25" d="M 89.316406 103.722656 C 90.386719 105.8125 90.335938 109.359375 88.34375 110.914062 C 87.566406 111.546875 86.695312 112.03125 85.769531 112.46875 C 81.15625 114.507812 75.183594 113.828125 71.683594 109.699219 C 69.546875 107.027344 69.546875 103.089844 71.683594 100.320312 C 74.746094 96.09375 80.769531 95.898438 84.847656 98.621094 C 85.671875 99.15625 86.402344 99.835938 87.035156 100.5625 C 88.003906 101.488281 88.78125 102.554688 89.316406 103.722656 Z M 89.316406 103.722656 " fill-opacity="1" fill-rule="nonzero"/><path fill="#b0160e" d="M 40.308594 124.761719 C 40.308594 126.023438 40.066406 127.191406 39.628906 128.261719 C 39.191406 129.328125 38.511719 130.253906 37.734375 131.03125 C 34.527344 134.238281 29.039062 135.355469 24.71875 133.554688 C 19.761719 131.660156 15.539062 125.152344 19.375 120.535156 C 23.503906 115.773438 31.613281 116.015625 36.8125 119.707031 C 37.832031 120.4375 38.753906 121.3125 39.53125 122.332031 C 39.921875 123.109375 40.210938 123.886719 40.308594 124.761719 Z M 40.308594 124.761719 " fill-opacity="1" fill-rule="nonzero"/><path fill="#f4746b" d="M 102.671875 90.359375 C 102.285156 96.09375 96.164062 101.828125 90.046875 99.496094 C 86.597656 97.988281 85.089844 94.148438 85.089844 90.699219 C 85.480469 86.472656 88.539062 83.070312 92.714844 81.90625 C 96.554688 81.128906 100.730469 83.070312 102.140625 86.957031 C 102.578125 88.027344 102.769531 89.144531 102.671875 90.359375 Z M 102.671875 90.359375 " fill-opacity="1" fill-rule="nonzero"/><path fill="#f4746b" d="M 99.855469 71.3125 C 99.710938 73.402344 98.640625 75.101562 97.039062 76.269531 C 96.261719 76.851562 95.386719 77.335938 94.417969 77.628906 C 89.996094 78.890625 83.148438 78.503906 81.59375 73.886719 C 80.089844 68.929688 84.652344 63.925781 89.609375 63.199219 C 90.578125 63.101562 91.550781 63.148438 92.523438 63.296875 C 95.386719 63.730469 98.058594 65.335938 99.226562 68.203125 C 99.710938 69.175781 99.90625 70.195312 99.855469 71.3125 Z M 99.855469 71.3125 " fill-opacity="1" fill-rule="nonzero"/><path fill="#f4746b" d="M 57.550781 16.792969 C 57.453125 18.300781 56.628906 19.5625 55.511719 20.4375 C 54.929688 20.875 54.296875 21.214844 53.570312 21.457031 C 50.3125 22.382812 45.261719 22.089844 44.097656 18.6875 C 42.980469 14.996094 46.332031 11.351562 50.023438 10.769531 C 50.75 10.71875 51.429688 10.71875 52.160156 10.816406 C 54.296875 11.15625 56.238281 12.324219 57.113281 14.460938 C 57.453125 15.191406 57.601562 15.96875 57.550781 16.792969 Z M 57.550781 16.792969 " fill-opacity="1" fill-rule="nonzero"/><path fill="#f4746b" d="M 79.992188 82.390625 C 79.84375 84.480469 78.777344 86.179688 77.175781 87.347656 C 76.398438 87.929688 75.523438 88.417969 74.550781 88.707031 C 70.132812 89.972656 63.28125 89.582031 61.726562 84.964844 C 60.222656 80.011719 64.789062 75.003906 69.742188 74.277344 C 70.714844 74.179688 71.683594 74.226562 72.65625 74.375 C 75.523438 74.8125 78.195312 76.414062 79.359375 79.28125 C 79.84375 80.253906 80.039062 81.273438 79.992188 82.390625 Z M 79.992188 82.390625 " fill-opacity="1" fill-rule="nonzero"/><path fill="#b0160e" d="M 52.839844 145.703125 C 52.257812 147.695312 50.75 149.105469 48.953125 149.882812 C 48.082031 150.273438 47.058594 150.515625 46.089844 150.613281 C 41.523438 150.804688 34.917969 148.8125 34.527344 144.003906 C 34.1875 138.804688 39.824219 135.0625 44.824219 135.453125 C 45.796875 135.597656 46.71875 135.839844 47.644531 136.179688 C 50.3125 137.296875 52.546875 139.4375 53.035156 142.546875 C 53.179688 143.613281 53.132812 144.683594 52.839844 145.703125 Z M 52.839844 145.703125 " fill-opacity="1" fill-rule="nonzero"/><path fill="#f4746b" d="M 61.679688 95.609375 C 60.5625 97.355469 58.765625 98.28125 56.824219 98.570312 C 55.851562 98.71875 54.832031 98.667969 53.859375 98.472656 C 49.390625 97.40625 43.613281 93.710938 44.535156 88.949219 C 45.652344 83.847656 52.0625 81.757812 56.773438 83.558594 C 57.648438 83.945312 58.472656 84.433594 59.25 85.0625 C 61.535156 86.863281 63.089844 89.535156 62.699219 92.644531 C 62.601562 93.664062 62.261719 94.683594 61.679688 95.609375 Z M 61.679688 95.609375 " fill-opacity="1" fill-rule="nonzero"/><path fill="#f4746b" d="M 111.851562 65.96875 C 113.699219 66.9375 114.765625 68.6875 115.203125 70.582031 C 115.398438 71.554688 115.449219 72.527344 115.351562 73.546875 C 114.671875 78.066406 111.417969 84.140625 106.609375 83.65625 C 101.460938 82.972656 98.835938 76.707031 100.246094 71.894531 C 100.535156 70.972656 100.972656 70.097656 101.507812 69.320312 C 103.109375 66.890625 105.636719 65.140625 108.792969 65.238281 C 109.8125 65.238281 110.882812 65.480469 111.851562 65.96875 Z M 111.851562 65.96875 " fill-opacity="1" fill-rule="nonzero"/><path fill="#d82a25" d="M 49.972656 103.429688 C 50.3125 106.785156 48.761719 110.621094 45.3125 111.496094 C 44.582031 111.835938 43.757812 112.03125 42.980469 112.175781 C 42.203125 112.324219 41.378906 112.324219 40.648438 112.226562 C 39.144531 112.03125 37.78125 111.253906 36.957031 109.84375 C 33.898438 104.886719 35.792969 95.703125 42.300781 95.703125 C 43.660156 95.511719 45.070312 95.800781 46.28125 96.53125 C 47.496094 97.257812 48.421875 98.378906 48.808594 99.882812 C 49.34375 100.953125 49.78125 102.117188 49.972656 103.429688 Z M 49.972656 103.429688 " fill-opacity="1" fill-rule="nonzero"/><path fill="#d82a25" d="M 66.390625 108.386719 C 66.730469 111.738281 65.175781 115.578125 61.726562 116.453125 C 61 116.792969 60.175781 116.988281 59.398438 117.132812 C 58.621094 117.277344 57.792969 117.277344 57.066406 117.183594 C 55.558594 116.988281 54.199219 116.210938 53.375 114.800781 C 50.3125 109.84375 52.207031 100.660156 58.71875 100.660156 C 60.078125 100.464844 61.484375 100.757812 62.699219 101.488281 C 63.914062 102.214844 64.835938 103.332031 65.226562 104.839844 C 65.808594 105.910156 66.195312 107.125 66.390625 108.386719 Z M 66.390625 108.386719 " fill-opacity="1" fill-rule="nonzero"/><path fill="#d82a25" d="M 30.058594 98.28125 C 32.585938 100.515625 34.089844 104.304688 32.199219 107.367188 C 31.859375 108.09375 31.46875 108.824219 30.933594 109.457031 C 30.449219 110.085938 29.867188 110.671875 29.234375 111.109375 C 27.972656 111.984375 26.515625 112.371094 24.910156 111.886719 C 19.277344 110.378906 14.371094 102.363281 19.132812 97.890625 C 19.957031 96.824219 21.21875 96.046875 22.582031 95.753906 C 23.941406 95.460938 25.398438 95.65625 26.710938 96.480469 C 27.921875 96.871094 29.039062 97.453125 30.058594 98.28125 Z M 30.058594 98.28125 " fill-opacity="1" fill-rule="nonzero"/><path fill="#f4746b" d="M 42.398438 81.175781 C 43.027344 83.460938 42.300781 86.910156 39.96875 88.027344 C 39.09375 88.464844 38.125 88.804688 37.152344 89 C 32.199219 90.066406 26.464844 88.222656 23.941406 83.410156 C 22.433594 80.351562 23.164062 76.511719 25.835938 74.226562 C 29.671875 70.730469 35.597656 71.75 39.09375 75.199219 C 39.773438 75.878906 40.40625 76.707031 40.84375 77.582031 C 41.570312 78.746094 42.105469 79.914062 42.398438 81.175781 Z M 42.398438 81.175781 " fill-opacity="1" fill-rule="nonzero"/><path fill="#f4746b" d="M 84.847656 54.0625 C 85.480469 56.347656 84.75 59.796875 82.417969 60.914062 C 81.546875 61.351562 80.574219 61.691406 79.601562 61.886719 C 74.648438 62.953125 68.917969 61.109375 66.390625 56.296875 C 64.886719 53.238281 65.613281 49.398438 68.285156 47.113281 C 72.121094 43.617188 78.046875 44.636719 81.546875 48.085938 C 82.226562 48.765625 82.855469 49.59375 83.292969 50.46875 C 84.023438 51.585938 84.554688 52.800781 84.847656 54.0625 Z M 84.847656 54.0625 " fill-opacity="1" fill-rule="nonzero"/><path fill="#f4746b" d="M 63.867188 62.808594 C 66.101562 63.585938 68.527344 66.160156 68.140625 68.6875 C 67.992188 69.660156 67.75 70.632812 67.363281 71.605469 C 65.46875 76.269531 60.660156 79.960938 55.269531 79.378906 C 51.867188 78.890625 49.148438 76.121094 48.808594 72.625 C 48.082031 67.472656 52.257812 63.148438 57.113281 62.226562 C 58.085938 62.03125 59.058594 61.984375 60.078125 62.128906 C 61.386719 62.082031 62.699219 62.324219 63.867188 62.808594 Z M 63.867188 62.808594 " fill-opacity="1" fill-rule="nonzero"/><path fill="#f4746b" d="M 112.726562 57.511719 C 109.523438 62.226562 101.3125 64.121094 97.234375 59.066406 C 95.046875 56.007812 95.628906 51.925781 97.378906 48.960938 C 99.808594 45.511719 104.226562 44.101562 108.40625 45.21875 C 112.097656 46.484375 114.765625 50.273438 113.992188 54.304688 C 113.796875 55.375 113.40625 56.492188 112.726562 57.511719 Z M 112.726562 57.511719 " fill-opacity="1" fill-rule="nonzero"/><path fill="#f4746b" d="M 122.148438 41.914062 C 120.984375 43.664062 119.1875 44.539062 117.246094 44.78125 C 116.273438 44.878906 115.253906 44.832031 114.28125 44.636719 C 109.863281 43.519531 104.128906 39.679688 105.101562 34.96875 C 106.269531 29.914062 112.777344 27.921875 117.4375 29.769531 C 118.3125 30.15625 119.140625 30.691406 119.914062 31.273438 C 122.148438 33.121094 123.65625 35.792969 123.265625 38.902344 C 123.074219 39.972656 122.734375 40.992188 122.148438 41.914062 Z M 122.148438 41.914062 " fill-opacity="1" fill-rule="nonzero"/><path fill="#d82a25" d="M 138.566406 30.835938 C 137.402344 32.585938 135.605469 33.460938 133.660156 33.703125 C 132.691406 33.800781 131.671875 33.753906 130.699219 33.558594 C 126.277344 32.441406 120.546875 28.601562 121.519531 23.886719 C 122.683594 18.835938 129.191406 16.84375 133.855469 18.6875 C 134.730469 19.078125 135.554688 19.613281 136.332031 20.195312 C 138.566406 22.042969 140.074219 24.714844 139.683594 27.824219 C 139.488281 28.894531 139.148438 29.914062 138.566406 30.835938 Z M 138.566406 30.835938 " fill-opacity="1" fill-rule="nonzero"/><path fill="#f4746b" d="M 96.3125 47.210938 C 95.144531 48.960938 93.347656 49.835938 91.40625 50.078125 C 90.433594 50.175781 89.414062 50.128906 88.441406 49.933594 C 84.023438 48.816406 78.289062 44.976562 79.261719 40.261719 C 80.429688 35.210938 86.9375 33.21875 91.597656 35.0625 C 92.472656 35.453125 93.300781 35.988281 94.078125 36.570312 C 96.3125 38.417969 97.816406 41.089844 97.429688 44.199219 C 97.28125 45.269531 96.894531 46.289062 96.3125 47.210938 Z M 96.3125 47.210938 " fill-opacity="1" fill-rule="nonzero"/><g clip-path="url(#ea060db7d5)"><path fill="#f4746b" d="M 99.226562 11.59375 C 98.546875 13.539062 96.992188 14.851562 95.144531 15.578125 C 94.222656 15.917969 93.25 16.113281 92.28125 16.164062 C 87.714844 16.113281 81.207031 13.832031 81.058594 8.972656 C 81.011719 3.773438 86.789062 0.273438 91.792969 0.953125 C 92.714844 1.148438 93.6875 1.441406 94.5625 1.828125 C 97.183594 3.042969 99.320312 5.328125 99.613281 8.4375 C 99.710938 9.503906 99.613281 10.574219 99.226562 11.59375 Z M 99.226562 11.59375 " fill-opacity="1" fill-rule="nonzero"/></g><path fill="#f4746b" d="M 117.828125 19.417969 C 117.246094 21.703125 114.863281 24.277344 112.289062 24.132812 C 111.320312 24.082031 110.300781 23.886719 109.328125 23.546875 C 104.519531 21.992188 100.535156 17.472656 100.730469 12.082031 C 100.972656 8.679688 103.546875 5.765625 106.996094 5.132812 C 112.046875 4.015625 116.710938 7.902344 117.972656 12.664062 C 118.214844 13.636719 118.363281 14.609375 118.3125 15.578125 C 118.363281 16.890625 118.214844 18.203125 117.828125 19.417969 Z M 117.828125 19.417969 " fill-opacity="1" fill-rule="nonzero"/><path fill="#f4746b" d="M 79.019531 21.023438 C 80.28125 22.480469 80.960938 25.347656 79.652344 27 C 79.164062 27.628906 78.535156 28.214844 77.902344 28.746094 C 74.601562 31.273438 69.644531 31.90625 66.050781 29.234375 C 63.816406 27.484375 63.039062 24.375 64.253906 21.703125 C 65.855469 17.71875 70.664062 16.40625 74.503906 17.765625 C 75.28125 18.058594 76.007812 18.398438 76.640625 18.933594 C 77.515625 19.515625 78.339844 20.195312 79.019531 21.023438 Z M 79.019531 21.023438 " fill-opacity="1" fill-rule="nonzero"/><path fill="#f4746b" d="M 88.003906 31.953125 C 86.109375 31.566406 83.875 29.671875 83.925781 27.53125 C 83.925781 26.707031 84.070312 25.878906 84.3125 25.101562 C 85.429688 21.070312 89.023438 17.621094 93.492188 17.621094 C 96.3125 17.667969 98.789062 19.710938 99.46875 22.578125 C 100.535156 26.707031 97.523438 30.691406 93.640625 31.855469 C 92.863281 32.101562 92.035156 32.246094 91.210938 32.246094 C 90.09375 32.292969 89.023438 32.246094 88.003906 31.953125 Z M 88.003906 31.953125 " fill-opacity="1" fill-rule="nonzero"/><path fill="#f4746b" d="M 48.03125 60.136719 C 49.101562 62.226562 49.050781 65.773438 47.058594 67.328125 C 46.28125 67.960938 45.410156 68.445312 44.484375 68.882812 C 39.871094 70.921875 33.898438 70.242188 30.402344 66.113281 C 28.261719 63.441406 28.261719 59.503906 30.402344 56.734375 C 33.460938 52.507812 39.484375 52.3125 43.5625 55.035156 C 44.390625 55.570312 45.117188 56.25 45.75 56.976562 C 46.71875 57.902344 47.496094 58.96875 48.03125 60.136719 Z M 48.03125 60.136719 " fill-opacity="1" fill-rule="nonzero"/><path fill="#f4746b" d="M 20.007812 88.902344 C 19.859375 90.992188 18.792969 92.691406 17.1875 93.859375 C 16.410156 94.441406 15.539062 94.925781 14.566406 95.21875 C 10.148438 96.480469 3.296875 96.09375 1.742188 91.476562 C 0.238281 86.519531 4.804688 81.515625 9.757812 80.789062 C 10.730469 80.691406 11.699219 80.738281 12.671875 80.882812 C 15.539062 81.320312 18.210938 82.925781 19.375 85.792969 C 19.8125 86.765625 20.054688 87.785156 20.007812 88.902344 Z M 20.007812 88.902344 " fill-opacity="1" fill-rule="nonzero"/><path fill="#f4746b" d="M 60.175781 54.355469 C 59.058594 56.105469 57.261719 57.027344 55.316406 57.320312 C 54.347656 57.464844 53.324219 57.414062 52.355469 57.222656 C 47.886719 56.152344 42.105469 52.460938 43.027344 47.699219 C 44.144531 42.59375 50.558594 40.507812 55.269531 42.304688 C 56.144531 42.691406 56.96875 43.179688 57.746094 43.808594 C 60.027344 45.609375 61.582031 48.28125 61.195312 51.390625 C 61.097656 52.410156 60.757812 53.429688 60.175781 54.355469 Z M 60.175781 54.355469 " fill-opacity="1" fill-rule="nonzero"/><path fill="#f4746b" d="M 48.953125 28.503906 C 49.539062 30.59375 48.855469 33.800781 46.71875 34.871094 C 45.894531 35.257812 45.019531 35.597656 44.097656 35.792969 C 39.53125 36.765625 34.238281 35.0625 31.90625 30.640625 C 30.496094 27.824219 31.175781 24.277344 33.65625 22.1875 C 37.199219 18.933594 42.6875 19.902344 45.894531 23.109375 C 46.527344 23.742188 47.109375 24.472656 47.546875 25.296875 C 48.226562 26.21875 48.710938 27.339844 48.953125 28.503906 Z M 48.953125 28.503906 " fill-opacity="1" fill-rule="nonzero"/><path fill="#f4746b" d="M 24.816406 60.527344 C 25.445312 62.808594 24.71875 66.257812 22.386719 67.375 C 21.511719 67.8125 20.539062 68.152344 19.570312 68.347656 C 14.613281 69.417969 8.882812 67.570312 6.359375 62.761719 C 4.851562 59.699219 5.582031 55.859375 8.253906 53.578125 C 12.089844 50.078125 18.015625 51.097656 21.511719 54.550781 C 22.191406 55.230469 22.824219 56.054688 23.261719 56.929688 C 23.988281 58.097656 24.523438 59.3125 24.816406 60.527344 Z M 24.816406 60.527344 " fill-opacity="1" fill-rule="nonzero"/><path fill="#f4746b" d="M 34.089844 35.308594 C 36.324219 36.085938 38.753906 38.660156 38.367188 41.1875 C 38.21875 42.160156 37.976562 43.128906 37.589844 44.101562 C 35.695312 48.765625 30.886719 52.460938 25.496094 51.875 C 22.09375 51.390625 19.375 48.621094 19.035156 45.121094 C 18.304688 39.972656 22.484375 35.648438 27.339844 34.722656 C 28.3125 34.53125 29.285156 34.480469 30.304688 34.625 C 31.566406 34.578125 32.878906 34.820312 34.089844 35.308594 Z M 34.089844 35.308594 " fill-opacity="1" fill-rule="nonzero"/><path fill="#f4746b" d="M 71.101562 34.773438 C 72.074219 36.667969 72.027344 39.824219 70.226562 41.234375 C 69.546875 41.769531 68.722656 42.253906 67.898438 42.59375 C 63.769531 44.441406 58.378906 43.808594 55.269531 40.117188 C 53.375 37.6875 53.375 34.191406 55.269531 31.710938 C 57.988281 27.921875 63.378906 27.726562 67.070312 30.15625 C 67.800781 30.640625 68.480469 31.226562 69.0625 31.90625 C 69.9375 32.78125 70.664062 33.703125 71.101562 34.773438 Z M 71.101562 34.773438 " fill-opacity="1" fill-rule="nonzero"/></g></g></g><g clip-path="url(#54f861ae94)"><path fill="#be8947" d="M 94.058594 97.878906 C 93.183594 93.359375 90.511719 77.90625 92.40625 67.703125 C 92.601562 66.683594 93.523438 65.90625 94.589844 65.90625 L 102.023438 65.90625 C 103.238281 65.90625 104.207031 66.875 104.207031 68.089844 C 104.257812 73.96875 104.839844 90.199219 108.917969 98.023438 C 109.308594 98.75 110.035156 99.1875 110.863281 99.1875 L 113.195312 98.800781 C 114.992188 98.800781 114.554688 101.179688 113.535156 102.640625 C 112.417969 104.195312 111.929688 106.039062 113.777344 107.59375 C 118.003906 111.046875 115.28125 113.328125 112.269531 111.824219 C 109.601562 110.460938 102.652344 110.023438 97.894531 114.542969 C 96.632812 115.757812 94.542969 115.125 94.203125 113.425781 C 93.960938 112.355469 93.910156 110.949219 94.300781 109.296875 C 94.589844 107.984375 93.621094 106.71875 92.308594 106.625 C 90.851562 106.527344 88.035156 105.699219 86.867188 104.535156 C 85.363281 103.027344 88.375 100.695312 93.328125 100.015625 C 94.105469 99.871094 94.203125 98.65625 94.058594 97.878906 Z M 94.058594 97.878906 " fill-opacity="1" fill-rule="nonzero"/></g><path fill="#d39a5b" d="M 95.953125 93.84375 C 95.175781 89.519531 92.988281 76.59375 94.398438 71.054688 C 94.589844 70.277344 95.269531 69.742188 96.097656 69.742188 L 98.769531 69.742188 C 99.738281 69.742188 100.515625 70.570312 100.515625 71.542969 C 100.371094 75.816406 100.175781 86.796875 101.730469 93.164062 C 101.972656 94.234375 101.148438 95.300781 100.03125 95.300781 L 97.699219 95.300781 C 96.824219 95.300781 96.144531 94.671875 95.953125 93.84375 Z M 95.953125 93.84375 " fill-opacity="1" fill-rule="nonzero"/><g clip-path="url(#68309284a8)"><path fill="#ce2e2e" d="M 318.988281 257.882812 C 317.820312 260.460938 313.839844 261.527344 312.480469 263.910156 C 311.070312 266.339844 312.1875 270.324219 310.585938 272.558594 C 308.980469 274.84375 304.851562 275.132812 303.007812 277.222656 C 301.160156 279.3125 301.453125 283.441406 299.414062 285.339844 C 297.375 287.234375 293.292969 286.746094 291.109375 288.398438 C 288.921875 290.101562 288.386719 294.183594 286.007812 295.6875 C 283.675781 297.144531 279.742188 295.832031 277.265625 297.097656 C 274.789062 298.3125 273.476562 302.246094 270.855469 303.21875 C 268.28125 304.191406 264.683594 302.152344 262.015625 302.878906 C 259.34375 303.609375 257.300781 307.203125 254.535156 307.640625 C 251.8125 308.078125 248.707031 305.40625 245.886719 305.601562 C 243.121094 305.792969 240.398438 308.90625 237.632812 308.808594 C 234.863281 308.710938 232.335938 305.453125 229.570312 305.113281 C 226.847656 304.773438 223.546875 307.300781 220.828125 306.667969 C 218.105469 306.039062 216.261719 302.34375 213.636719 301.46875 C 210.964844 300.59375 207.273438 302.394531 204.75 301.277344 C 202.175781 300.109375 201.105469 296.125 198.726562 294.765625 C 196.296875 293.355469 192.316406 294.472656 190.082031 292.871094 C 187.796875 291.265625 187.507812 287.136719 185.417969 285.289062 C 183.328125 283.441406 179.203125 283.734375 177.308594 281.695312 C 175.414062 279.652344 175.898438 275.570312 174.246094 273.386719 C 172.546875 271.199219 168.46875 270.664062 166.960938 268.28125 C 165.503906 265.949219 166.816406 262.015625 165.554688 259.535156 C 164.339844 257.058594 160.40625 255.746094 159.433594 253.121094 C 158.460938 250.546875 160.5 246.953125 159.773438 244.28125 C 159.042969 241.605469 155.449219 239.566406 155.011719 236.796875 C 154.574219 234.074219 157.246094 230.964844 157.054688 228.148438 C 156.859375 225.378906 153.75 222.65625 153.847656 219.886719 C 153.945312 217.117188 157.199219 214.589844 157.539062 211.820312 C 159.675781 217.019531 163.5625 222.316406 168.953125 227.320312 C 182.359375 239.90625 204.945312 251.179688 231.804688 257.351562 C 251.378906 261.867188 270.125 262.890625 285.621094 261.042969 C 305.535156 258.664062 320.152344 251.421875 324.476562 240.390625 C 324.523438 240.828125 324.476562 241.316406 324.378906 241.753906 C 323.746094 244.472656 320.054688 246.320312 319.183594 248.945312 C 318.308594 251.664062 320.152344 255.359375 318.988281 257.882812 Z M 318.988281 257.882812 " fill-opacity="1" fill-rule="nonzero"/></g><path fill="#e53c3c" d="M 285.570312 261.089844 C 285.570312 261.1875 285.523438 261.238281 285.523438 261.335938 C 285.523438 261.433594 285.472656 261.480469 285.472656 261.578125 C 285.375 261.578125 285.28125 261.625 285.183594 261.625 C 283.386719 261.964844 280.90625 262.453125 278.675781 264.054688 C 276.441406 265.707031 275.371094 267.847656 274.546875 269.449219 C 274.496094 269.546875 274.449219 269.59375 274.449219 269.691406 C 274.351562 269.691406 274.253906 269.691406 274.15625 269.691406 C 272.3125 269.691406 269.785156 269.691406 267.257812 270.859375 C 264.734375 272.023438 263.226562 273.96875 262.109375 275.378906 C 262.0625 275.425781 262.015625 275.523438 261.964844 275.570312 C 261.867188 275.570312 261.769531 275.523438 261.722656 275.523438 C 259.878906 275.183594 257.398438 274.695312 254.679688 275.378906 C 251.960938 276.058594 250.066406 277.660156 248.707031 278.828125 C 248.65625 278.875 248.558594 278.925781 248.511719 279.023438 C 248.414062 278.972656 248.367188 278.972656 248.269531 278.925781 C 247.296875 278.535156 246.132812 278.097656 244.820312 277.757812 C 243.605469 277.464844 242.488281 277.371094 241.371094 277.417969 C 238.554688 277.5625 236.367188 278.777344 234.816406 279.652344 C 234.71875 279.703125 234.667969 279.75 234.570312 279.800781 C 234.476562 279.75 234.425781 279.703125 234.378906 279.652344 C 233.066406 278.777344 231.21875 277.613281 228.890625 277.078125 C 228.550781 276.980469 228.210938 276.933594 227.820312 276.882812 C 225.003906 276.496094 222.625 277.273438 220.875 277.808594 C 220.777344 277.855469 220.679688 277.855469 220.582031 277.902344 C 220.484375 277.808594 220.4375 277.757812 220.339844 277.710938 C 219.027344 276.445312 217.183594 274.746094 214.511719 273.871094 C 214.171875 273.773438 213.832031 273.675781 213.492188 273.578125 C 211.160156 273.042969 209.023438 273.289062 207.421875 273.480469 C 207.324219 273.480469 207.273438 273.480469 207.179688 273.53125 C 207.128906 273.433594 207.082031 273.386719 207.03125 273.289062 C 205.964844 271.832031 204.554688 269.789062 202.078125 268.429688 C 201.105469 267.894531 200.039062 267.457031 198.824219 267.214844 C 197.511719 266.921875 196.25 266.824219 195.230469 266.726562 C 195.132812 266.726562 195.082031 266.726562 194.988281 266.726562 C 194.9375 266.632812 194.890625 266.535156 194.890625 266.484375 C 194.160156 264.832031 193.140625 262.597656 191.003906 260.800781 C 188.867188 259.003906 186.390625 258.320312 184.59375 257.835938 C 184.496094 257.835938 184.445312 257.789062 184.351562 257.789062 C 184.351562 257.691406 184.300781 257.59375 184.300781 257.542969 C 183.914062 255.796875 183.378906 253.414062 181.628906 251.226562 C 179.882812 249.042969 177.597656 247.972656 175.898438 247.144531 C 175.800781 247.097656 175.753906 247.050781 175.65625 247.050781 C 175.65625 246.953125 175.65625 246.855469 175.65625 246.804688 C 175.605469 245.007812 175.558594 242.578125 174.296875 240.148438 C 172.984375 237.71875 170.992188 236.214844 169.488281 235.097656 C 169.4375 235.046875 169.339844 235 169.246094 234.949219 C 169.246094 234.851562 169.292969 234.753906 169.292969 234.707031 C 169.632812 232.957031 170.070312 230.578125 169.292969 227.953125 C 169.246094 227.808594 169.195312 227.660156 169.148438 227.515625 C 182.550781 240.101562 205.136719 251.375 231.996094 257.542969 C 251.328125 261.917969 270.078125 262.988281 285.570312 261.089844 Z M 285.570312 261.089844 " fill-opacity="1" fill-rule="nonzero"/><path fill="#b0160e" d="M 258.566406 294.132812 C 258.273438 295.394531 257.789062 296.464844 257.109375 297.386719 C 256.429688 298.3125 255.601562 299.089844 254.632812 299.671875 C 250.792969 302.101562 245.160156 301.90625 241.371094 299.234375 C 236.953125 296.269531 234.328125 288.984375 239.089844 285.386719 C 244.1875 281.644531 252.058594 283.734375 256.28125 288.496094 C 257.109375 289.46875 257.835938 290.488281 258.324219 291.65625 C 258.566406 292.433594 258.664062 293.308594 258.566406 294.132812 Z M 258.566406 294.132812 " fill-opacity="1" fill-rule="nonzero"/><path fill="#b0160e" d="M 283.09375 288.449219 C 281.441406 293.9375 274.207031 298.167969 268.765625 294.523438 C 265.753906 292.238281 265.121094 288.207031 265.898438 284.851562 C 267.210938 280.820312 270.949219 278.148438 275.324219 278 C 279.207031 278.097656 282.898438 280.917969 283.386719 285.046875 C 283.480469 286.117188 283.433594 287.28125 283.09375 288.449219 Z M 283.09375 288.449219 " fill-opacity="1" fill-rule="nonzero"/><path fill="#b0160e" d="M 283.53125 271.585938 C 283.09375 273.042969 282.023438 274.113281 280.664062 274.695312 C 279.984375 274.988281 279.257812 275.183594 278.527344 275.28125 C 275.128906 275.472656 270.222656 274.015625 269.882812 270.46875 C 269.589844 266.632812 273.769531 263.765625 277.460938 264.054688 C 278.1875 264.152344 278.867188 264.347656 279.546875 264.589844 C 281.539062 265.417969 283.238281 266.972656 283.578125 269.253906 C 283.726562 269.984375 283.726562 270.808594 283.53125 271.585938 Z M 283.53125 271.585938 " fill-opacity="1" fill-rule="nonzero"/><path fill="#b0160e" d="M 267.746094 274.164062 C 268.183594 276.203125 267.550781 278.148438 266.335938 279.703125 C 265.753906 280.480469 264.976562 281.160156 264.199219 281.695312 C 260.265625 284.027344 253.515625 285.484375 250.84375 281.449219 C 248.074219 277.03125 251.183594 271.050781 255.796875 269.011719 C 256.671875 268.671875 257.644531 268.429688 258.613281 268.332031 C 261.480469 268.039062 264.492188 268.867188 266.386719 271.296875 C 267.066406 272.121094 267.503906 273.09375 267.746094 274.164062 Z M 267.746094 274.164062 " fill-opacity="1" fill-rule="nonzero"/><path fill="#b0160e" d="M 301.015625 266.726562 C 302.570312 268.089844 303.25 270.03125 303.25 271.976562 C 303.25 272.949219 303.054688 273.96875 302.765625 274.890625 C 301.066406 279.117188 296.546875 284.367188 291.980469 282.761719 C 287.125 280.964844 285.960938 274.257812 288.386719 269.886719 C 288.875 269.058594 289.503906 268.332031 290.234375 267.652344 C 292.320312 265.660156 295.238281 264.492188 298.199219 265.320312 C 299.21875 265.5625 300.191406 266.046875 301.015625 266.726562 Z M 301.015625 266.726562 " fill-opacity="1" fill-rule="nonzero"/><path fill="#b0160e" d="M 232.484375 288.640625 C 232.046875 291.996094 229.714844 295.347656 226.121094 295.492188 C 225.292969 295.640625 224.46875 295.6875 223.691406 295.640625 C 222.914062 295.589844 222.136719 295.445312 221.410156 295.152344 C 220 294.617188 218.835938 293.597656 218.347656 291.996094 C 216.503906 286.457031 220.390625 277.953125 226.75 279.410156 C 228.113281 279.507812 229.421875 280.140625 230.441406 281.109375 C 231.464844 282.082031 232.144531 283.394531 232.144531 284.949219 C 232.433594 286.066406 232.582031 287.332031 232.484375 288.640625 Z M 232.484375 288.640625 " fill-opacity="1" fill-rule="nonzero"/><path fill="#b0160e" d="M 214.269531 279.167969 C 216.261719 281.886719 216.84375 285.96875 214.316406 288.496094 C 213.832031 289.128906 213.25 289.761719 212.617188 290.246094 C 211.988281 290.730469 211.304688 291.167969 210.625 291.460938 C 209.21875 292.042969 207.664062 292.09375 206.207031 291.265625 C 201.058594 288.496094 198.09375 279.605469 203.679688 276.347656 C 204.75 275.523438 206.109375 275.035156 207.519531 275.035156 C 208.925781 275.035156 210.285156 275.570312 211.402344 276.6875 C 212.472656 277.320312 213.445312 278.148438 214.269531 279.167969 Z M 214.269531 279.167969 " fill-opacity="1" fill-rule="nonzero"/><path fill="#d82a25" d="M 234.328125 269.011719 C 234.425781 271.394531 232.921875 274.550781 230.441406 275.183594 C 229.472656 275.425781 228.453125 275.523438 227.480469 275.523438 C 222.429688 275.472656 217.28125 272.363281 215.824219 267.117188 C 214.996094 263.8125 216.601562 260.21875 219.757812 258.613281 C 224.273438 256.039062 229.8125 258.371094 232.484375 262.550781 C 233.015625 263.375 233.40625 264.296875 233.648438 265.269531 C 234.085938 266.4375 234.328125 267.699219 234.328125 269.011719 Z M 234.328125 269.011719 " fill-opacity="1" fill-rule="nonzero"/><path fill="#d82a25" d="M 209.21875 257.59375 C 210.675781 259.488281 211.210938 262.9375 209.507812 264.882812 C 208.828125 265.609375 208.050781 266.289062 207.226562 266.824219 C 203 269.644531 197.027344 269.984375 192.898438 266.484375 C 190.371094 264.203125 189.644531 260.363281 191.296875 257.253906 C 193.578125 252.589844 199.457031 251.324219 203.972656 253.316406 C 204.894531 253.707031 205.722656 254.242188 206.496094 254.871094 C 207.566406 255.648438 208.488281 256.574219 209.21875 257.59375 Z M 209.21875 257.59375 " fill-opacity="1" fill-rule="nonzero"/><path fill="#d82a25" d="M 250.792969 262.648438 C 252.445312 263.667969 253.855469 266.144531 253.125 268.089844 C 252.835938 268.867188 252.445312 269.59375 251.960938 270.226562 C 249.578125 273.578125 245.113281 275.621094 240.984375 274.164062 C 238.359375 273.191406 236.757812 270.46875 237.097656 267.601562 C 237.4375 263.375 241.566406 260.703125 245.597656 260.898438 C 246.375 260.945312 247.199219 261.089844 247.976562 261.335938 C 248.949219 261.625 249.921875 262.0625 250.792969 262.648438 Z M 250.792969 262.648438 " fill-opacity="1" fill-rule="nonzero"/><path fill="#b0160e" d="M 187.847656 255.550781 C 187.554688 256.816406 187.070312 257.882812 186.390625 258.808594 C 185.710938 259.730469 184.882812 260.507812 183.914062 261.089844 C 180.074219 263.519531 174.441406 263.328125 170.652344 260.65625 C 166.234375 257.691406 163.609375 250.402344 168.371094 246.804688 C 173.46875 243.066406 181.339844 245.152344 185.5625 249.914062 C 186.390625 250.886719 187.117188 251.90625 187.605469 253.074219 C 187.847656 253.851562 187.894531 254.679688 187.847656 255.550781 Z M 187.847656 255.550781 " fill-opacity="1" fill-rule="nonzero"/><path fill="#b0160e" d="M 195.375 278.777344 C 194.355469 280.578125 192.605469 281.597656 190.664062 281.984375 C 189.691406 282.179688 188.671875 282.179688 187.699219 282.035156 C 183.183594 281.207031 177.210938 277.757812 177.890625 272.996094 C 178.714844 267.847656 185.078125 265.464844 189.839844 266.972656 C 190.710938 267.3125 191.585938 267.75 192.414062 268.332031 C 194.792969 270.03125 196.445312 272.609375 196.25 275.71875 C 196.152344 276.785156 195.859375 277.808594 195.375 278.777344 Z M 195.375 278.777344 " fill-opacity="1" fill-rule="nonzero"/><path fill="#a42b20" d="M 325.882812 238.59375 C 322.726562 247.679688 314.375 254.921875 305.4375 258.90625 C 304.171875 259.441406 302.910156 259.875 301.597656 260.265625 C 295.089844 262.210938 288.144531 263.035156 281.34375 263.714844 C 280.179688 263.957031 278.964844 264.152344 277.800781 264.347656 C 268.328125 265.757812 258.710938 264.734375 249.144531 262.210938 C 248.171875 262.0625 247.25 261.917969 246.277344 261.773438 C 236.078125 261.820312 225.441406 261.871094 216.699219 256.960938 C 215.628906 256.328125 214.5625 255.648438 213.492188 254.871094 C 212.035156 254.09375 211.550781 252.78125 210.480469 252.152344 C 199.503906 248.457031 188.914062 244.8125 179.734375 237.574219 C 178.8125 236.894531 177.890625 236.261719 176.96875 235.582031 C 176.042969 234.902344 175.167969 234.269531 174.296875 233.589844 C 173.128906 232.714844 172.0625 231.792969 170.992188 230.867188 C 157.199219 224.792969 147.777344 209.101562 157.878906 194.570312 C 158.316406 193.746094 158.851562 192.96875 159.433594 192.191406 C 167.691406 182.617188 181.046875 177.710938 193.238281 178.050781 C 194.402344 178.050781 195.617188 178.003906 196.785156 177.953125 C 205.039062 177.710938 213.054688 176.835938 221.507812 175.378906 C 222.816406 175.425781 224.128906 175.523438 225.441406 175.621094 C 226.316406 175.71875 227.1875 175.765625 228.113281 175.863281 C 241.421875 177.566406 254.144531 180.480469 266.871094 184.269531 C 268.085938 184.804688 269.25 185.339844 270.464844 185.875 C 281.199219 190.636719 291.933594 194.765625 301.792969 200.886719 C 303.007812 201.714844 304.171875 202.539062 305.289062 203.414062 C 313.109375 211.917969 322.679688 220.082031 326.222656 231.546875 C 326.46875 232.957031 326.5625 234.414062 326.273438 235.824219 C 326.273438 236.796875 326.128906 237.71875 325.882812 238.59375 Z M 325.882812 238.59375 " fill-opacity="1" fill-rule="nonzero"/><path fill="#f3e2ce" d="M 321.511719 221.929688 C 313.9375 254.871094 279.402344 258.90625 236.078125 248.945312 C 192.753906 238.984375 152.535156 221.539062 164.679688 185.921875 C 178.328125 145.691406 216.988281 119.0625 260.3125 129.023438 C 303.640625 138.984375 330.984375 180.578125 321.511719 221.929688 Z M 321.511719 221.929688 " fill-opacity="1" fill-rule="nonzero"/><path fill="#f8ebdb" d="M 297.082031 203.609375 C 291.058594 229.75 264.929688 233.25 232.335938 225.765625 C 199.699219 218.285156 169.488281 204.777344 178.957031 176.449219 C 189.644531 144.476562 219.078125 123.046875 251.667969 130.53125 C 284.257812 138.011719 304.609375 170.761719 297.082031 203.609375 Z M 297.082031 203.609375 " fill-opacity="1" fill-rule="nonzero"/><path fill="#ffffff" d="M 203.195312 146.078125 C 203.195312 146.078125 221.359375 129.167969 243.121094 131.355469 C 264.878906 133.542969 245.113281 151.375 234.472656 153.222656 C 223.835938 155.117188 199.457031 172.753906 193.140625 165.953125 C 186.875 159.199219 203.195312 146.078125 203.195312 146.078125 Z M 203.195312 146.078125 " fill-opacity="1" fill-rule="nonzero"/><path fill="#ffffff" d="M 185.9375 169.1875 C 186.289062 169.269531 186.632812 169.390625 186.960938 169.546875 C 187.292969 169.707031 187.601562 169.902344 187.894531 170.132812 C 188.1875 170.359375 188.453125 170.621094 188.695312 170.914062 C 188.941406 171.207031 189.152344 171.523438 189.339844 171.867188 C 189.523438 172.210938 189.675781 172.574219 189.796875 172.957031 C 189.914062 173.335938 190 173.730469 190.050781 174.132812 C 190.101562 174.539062 190.113281 174.949219 190.09375 175.359375 C 190.070312 175.773438 190.011719 176.179688 189.921875 176.585938 C 189.828125 176.988281 189.699219 177.382812 189.539062 177.761719 C 189.378906 178.140625 189.191406 178.503906 188.96875 178.847656 C 188.746094 179.1875 188.5 179.503906 188.226562 179.796875 C 187.953125 180.085938 187.65625 180.347656 187.339844 180.574219 C 187.023438 180.804688 186.691406 180.996094 186.347656 181.152344 C 186 181.308594 185.644531 181.425781 185.28125 181.507812 C 184.921875 181.585938 184.554688 181.625 184.191406 181.625 C 183.824219 181.625 183.464844 181.582031 183.109375 181.5 C 182.753906 181.417969 182.414062 181.300781 182.085938 181.140625 C 181.753906 180.980469 181.445312 180.789062 181.152344 180.558594 C 180.859375 180.328125 180.59375 180.066406 180.351562 179.773438 C 180.105469 179.484375 179.894531 179.164062 179.707031 178.820312 C 179.523438 178.476562 179.371094 178.117188 179.25 177.734375 C 179.132812 177.351562 179.046875 176.960938 178.996094 176.554688 C 178.945312 176.152344 178.933594 175.742188 178.953125 175.328125 C 178.976562 174.917969 179.035156 174.507812 179.125 174.105469 C 179.21875 173.699219 179.347656 173.308594 179.507812 172.929688 C 179.667969 172.546875 179.855469 172.1875 180.078125 171.84375 C 180.300781 171.5 180.546875 171.183594 180.820312 170.894531 C 181.09375 170.601562 181.390625 170.34375 181.707031 170.113281 C 182.023438 169.886719 182.355469 169.695312 182.699219 169.535156 C 183.046875 169.378906 183.402344 169.261719 183.765625 169.183594 C 184.125 169.101562 184.492188 169.0625 184.855469 169.066406 C 185.222656 169.066406 185.582031 169.105469 185.9375 169.1875 Z M 185.9375 169.1875 " fill-opacity="1" fill-rule="nonzero"/><path fill="#000000" d="M 211.464844 179.132812 C 212.140625 179.339844 212.792969 179.613281 213.414062 179.949219 C 214.039062 180.285156 214.621094 180.679688 215.167969 181.128906 C 215.714844 181.582031 216.210938 182.082031 216.65625 182.628906 C 217.105469 183.179688 217.492188 183.765625 217.824219 184.390625 C 218.15625 185.019531 218.425781 185.671875 218.628906 186.347656 C 218.832031 187.027344 218.964844 187.71875 219.03125 188.425781 C 219.101562 189.128906 219.097656 189.835938 219.027344 190.539062 C 218.953125 191.242188 218.8125 191.933594 218.605469 192.609375 C 218.398438 193.289062 218.125 193.9375 217.789062 194.5625 C 217.453125 195.1875 217.0625 195.769531 216.609375 196.316406 C 216.160156 196.863281 215.660156 197.359375 215.109375 197.804688 C 214.5625 198.253906 213.972656 198.644531 213.347656 198.976562 C 212.722656 199.308594 212.070312 199.574219 211.394531 199.777344 C 210.714844 199.980469 210.023438 200.117188 209.316406 200.183594 C 208.613281 200.25 207.910156 200.246094 207.203125 200.175781 C 206.5 200.105469 205.808594 199.964844 205.132812 199.753906 C 204.457031 199.546875 203.804688 199.277344 203.183594 198.941406 C 202.558594 198.605469 201.976562 198.210938 201.429688 197.757812 C 200.882812 197.308594 200.386719 196.808594 199.941406 196.257812 C 199.492188 195.710938 199.101562 195.121094 198.769531 194.496094 C 198.441406 193.871094 198.171875 193.21875 197.96875 192.539062 C 197.765625 191.859375 197.632812 191.167969 197.5625 190.464844 C 197.496094 189.757812 197.5 189.054688 197.570312 188.347656 C 197.644531 187.644531 197.78125 186.953125 197.992188 186.277344 C 198.199219 185.601562 198.472656 184.949219 198.808594 184.324219 C 199.144531 183.703125 199.535156 183.117188 199.988281 182.570312 C 200.4375 182.027344 200.9375 181.53125 201.488281 181.082031 C 202.035156 180.632812 202.621094 180.246094 203.25 179.914062 C 203.875 179.582031 204.527344 179.3125 205.203125 179.109375 C 205.882812 178.90625 206.574219 178.773438 207.277344 178.707031 C 207.984375 178.636719 208.6875 178.640625 209.390625 178.710938 C 210.097656 178.785156 210.789062 178.925781 211.464844 179.132812 Z M 211.464844 179.132812 " fill-opacity="1" fill-rule="nonzero"/><path fill="#ffffff" d="M 215.773438 187.625 C 215.335938 189.46875 213.492188 190.636719 211.644531 190.199219 C 209.800781 189.761719 208.636719 187.914062 209.070312 186.066406 C 209.507812 184.222656 211.355469 183.054688 213.199219 183.492188 C 215.046875 183.929688 216.164062 185.777344 215.773438 187.625 Z M 215.773438 187.625 " fill-opacity="1" fill-rule="nonzero"/><path fill="#000000" d="M 292.824219 203.664062 C 293.007812 204.347656 293.121094 205.042969 293.167969 205.75 C 293.214844 206.457031 293.195312 207.164062 293.101562 207.863281 C 293.011719 208.566406 292.851562 209.253906 292.625 209.925781 C 292.398438 210.59375 292.105469 211.238281 291.753906 211.851562 C 291.398438 212.464844 290.988281 213.039062 290.523438 213.570312 C 290.058594 214.105469 289.542969 214.585938 288.980469 215.019531 C 288.421875 215.449219 287.824219 215.824219 287.1875 216.136719 C 286.554688 216.449219 285.894531 216.699219 285.210938 216.882812 C 284.527344 217.066406 283.832031 217.183594 283.125 217.230469 C 282.417969 217.277344 281.714844 217.253906 281.011719 217.164062 C 280.3125 217.070312 279.625 216.910156 278.953125 216.683594 C 278.28125 216.457031 277.640625 216.167969 277.027344 215.8125 C 276.414062 215.460938 275.839844 215.050781 275.308594 214.582031 C 274.777344 214.117188 274.292969 213.601562 273.863281 213.039062 C 273.429688 212.480469 273.058594 211.878906 272.746094 211.246094 C 272.429688 210.609375 272.183594 209.953125 271.996094 209.265625 C 271.8125 208.582031 271.699219 207.886719 271.652344 207.179688 C 271.605469 206.472656 271.628906 205.769531 271.71875 205.066406 C 271.8125 204.363281 271.96875 203.679688 272.199219 203.007812 C 272.425781 202.335938 272.714844 201.695312 273.066406 201.082031 C 273.421875 200.46875 273.832031 199.894531 274.296875 199.359375 C 274.765625 198.828125 275.277344 198.34375 275.839844 197.914062 C 276.402344 197.480469 277 197.109375 277.632812 196.796875 C 278.269531 196.480469 278.925781 196.234375 279.609375 196.050781 C 280.292969 195.867188 280.988281 195.75 281.695312 195.703125 C 282.402344 195.65625 283.105469 195.679688 283.808594 195.769531 C 284.511719 195.863281 285.195312 196.023438 285.867188 196.25 C 286.539062 196.476562 287.179688 196.765625 287.792969 197.121094 C 288.40625 197.472656 288.980469 197.882812 289.511719 198.351562 C 290.046875 198.816406 290.527344 199.332031 290.960938 199.890625 C 291.390625 200.453125 291.765625 201.050781 292.078125 201.6875 C 292.390625 202.320312 292.640625 202.980469 292.824219 203.664062 Z M 292.824219 203.664062 " fill-opacity="1" fill-rule="nonzero"/><path fill="#ffffff" d="M 289.941406 204.679688 C 289.503906 206.523438 287.660156 207.691406 285.8125 207.253906 C 283.96875 206.816406 282.800781 204.96875 283.238281 203.125 C 283.675781 201.277344 285.523438 200.109375 287.367188 200.546875 C 289.164062 200.984375 290.332031 202.832031 289.941406 204.679688 Z M 289.941406 204.679688 " fill-opacity="1" fill-rule="nonzero"/><path fill="#000000" d="M 243.167969 214.007812 C 241.324219 213.570312 239.71875 212.988281 238.359375 212.308594 C 233.359375 209.878906 230.394531 206.28125 229.957031 205.503906 C 229.421875 204.582031 229.859375 203.851562 230.25 203.609375 C 230.636719 203.316406 231.414062 203.027344 232.335938 204.046875 C 232.484375 204.242188 232.628906 204.433594 232.675781 204.679688 C 233.601562 205.746094 235.980469 208.175781 239.527344 209.878906 C 245.0625 212.597656 250.941406 212.550781 256.914062 209.730469 C 257.59375 209.390625 258.371094 209.683594 258.710938 210.363281 C 259.050781 211.042969 258.761719 211.820312 258.078125 212.160156 C 252.300781 214.832031 247.199219 214.929688 243.167969 214.007812 Z M 243.167969 214.007812 " fill-opacity="1" fill-rule="nonzero"/><path fill="#ffb2c3" d="M 185.5625 194.167969 C 186.21875 194.316406 186.855469 194.511719 187.480469 194.746094 C 188.105469 194.976562 188.699219 195.25 189.265625 195.558594 C 189.832031 195.867188 190.363281 196.207031 190.851562 196.574219 C 191.339844 196.945312 191.78125 197.339844 192.171875 197.761719 C 192.566406 198.179688 192.902344 198.613281 193.179688 199.0625 C 193.460938 199.515625 193.679688 199.972656 193.835938 200.4375 C 193.996094 200.90625 194.085938 201.367188 194.117188 201.832031 C 194.144531 202.292969 194.109375 202.746094 194.007812 203.1875 C 193.90625 203.628906 193.742188 204.050781 193.511719 204.453125 C 193.285156 204.859375 193 205.234375 192.65625 205.585938 C 192.3125 205.9375 191.914062 206.253906 191.464844 206.535156 C 191.015625 206.820312 190.523438 207.0625 189.988281 207.269531 C 189.453125 207.476562 188.886719 207.640625 188.285156 207.757812 C 187.683594 207.878906 187.058594 207.953125 186.414062 207.984375 C 185.769531 208.011719 185.117188 207.996094 184.453125 207.9375 C 183.789062 207.875 183.128906 207.769531 182.476562 207.617188 C 181.820312 207.464844 181.179688 207.273438 180.554688 207.039062 C 179.933594 206.804688 179.335938 206.535156 178.769531 206.226562 C 178.203125 205.917969 177.675781 205.578125 177.183594 205.210938 C 176.695312 204.839844 176.257812 204.445312 175.863281 204.023438 C 175.472656 203.605469 175.136719 203.171875 174.855469 202.71875 C 174.574219 202.269531 174.355469 201.8125 174.199219 201.347656 C 174.042969 200.878906 173.949219 200.417969 173.921875 199.953125 C 173.890625 199.492188 173.929688 199.039062 174.03125 198.597656 C 174.132812 198.15625 174.296875 197.734375 174.523438 197.328125 C 174.75 196.925781 175.035156 196.550781 175.378906 196.199219 C 175.726562 195.847656 176.121094 195.53125 176.570312 195.25 C 177.019531 194.964844 177.511719 194.71875 178.046875 194.515625 C 178.582031 194.308594 179.152344 194.144531 179.753906 194.027344 C 180.355469 193.90625 180.976562 193.832031 181.621094 193.800781 C 182.265625 193.773438 182.921875 193.789062 183.582031 193.847656 C 184.246094 193.910156 184.90625 194.015625 185.5625 194.167969 Z M 185.5625 194.167969 " fill-opacity="1" fill-rule="nonzero"/><path fill="#ffb2c3" d="M 300.789062 220.644531 C 301.445312 220.792969 302.085938 220.988281 302.710938 221.222656 C 303.332031 221.453125 303.929688 221.726562 304.496094 222.035156 C 305.0625 222.34375 305.589844 222.683594 306.078125 223.050781 C 306.570312 223.421875 307.007812 223.816406 307.402344 224.238281 C 307.792969 224.65625 308.128906 225.089844 308.410156 225.539062 C 308.6875 225.992188 308.90625 226.449219 309.066406 226.914062 C 309.222656 227.382812 309.316406 227.84375 309.34375 228.308594 C 309.371094 228.769531 309.335938 229.222656 309.234375 229.664062 C 309.132812 230.105469 308.96875 230.527344 308.742188 230.929688 C 308.515625 231.335938 308.230469 231.710938 307.882812 232.0625 C 307.539062 232.414062 307.144531 232.730469 306.695312 233.011719 C 306.246094 233.296875 305.753906 233.539062 305.21875 233.746094 C 304.683594 233.953125 304.113281 234.113281 303.511719 234.234375 C 302.910156 234.355469 302.289062 234.429688 301.644531 234.460938 C 301 234.488281 300.34375 234.472656 299.679688 234.414062 C 299.019531 234.351562 298.359375 234.246094 297.703125 234.09375 C 297.046875 233.941406 296.40625 233.75 295.785156 233.515625 C 295.160156 233.28125 294.566406 233.011719 294 232.703125 C 293.429688 232.394531 292.902344 232.054688 292.414062 231.6875 C 291.925781 231.316406 291.484375 230.921875 291.09375 230.5 C 290.699219 230.082031 290.363281 229.648438 290.085938 229.195312 C 289.804688 228.746094 289.585938 228.289062 289.429688 227.824219 C 289.269531 227.355469 289.175781 226.894531 289.148438 226.429688 C 289.121094 225.96875 289.15625 225.515625 289.257812 225.074219 C 289.359375 224.632812 289.523438 224.210938 289.75 223.804688 C 289.980469 223.402344 290.265625 223.027344 290.609375 222.675781 C 290.953125 222.324219 291.351562 222.007812 291.800781 221.726562 C 292.246094 221.441406 292.738281 221.195312 293.273438 220.992188 C 293.8125 220.785156 294.378906 220.621094 294.980469 220.503906 C 295.582031 220.382812 296.207031 220.308594 296.851562 220.277344 C 297.496094 220.25 298.148438 220.265625 298.8125 220.324219 C 299.476562 220.386719 300.132812 220.492188 300.789062 220.644531 Z M 300.789062 220.644531 " fill-opacity="1" fill-rule="nonzero"/></svg>