<svg xmlns="http://www.w3.org/2000/svg" xmlns:xlink="http://www.w3.org/1999/xlink" width="500" zoomAndPan="magnify" viewBox="0 0 375 374.999991" height="500" preserveAspectRatio="xMidYMid meet" version="1.0"><metadata><ContainsAiGeneratedContent>Yes</ContainsAiGeneratedContent></metadata><defs><filter x="0%" y="0%" width="100%" height="100%" id="66da19e19f"><feColorMatrix values="0 0 0 0 1 0 0 0 0 1 0 0 0 0 1 0 0 0 1 0" color-interpolation-filters="sRGB"/></filter><mask id="bec53e61b8"><g filter="url(#66da19e19f)"><rect x="-37.5" width="450" fill="#000000" y="-37.499999" height="449.999989" fill-opacity="0.4"/></g></mask><clipPath id="f387a0db37"><path d="M 0.800781 0.640625 L 23 0.640625 L 23 29.921875 L 0.800781 29.921875 Z M 0.800781 0.640625 " clip-rule="nonzero"/></clipPath><clipPath id="240da8d7f1"><rect x="0" width="24" y="0" height="30"/></clipPath><mask id="65453d9f81"><g filter="url(#66da19e19f)"><rect x="-37.5" width="450" fill="#000000" y="-37.499999" height="449.999989" fill-opacity="0.4"/></g></mask><clipPath id="5df43b52fe"><path d="M 0.441406 1 L 22.761719 1 L 22.761719 30.199219 L 0.441406 30.199219 Z M 0.441406 1 " clip-rule="nonzero"/></clipPath><clipPath id="cc353c82eb"><rect x="0" width="23" y="0" height="31"/></clipPath></defs><path fill="#ff751f" d="M 86.003906 169.351562 C 82.710938 157.753906 70.242188 108.480469 87.328125 79.367188 C 87.699219 78.734375 88.121094 78.136719 88.59375 77.574219 C 89.070312 77.015625 89.589844 76.5 90.152344 76.03125 C 90.71875 75.5625 91.320312 75.144531 91.957031 74.78125 C 92.59375 74.414062 93.257812 74.109375 93.949219 73.863281 C 94.640625 73.617188 95.347656 73.429688 96.074219 73.308594 C 96.796875 73.183594 97.527344 73.125 98.261719 73.128906 C 98.996094 73.132812 99.722656 73.203125 100.445312 73.335938 C 101.167969 73.46875 101.875 73.660156 102.5625 73.917969 C 111.785156 77.355469 127.03125 87.40625 147.359375 115.796875 C 147.359375 115.796875 194.894531 102.929688 223.125 116.007812 C 223.125 116.007812 241.511719 82.214844 267.785156 73.835938 C 268.480469 73.613281 269.1875 73.445312 269.90625 73.335938 C 270.625 73.222656 271.347656 73.167969 272.078125 73.171875 C 272.804688 73.175781 273.527344 73.234375 274.246094 73.351562 C 274.964844 73.46875 275.671875 73.644531 276.363281 73.871094 C 277.054688 74.101562 277.722656 74.382812 278.367188 74.71875 C 279.015625 75.050781 279.632812 75.433594 280.21875 75.867188 C 280.804688 76.300781 281.351562 76.773438 281.863281 77.292969 C 282.375 77.8125 282.839844 78.367188 283.265625 78.960938 C 290.269531 88.820312 297.574219 112.683594 285.679688 169.625 C 285.242188 171.726562 285.339844 173.800781 285.96875 175.851562 C 290.660156 191.109375 307.578125 261.132812 233.988281 290.484375 C 203.277344 302.734375 169.035156 303.222656 138.214844 291.238281 C 103.738281 277.828125 67.429688 246.710938 86.054688 174.4375 C 86.496094 172.738281 86.480469 171.042969 86.003906 169.351562 Z M 86.003906 169.351562 " fill-opacity="1" fill-rule="nonzero"/><path fill="#070707" d="M 186.46875 231.773438 C 187.882812 238.578125 190.25 245.679688 195.039062 250.296875 C 197.308594 252.480469 200.023438 254.167969 202.957031 254.765625 C 204.527344 255.09375 206.097656 255.117188 207.675781 254.835938 C 209.199219 254.566406 210.660156 253.953125 212.027344 253.171875 C 215.066406 251.441406 217.632812 248.765625 220.113281 246.152344 C 220.644531 245.59375 220.640625 244.484375 220.113281 243.925781 C 219.546875 243.328125 218.742188 243.328125 218.179688 243.925781 C 217.121094 245.042969 216.0625 246.152344 214.941406 247.199219 C 214.8125 247.320312 214.679688 247.445312 214.542969 247.566406 L 214.320312 247.769531 C 214.359375 247.734375 214.53125 247.582031 214.328125 247.761719 C 214.027344 248.023438 213.726562 248.28125 213.417969 248.53125 C 212.855469 248.988281 212.273438 249.421875 211.675781 249.824219 C 211.085938 250.21875 210.476562 250.570312 209.847656 250.882812 C 210.121094 250.75 209.886719 250.863281 209.816406 250.894531 L 209.5625 251.011719 C 209.421875 251.074219 209.285156 251.128906 209.144531 251.183594 C 208.796875 251.320312 208.445312 251.441406 208.085938 251.542969 C 207.765625 251.636719 207.4375 251.714844 207.109375 251.78125 C 207.097656 251.78125 206.734375 251.851562 206.960938 251.808594 C 207.1875 251.765625 206.835938 251.824219 206.824219 251.828125 C 206.644531 251.851562 206.46875 251.867188 206.289062 251.882812 C 205.613281 251.929688 204.9375 251.914062 204.261719 251.835938 L 204.050781 251.808594 C 203.792969 251.777344 204.050781 251.816406 204.097656 251.816406 C 203.921875 251.796875 203.746094 251.765625 203.574219 251.71875 C 203.238281 251.648438 202.910156 251.5625 202.582031 251.460938 C 201.933594 251.277344 201.304688 251.035156 200.703125 250.726562 L 200.433594 250.585938 C 200.289062 250.507812 200.140625 250.425781 199.996094 250.34375 C 199.691406 250.164062 199.386719 249.976562 199.089844 249.777344 C 198.492188 249.371094 197.917969 248.929688 197.371094 248.457031 C 197.167969 248.28125 197.351562 248.4375 197.386719 248.46875 C 197.316406 248.40625 197.246094 248.339844 197.175781 248.273438 C 197.046875 248.15625 196.921875 248.039062 196.796875 247.914062 C 196.523438 247.640625 196.253906 247.359375 195.996094 247.066406 C 195.503906 246.515625 195.042969 245.941406 194.613281 245.339844 C 194.503906 245.183594 194.394531 245.027344 194.285156 244.867188 C 194.457031 245.117188 194.292969 244.878906 194.253906 244.816406 L 194.082031 244.550781 C 193.863281 244.207031 193.65625 243.863281 193.453125 243.507812 C 193.0625 242.824219 192.695312 242.117188 192.355469 241.390625 C 191.96875 240.570312 191.613281 239.726562 191.289062 238.867188 C 191.289062 238.867188 191.140625 238.46875 191.222656 238.6875 C 191.289062 238.867188 191.148438 238.484375 191.132812 238.441406 C 191.050781 238.210938 190.972656 237.984375 190.898438 237.753906 C 190.757812 237.335938 190.621094 236.914062 190.492188 236.492188 C 189.9375 234.671875 189.488281 232.8125 189.101562 230.9375 C 188.933594 230.136719 188.101562 229.582031 187.417969 229.835938 C 186.691406 230.105469 186.285156 230.914062 186.460938 231.773438 Z M 186.46875 231.773438 " fill-opacity="1" fill-rule="nonzero"/><path fill="#070707" d="M 205.503906 255.621094 C 204.605469 255.621094 203.71875 255.527344 202.835938 255.34375 C 200.007812 254.765625 197.167969 253.167969 194.628906 250.71875 C 190.511719 246.742188 187.730469 240.761719 185.890625 231.894531 C 185.65625 230.761719 186.210938 229.660156 187.214844 229.289062 C 187.714844 229.113281 188.191406 229.160156 188.648438 229.421875 C 189.203125 229.734375 189.546875 230.199219 189.679688 230.820312 C 190.105469 232.871094 190.554688 234.671875 191.0625 236.324219 C 191.191406 236.75 191.324219 237.167969 191.460938 237.570312 C 191.539062 237.796875 191.617188 238.023438 191.695312 238.25 L 191.777344 238.484375 C 191.777344 238.488281 191.777344 238.496094 191.777344 238.5 L 191.816406 238.601562 C 191.824219 238.625 191.832031 238.648438 191.839844 238.671875 C 192.167969 239.535156 192.519531 240.371094 192.886719 241.152344 C 193.226562 241.871094 193.59375 242.5625 193.964844 243.226562 C 194.160156 243.578125 194.367188 243.914062 194.574219 244.242188 C 194.632812 244.328125 194.695312 244.414062 194.746094 244.5 L 194.828125 244.617188 L 194.835938 244.636719 C 194.921875 244.753906 195.003906 244.871094 195.089844 244.996094 C 195.507812 245.582031 195.953125 246.140625 196.433594 246.675781 C 196.683594 246.957031 196.945312 247.230469 197.210938 247.5 C 197.328125 247.617188 197.453125 247.734375 197.574219 247.851562 L 197.710938 247.980469 L 197.757812 248.019531 L 197.769531 248.03125 C 198.292969 248.484375 198.839844 248.90625 199.414062 249.296875 C 199.703125 249.488281 199.996094 249.671875 200.289062 249.839844 C 200.425781 249.921875 200.570312 250 200.710938 250.078125 L 200.976562 250.21875 C 201.546875 250.503906 202.136719 250.734375 202.75 250.90625 C 203.066406 251.003906 203.382812 251.082031 203.691406 251.152344 L 203.835938 251.183594 C 203.894531 251.199219 203.953125 251.210938 204.007812 251.222656 C 204.0625 251.234375 204.089844 251.230469 204.125 251.234375 L 204.191406 251.242188 C 204.238281 251.242188 204.285156 251.253906 204.332031 251.261719 C 204.96875 251.335938 205.605469 251.351562 206.242188 251.304688 C 206.410156 251.289062 206.578125 251.273438 206.738281 251.253906 L 206.777344 251.246094 L 206.871094 251.234375 L 207 251.210938 C 207.304688 251.152344 207.613281 251.078125 207.921875 250.988281 C 208.253906 250.890625 208.59375 250.777344 208.929688 250.644531 C 209.0625 250.59375 209.191406 250.539062 209.324219 250.480469 C 209.40625 250.445312 209.488281 250.410156 209.570312 250.371094 L 209.664062 250.328125 L 209.695312 250.3125 C 210.265625 250.023438 210.8125 249.703125 211.34375 249.347656 C 211.902344 248.976562 212.457031 248.566406 213.042969 248.09375 C 213.316406 247.871094 213.609375 247.621094 213.933594 247.339844 L 214.136719 247.152344 C 214.269531 247.035156 214.398438 246.914062 214.53125 246.789062 C 215.644531 245.746094 216.726562 244.613281 217.742188 243.542969 C 218.117188 243.117188 218.585938 242.898438 219.152344 242.890625 C 219.707031 242.898438 220.171875 243.109375 220.542969 243.523438 C 221.28125 244.300781 221.28125 245.777344 220.542969 246.554688 C 218.183594 249.046875 215.503906 251.871094 212.324219 253.683594 C 210.726562 254.589844 209.238281 255.15625 207.777344 255.414062 C 207.023438 255.550781 206.269531 255.617188 205.503906 255.621094 Z M 187.777344 230.363281 C 187.726562 230.363281 187.675781 230.371094 187.625 230.386719 C 187.171875 230.558594 186.921875 231.09375 187.039062 231.652344 C 188.804688 240.160156 191.550781 246.121094 195.441406 249.871094 C 197.816406 252.164062 200.457031 253.660156 203.070312 254.191406 C 204.5625 254.503906 206.0625 254.527344 207.566406 254.261719 C 208.894531 254.027344 210.257812 253.503906 211.738281 252.664062 C 214.765625 250.9375 217.382812 248.183594 219.6875 245.75 C 220 245.417969 220 244.664062 219.6875 244.339844 C 219.546875 244.167969 219.367188 244.078125 219.152344 244.066406 C 218.933594 244.074219 218.753906 244.164062 218.609375 244.328125 C 217.582031 245.414062 216.484375 246.566406 215.347656 247.625 C 215.214844 247.75 215.078125 247.875 214.945312 247.996094 L 214.8125 248.117188 L 214.761719 248.160156 L 214.722656 248.191406 C 214.386719 248.484375 214.085938 248.742188 213.796875 248.976562 C 213.183594 249.472656 212.597656 249.90625 212.007812 250.296875 C 211.398438 250.703125 210.769531 251.066406 210.113281 251.394531 L 210.070312 251.414062 C 209.980469 251.453125 209.894531 251.492188 209.804688 251.53125 C 209.660156 251.59375 209.515625 251.648438 209.371094 251.710938 C 209 251.855469 208.628906 251.980469 208.261719 252.085938 C 207.917969 252.1875 207.574219 252.269531 207.230469 252.335938 L 207.132812 252.355469 C 207.117188 252.359375 207.097656 252.363281 207.082031 252.363281 L 207.03125 252.375 L 207.019531 252.375 C 206.992188 252.378906 206.964844 252.382812 206.9375 252.382812 L 206.90625 252.382812 C 206.722656 252.40625 206.53125 252.425781 206.34375 252.4375 C 205.628906 252.492188 204.917969 252.476562 204.207031 252.390625 L 204.078125 252.375 C 204.003906 252.371094 203.933594 252.363281 203.863281 252.351562 C 203.765625 252.332031 203.671875 252.3125 203.585938 252.289062 L 203.46875 252.261719 C 203.125 252.1875 202.777344 252.101562 202.429688 251.996094 C 201.777344 251.808594 201.148438 251.566406 200.539062 251.265625 L 200.445312 251.214844 L 200.378906 251.183594 L 200.175781 251.074219 C 200.023438 250.992188 199.871094 250.90625 199.722656 250.824219 C 199.40625 250.640625 199.089844 250.441406 198.78125 250.234375 C 198.164062 249.816406 197.570312 249.363281 197.007812 248.871094 L 196.957031 248.828125 L 196.921875 248.796875 L 196.894531 248.769531 L 196.792969 248.679688 C 196.664062 248.554688 196.535156 248.433594 196.40625 248.304688 C 196.121094 248.023438 195.84375 247.730469 195.582031 247.433594 C 195.078125 246.867188 194.601562 246.273438 194.160156 245.65625 C 194.050781 245.5 193.9375 245.34375 193.828125 245.183594 L 193.785156 245.121094 C 193.726562 245.03125 193.667969 244.941406 193.609375 244.847656 C 193.390625 244.507812 193.175781 244.148438 192.96875 243.789062 C 192.578125 243.109375 192.203125 242.378906 191.847656 241.632812 C 191.46875 240.824219 191.105469 239.960938 190.765625 239.066406 L 190.554688 238.515625 L 190.5625 238.515625 C 190.496094 238.320312 190.429688 238.128906 190.363281 237.933594 C 190.226562 237.519531 190.089844 237.089844 189.953125 236.65625 C 189.441406 234.964844 188.980469 233.128906 188.542969 231.046875 C 188.484375 230.777344 188.335938 230.578125 188.09375 230.441406 C 187.996094 230.386719 187.890625 230.363281 187.777344 230.363281 Z M 187.777344 230.363281 " fill-opacity="1" fill-rule="nonzero"/><path fill="#070707" d="M 186.25 230.9375 C 185.90625 232.59375 185.519531 234.238281 185.046875 235.855469 C 184.8125 236.664062 184.558594 237.460938 184.285156 238.253906 C 184.226562 238.421875 184.164062 238.585938 184.105469 238.75 C 184.214844 238.453125 184.113281 238.730469 184.082031 238.804688 L 183.964844 239.113281 C 183.816406 239.5 183.660156 239.882812 183.496094 240.265625 C 182.867188 241.753906 182.121094 243.179688 181.261719 244.546875 L 181.121094 244.761719 C 181.097656 244.796875 180.859375 245.148438 181.054688 244.863281 C 180.957031 245.003906 180.863281 245.144531 180.765625 245.28125 C 180.527344 245.613281 180.28125 245.941406 180.027344 246.257812 C 179.566406 246.835938 179.070312 247.382812 178.542969 247.902344 C 178.433594 248.011719 178.320312 248.121094 178.207031 248.226562 C 178.136719 248.292969 178.066406 248.355469 177.996094 248.421875 C 177.828125 248.582031 178.253906 248.203125 177.972656 248.445312 C 177.6875 248.6875 177.414062 248.917969 177.125 249.136719 C 176.574219 249.5625 175.996094 249.953125 175.390625 250.304688 C 175.230469 250.398438 175.070312 250.488281 174.90625 250.578125 C 174.839844 250.613281 174.773438 250.644531 174.707031 250.679688 C 174.703125 250.679688 174.378906 250.847656 174.574219 250.75 C 174.773438 250.652344 174.445312 250.808594 174.4375 250.8125 L 174.238281 250.902344 C 174.070312 250.976562 173.902344 251.046875 173.734375 251.113281 C 173.09375 251.363281 172.441406 251.5625 171.769531 251.707031 C 171.613281 251.742188 171.453125 251.769531 171.296875 251.796875 C 171.082031 251.84375 171.640625 251.757812 171.296875 251.796875 L 171.085938 251.824219 C 170.734375 251.867188 170.382812 251.890625 170.027344 251.898438 C 169.707031 251.902344 169.386719 251.894531 169.066406 251.871094 C 168.921875 251.859375 168.78125 251.847656 168.636719 251.832031 C 168.550781 251.820312 168.460938 251.808594 168.371094 251.796875 L 168.46875 251.808594 L 168.300781 251.78125 C 167.605469 251.648438 166.925781 251.449219 166.261719 251.191406 C 166.105469 251.128906 165.949219 251.066406 165.792969 251 L 165.585938 250.910156 C 165.585938 250.910156 165.246094 250.75 165.445312 250.84375 C 165.640625 250.9375 165.308594 250.773438 165.304688 250.773438 L 165.101562 250.667969 C 164.933594 250.578125 164.769531 250.488281 164.605469 250.394531 C 163.902344 249.984375 163.230469 249.53125 162.585938 249.039062 C 162.238281 248.777344 161.902344 248.507812 161.570312 248.226562 C 161.414062 248.097656 161.265625 247.96875 161.113281 247.835938 L 160.933594 247.679688 C 161.167969 247.890625 160.90625 247.652344 160.851562 247.605469 C 159.578125 246.441406 158.371094 245.1875 157.171875 243.921875 C 156.644531 243.363281 155.753906 243.277344 155.238281 243.921875 C 154.757812 244.527344 154.675781 245.554688 155.238281 246.148438 C 157.472656 248.511719 159.78125 250.898438 162.441406 252.628906 C 165.066406 254.335938 168.0625 255.324219 171.085938 254.96875 C 174.054688 254.617188 176.886719 253.289062 179.273438 251.234375 C 181.792969 249.066406 183.792969 246.261719 185.300781 243.089844 C 186.980469 239.550781 188.078125 235.679688 188.890625 231.765625 C 189.054688 230.96875 188.671875 230.023438 187.933594 229.828125 C 187.75 229.785156 187.5625 229.777344 187.375 229.8125 C 187.1875 229.84375 187.015625 229.910156 186.855469 230.015625 C 186.695312 230.121094 186.5625 230.25 186.457031 230.410156 C 186.355469 230.570312 186.285156 230.742188 186.25 230.929688 Z M 186.25 230.9375 " fill-opacity="1" fill-rule="nonzero"/><path fill="#070707" d="M 169.859375 255.636719 C 167.3125 255.636719 164.664062 254.78125 162.121094 253.128906 C 159.300781 251.296875 156.8125 248.667969 154.8125 246.558594 C 154 245.703125 154.164062 244.335938 154.78125 243.5625 C 155.113281 243.136719 155.546875 242.914062 156.085938 242.890625 C 156.6875 242.871094 157.191406 243.082031 157.601562 243.523438 C 158.800781 244.792969 159.984375 246.023438 161.246094 247.171875 L 161.324219 247.238281 L 161.367188 247.28125 L 161.5 247.398438 C 161.648438 247.527344 161.796875 247.652344 161.945312 247.777344 C 162.28125 248.0625 162.617188 248.328125 162.9375 248.574219 C 163.566406 249.050781 164.21875 249.488281 164.898438 249.886719 C 165.058594 249.980469 165.21875 250.066406 165.378906 250.152344 L 165.570312 250.253906 L 165.699219 250.316406 L 165.738281 250.335938 L 165.792969 250.359375 L 165.828125 250.375 L 166.023438 250.464844 C 166.171875 250.527344 166.320312 250.589844 166.46875 250.644531 C 167.097656 250.890625 167.742188 251.078125 168.40625 251.203125 L 168.515625 251.222656 L 168.542969 251.222656 L 168.703125 251.242188 C 168.832031 251.257812 168.96875 251.269531 169.105469 251.28125 C 169.40625 251.304688 169.710938 251.3125 170.011719 251.304688 C 170.347656 251.300781 170.683594 251.277344 171.015625 251.238281 L 171.121094 251.222656 L 171.210938 251.210938 L 171.378906 251.179688 C 171.472656 251.164062 171.5625 251.148438 171.65625 251.128906 C 172.292969 250.988281 172.917969 250.800781 173.527344 250.558594 C 173.683594 250.496094 173.847656 250.429688 174.011719 250.359375 L 174.203125 250.273438 L 174.328125 250.210938 L 174.34375 250.210938 L 174.453125 250.15625 L 174.636719 250.058594 C 174.792969 249.976562 174.949219 249.886719 175.109375 249.796875 C 175.6875 249.457031 176.246094 249.082031 176.78125 248.671875 C 177.015625 248.484375 177.273438 248.28125 177.597656 248.003906 C 177.636719 247.964844 177.679688 247.925781 177.71875 247.886719 L 177.8125 247.800781 C 177.917969 247.699219 178.027344 247.59375 178.132812 247.488281 C 178.644531 246.984375 179.125 246.453125 179.574219 245.890625 C 179.8125 245.59375 180.054688 245.277344 180.289062 244.941406 C 180.363281 244.839844 180.4375 244.734375 180.507812 244.632812 L 180.523438 244.605469 L 180.539062 244.589844 C 180.550781 244.570312 180.5625 244.550781 180.574219 244.53125 L 180.636719 244.4375 L 180.769531 244.230469 C 181.613281 242.890625 182.339844 241.492188 182.953125 240.035156 C 183.113281 239.667969 183.265625 239.285156 183.414062 238.902344 C 183.453125 238.800781 183.492188 238.699219 183.53125 238.601562 L 183.574219 238.484375 L 183.585938 238.453125 C 183.632812 238.320312 183.679688 238.1875 183.726562 238.054688 C 183.988281 237.304688 184.242188 236.507812 184.480469 235.6875 C 184.910156 234.210938 185.304688 232.613281 185.675781 230.8125 C 185.785156 230.242188 186.085938 229.804688 186.578125 229.496094 C 187.046875 229.203125 187.546875 229.125 188.082031 229.261719 C 189.175781 229.546875 189.679688 230.847656 189.464844 231.882812 C 188.523438 236.4375 187.332031 240.1875 185.832031 243.34375 C 184.21875 246.738281 182.140625 249.542969 179.65625 251.679688 C 177.125 253.859375 174.183594 255.199219 171.15625 255.554688 C 170.726562 255.609375 170.292969 255.636719 169.859375 255.636719 Z M 156.164062 244.066406 L 156.132812 244.066406 C 155.953125 244.074219 155.808594 244.152344 155.699219 244.300781 C 155.394531 244.683594 155.316406 245.386719 155.664062 245.753906 C 157.621094 247.820312 160.058594 250.390625 162.761719 252.148438 C 165.507812 253.933594 168.363281 254.710938 171.019531 254.398438 C 173.816406 254.070312 176.535156 252.828125 178.890625 250.800781 C 181.242188 248.777344 183.226562 246.097656 184.773438 242.851562 C 186.230469 239.78125 187.390625 236.117188 188.316406 231.660156 C 188.433594 231.117188 188.171875 230.511719 187.785156 230.410156 C 187.578125 230.359375 187.382812 230.390625 187.199219 230.503906 C 186.992188 230.632812 186.867188 230.820312 186.824219 231.0625 C 186.445312 232.894531 186.046875 234.515625 185.609375 236.027344 C 185.367188 236.867188 185.105469 237.683594 184.835938 238.453125 C 184.777344 238.621094 184.71875 238.789062 184.65625 238.957031 L 184.632812 239.019531 C 184.59375 239.125 184.554688 239.230469 184.515625 239.332031 C 184.363281 239.726562 184.203125 240.121094 184.042969 240.5 C 183.40625 242.019531 182.648438 243.476562 181.769531 244.867188 L 181.628906 245.085938 C 181.621094 245.101562 181.589844 245.148438 181.558594 245.195312 L 181.550781 245.203125 C 181.453125 245.347656 181.355469 245.488281 181.253906 245.628906 C 181.003906 245.984375 180.75 246.316406 180.5 246.628906 C 180.023438 247.226562 179.511719 247.792969 178.972656 248.332031 C 178.851562 248.449219 178.742188 248.554688 178.625 248.664062 L 178.535156 248.75 C 178.511719 248.777344 178.484375 248.804688 178.453125 248.832031 C 178.421875 248.863281 178.386719 248.890625 178.351562 248.914062 C 178.019531 249.199219 177.753906 249.414062 177.5 249.613281 C 176.929688 250.054688 176.328125 250.457031 175.703125 250.820312 C 175.535156 250.917969 175.367188 251.015625 175.199219 251.105469 L 174.992188 251.210938 L 174.976562 251.222656 L 174.910156 251.253906 C 174.890625 251.265625 174.871094 251.277344 174.851562 251.285156 L 174.808594 251.304688 L 174.78125 251.316406 L 174.746094 251.332031 L 174.707031 251.351562 C 174.636719 251.382812 174.566406 251.417969 174.496094 251.445312 C 174.320312 251.523438 174.144531 251.597656 173.96875 251.664062 C 173.300781 251.929688 172.617188 252.136719 171.914062 252.289062 C 171.816406 252.308594 171.722656 252.328125 171.625 252.34375 C 171.574219 252.363281 171.527344 252.375 171.476562 252.382812 C 171.421875 252.390625 171.367188 252.398438 171.3125 252.398438 L 171.289062 252.398438 L 171.171875 252.414062 C 170.800781 252.457031 170.425781 252.484375 170.050781 252.492188 C 169.710938 252.496094 169.371094 252.492188 169.035156 252.460938 C 168.882812 252.453125 168.730469 252.4375 168.582031 252.417969 C 168.523438 252.414062 168.464844 252.40625 168.402344 252.394531 L 168.394531 252.394531 L 168.34375 252.386719 L 168.246094 252.375 L 168.203125 252.367188 C 167.46875 252.226562 166.753906 252.023438 166.058594 251.75 C 165.894531 251.6875 165.730469 251.621094 165.574219 251.550781 L 165.359375 251.453125 L 165.3125 251.433594 L 165.261719 251.410156 L 165.207031 251.386719 L 165.167969 251.367188 L 165.160156 251.367188 L 165.042969 251.308594 L 164.839844 251.203125 C 164.667969 251.113281 164.496094 251.015625 164.324219 250.914062 C 163.597656 250.496094 162.90625 250.03125 162.242188 249.523438 C 161.902344 249.265625 161.554688 248.984375 161.203125 248.691406 C 161.042969 248.558594 160.890625 248.429688 160.738281 248.292969 L 160.554688 248.132812 L 160.472656 248.058594 C 159.179688 246.882812 157.980469 245.632812 156.761719 244.347656 C 156.601562 244.167969 156.402344 244.074219 156.164062 244.066406 Z M 156.164062 244.066406 " fill-opacity="1" fill-rule="nonzero"/><path fill="#ffffff" d="M 173.390625 210.523438 L 201.976562 210.523438 C 208.96875 210.523438 213.238281 215.683594 209.542969 219.667969 L 201.503906 228.335938 C 193.902344 236.535156 181.464844 236.535156 173.859375 228.335938 L 165.820312 219.667969 C 162.125 215.683594 166.394531 210.523438 173.390625 210.523438 Z M 173.390625 210.523438 " fill-opacity="1" fill-rule="nonzero"/><path fill="#070707" d="M 247.175781 225.289062 C 246.871094 225.289062 246.609375 225.191406 246.382812 224.988281 C 246.160156 224.785156 246.03125 224.535156 246 224.234375 C 245.96875 223.933594 246.042969 223.664062 246.21875 223.417969 C 246.398438 223.175781 246.636719 223.023438 246.929688 222.960938 L 266.777344 218.742188 C 266.933594 218.707031 267.085938 218.703125 267.242188 218.726562 C 267.398438 218.753906 267.542969 218.808594 267.675781 218.894531 C 267.8125 218.980469 267.921875 219.085938 268.011719 219.21875 C 268.101562 219.347656 268.164062 219.488281 268.199219 219.644531 C 268.230469 219.796875 268.230469 219.953125 268.203125 220.109375 C 268.171875 220.265625 268.113281 220.40625 268.027344 220.539062 C 267.9375 220.671875 267.828125 220.78125 267.695312 220.867188 C 267.566406 220.957031 267.421875 221.015625 267.265625 221.042969 L 247.417969 225.265625 C 247.339844 225.28125 247.257812 225.289062 247.175781 225.289062 Z M 247.175781 225.289062 " fill-opacity="1" fill-rule="nonzero"/><path fill="#070707" d="M 267.023438 234.195312 C 266.972656 234.195312 266.917969 234.191406 266.867188 234.1875 L 247.019531 231.527344 C 246.867188 231.507812 246.722656 231.457031 246.589844 231.375 C 246.457031 231.296875 246.34375 231.195312 246.253906 231.074219 C 246.160156 230.949219 246.09375 230.8125 246.054688 230.664062 C 246.015625 230.511719 246.007812 230.363281 246.027344 230.210938 C 246.046875 230.054688 246.097656 229.914062 246.171875 229.777344 C 246.25 229.644531 246.351562 229.53125 246.472656 229.4375 C 246.59375 229.339844 246.730469 229.273438 246.878906 229.230469 C 247.027344 229.191406 247.179688 229.179688 247.332031 229.199219 L 267.175781 231.855469 C 267.484375 231.894531 267.734375 232.035156 267.929688 232.273438 C 268.125 232.515625 268.214844 232.789062 268.195312 233.097656 C 268.171875 233.40625 268.050781 233.664062 267.824219 233.878906 C 267.601562 234.089844 267.332031 234.195312 267.023438 234.195312 Z M 267.023438 234.195312 " fill-opacity="1" fill-rule="nonzero"/><path fill="#070707" d="M 264.988281 246.855469 C 264.792969 246.855469 264.605469 246.808594 264.433594 246.714844 L 245.523438 236.558594 C 245.386719 236.484375 245.265625 236.386719 245.164062 236.265625 C 245.066406 236.144531 244.992188 236.011719 244.945312 235.859375 C 244.898438 235.710938 244.882812 235.558594 244.898438 235.402344 C 244.914062 235.246094 244.960938 235.097656 245.035156 234.957031 C 245.109375 234.820312 245.207031 234.703125 245.328125 234.601562 C 245.449219 234.503906 245.585938 234.429688 245.738281 234.386719 C 245.886719 234.34375 246.039062 234.328125 246.195312 234.34375 C 246.351562 234.363281 246.5 234.410156 246.636719 234.484375 L 265.546875 244.640625 C 265.785156 244.769531 265.960938 244.957031 266.070312 245.203125 C 266.175781 245.449219 266.199219 245.703125 266.132812 245.964844 C 266.066406 246.226562 265.929688 246.441406 265.714844 246.609375 C 265.5 246.773438 265.257812 246.855469 264.988281 246.855469 Z M 264.988281 246.855469 " fill-opacity="1" fill-rule="nonzero"/><path fill="#070707" d="M 126.722656 222.867188 C 126.636719 222.867188 126.554688 222.859375 126.476562 222.839844 L 106.628906 218.621094 C 106.476562 218.585938 106.339844 218.527344 106.214844 218.4375 C 106.085938 218.347656 105.980469 218.238281 105.898438 218.109375 C 105.816406 217.976562 105.761719 217.835938 105.734375 217.683594 C 105.707031 217.53125 105.707031 217.382812 105.738281 217.230469 C 105.773438 217.078125 105.832031 216.941406 105.917969 216.8125 C 106.003906 216.683594 106.113281 216.578125 106.242188 216.492188 C 106.371094 216.410156 106.511719 216.351562 106.664062 216.320312 C 106.816406 216.292969 106.964844 216.289062 107.117188 216.320312 L 126.964844 220.539062 C 127.261719 220.601562 127.496094 220.753906 127.675781 220.996094 C 127.851562 221.238281 127.925781 221.511719 127.894531 221.8125 C 127.863281 222.113281 127.734375 222.363281 127.511719 222.566406 C 127.285156 222.765625 127.023438 222.867188 126.722656 222.867188 Z M 126.722656 222.867188 " fill-opacity="1" fill-rule="nonzero"/><path fill="#070707" d="M 106.871094 231.773438 C 106.5625 231.773438 106.292969 231.667969 106.070312 231.457031 C 105.84375 231.246094 105.71875 230.984375 105.699219 230.675781 C 105.679688 230.367188 105.765625 230.09375 105.964844 229.851562 C 106.160156 229.613281 106.410156 229.472656 106.714844 229.433594 L 126.566406 226.773438 C 126.722656 226.75 126.878906 226.757812 127.03125 226.792969 C 127.183594 226.832031 127.324219 226.898438 127.453125 226.996094 C 127.578125 227.089844 127.679688 227.203125 127.761719 227.339844 C 127.839844 227.476562 127.890625 227.625 127.914062 227.78125 C 127.933594 227.9375 127.921875 228.089844 127.882812 228.242188 C 127.839844 228.394531 127.769531 228.535156 127.675781 228.660156 C 127.578125 228.785156 127.460938 228.882812 127.320312 228.960938 C 127.183594 229.039062 127.035156 229.085938 126.878906 229.105469 L 107.035156 231.761719 C 106.980469 231.769531 106.925781 231.773438 106.871094 231.773438 Z M 106.871094 231.773438 " fill-opacity="1" fill-rule="nonzero"/><path fill="#070707" d="M 108.90625 244.433594 C 108.636719 244.433594 108.394531 244.347656 108.183594 244.183594 C 107.96875 244.019531 107.828125 243.804688 107.765625 243.542969 C 107.699219 243.28125 107.71875 243.027344 107.828125 242.78125 C 107.9375 242.535156 108.109375 242.347656 108.347656 242.21875 L 127.257812 232.066406 C 127.394531 231.992188 127.539062 231.949219 127.695312 231.933594 C 127.851562 231.917969 128.003906 231.929688 128.152344 231.976562 C 128.300781 232.023438 128.4375 232.09375 128.558594 232.191406 C 128.679688 232.289062 128.777344 232.410156 128.851562 232.546875 C 128.921875 232.683594 128.96875 232.828125 128.984375 232.984375 C 129 233.140625 128.984375 233.292969 128.941406 233.441406 C 128.894531 233.589844 128.824219 233.726562 128.722656 233.847656 C 128.625 233.96875 128.507812 234.066406 128.371094 234.140625 L 109.460938 244.296875 C 109.289062 244.390625 109.101562 244.433594 108.90625 244.433594 Z M 108.90625 244.433594 " fill-opacity="1" fill-rule="nonzero"/><path fill="#ffffff" d="M 268.609375 95.363281 L 241.460938 124.214844 C 241.289062 124.398438 241.136719 124.59375 241.003906 124.808594 C 240.875 125.023438 240.765625 125.25 240.679688 125.484375 C 240.597656 125.722656 240.539062 125.964844 240.503906 126.214844 C 240.46875 126.464844 240.460938 126.714844 240.480469 126.964844 C 240.5 127.214844 240.542969 127.460938 240.613281 127.703125 C 240.683594 127.945312 240.777344 128.175781 240.894531 128.398438 C 241.015625 128.617188 241.152344 128.824219 241.316406 129.019531 C 241.476562 129.210938 241.65625 129.386719 241.855469 129.539062 L 269 151.179688 C 271.472656 153.144531 275.175781 151.4375 275.175781 148.335938 L 275.175781 97.839844 C 275.175781 94.488281 270.9375 92.886719 268.609375 95.363281 Z M 268.609375 95.363281 " fill-opacity="1" fill-rule="nonzero"/><path fill="#ffffff" d="M 102.324219 95.363281 L 129.46875 124.214844 C 129.644531 124.398438 129.796875 124.59375 129.925781 124.808594 C 130.058594 125.023438 130.167969 125.25 130.25 125.484375 C 130.335938 125.722656 130.394531 125.964844 130.429688 126.214844 C 130.460938 126.464844 130.46875 126.714844 130.453125 126.964844 C 130.433594 127.214844 130.390625 127.460938 130.320312 127.703125 C 130.25 127.945312 130.15625 128.175781 130.039062 128.398438 C 129.917969 128.617188 129.777344 128.824219 129.617188 129.019531 C 129.457031 129.210938 129.277344 129.386719 129.078125 129.539062 L 101.933594 151.179688 C 99.460938 153.144531 95.753906 151.4375 95.753906 148.335938 L 95.753906 97.839844 C 95.753906 94.488281 99.996094 92.886719 102.324219 95.363281 Z M 102.324219 95.363281 " fill-opacity="1" fill-rule="nonzero"/><g mask="url(#bec53e61b8)"><g transform="matrix(1, 0, 0, 1, 154, 110)"><g clip-path="url(#240da8d7f1)"><g clip-path="url(#f387a0db37)"><path fill="#ffffff" d="M 0.964844 3.9375 C 0.964844 3.9375 4.804688 8.101562 9.992188 26.605469 C 10.648438 28.949219 13.140625 30.308594 15.433594 29.5 C 19.558594 28.046875 24.628906 22.117188 22.308594 0.808594 C 22.308594 0.808594 9.335938 0.605469 0.964844 3.9375 Z M 0.964844 3.9375 " fill-opacity="1" fill-rule="nonzero"/></g></g></g></g><g mask="url(#65453d9f81)"><g transform="matrix(1, 0, 0, 1, 193, 109)"><g clip-path="url(#cc353c82eb)"><g clip-path="url(#5df43b52fe)"><path fill="#ffffff" d="M 22.566406 4.242188 C 22.566406 4.242188 18.742188 8.421875 13.617188 26.949219 C 12.96875 29.289062 10.484375 30.660156 8.1875 29.859375 C 4.054688 28.421875 -1.03125 22.507812 1.214844 1.191406 C 1.210938 1.191406 14.1875 0.9375 22.566406 4.242188 Z M 22.566406 4.242188 " fill-opacity="1" fill-rule="nonzero"/></g></g></g></g><path fill="#ffffff" d="M 126.882812 195.09375 C 131.1875 191.671875 147.039062 180.800781 163.1875 191.402344 C 163.265625 191.453125 163.34375 191.453125 163.421875 191.40625 C 163.5 191.355469 163.535156 191.285156 163.523438 191.195312 C 163.273438 189.097656 161.421875 180.390625 147.785156 178.3125 C 141.894531 177.417969 135.878906 179.210938 131.582031 183.339844 C 128.988281 185.835938 126.722656 189.417969 125.933594 194.539062 C 125.890625 194.804688 125.984375 195.003906 126.21875 195.140625 C 126.453125 195.277344 126.671875 195.261719 126.882812 195.09375 Z M 126.882812 195.09375 " fill-opacity="1" fill-rule="nonzero"/><path fill="#ffffff" d="M 245.121094 194.976562 C 240.8125 191.558594 224.964844 180.6875 208.816406 191.289062 C 208.738281 191.339844 208.660156 191.339844 208.582031 191.292969 C 208.503906 191.242188 208.46875 191.171875 208.480469 191.082031 C 208.726562 188.984375 210.578125 180.277344 224.21875 178.199219 C 230.109375 177.300781 236.125 179.097656 240.421875 183.226562 C 243.015625 185.71875 245.28125 189.300781 246.066406 194.421875 C 246.113281 194.6875 246.015625 194.890625 245.785156 195.027344 C 245.550781 195.160156 245.332031 195.144531 245.121094 194.976562 Z M 245.121094 194.976562 " fill-opacity="1" fill-rule="nonzero"/></svg>