<svg xmlns="http://www.w3.org/2000/svg" xmlns:xlink="http://www.w3.org/1999/xlink" width="500" zoomAndPan="magnify" viewBox="0 0 375 374.999991" height="500" preserveAspectRatio="xMidYMid meet" version="1.0"><defs><clipPath id="7576c46216"><path d="M 46.8125 53.316406 L 315.3125 53.316406 L 315.3125 321.816406 L 46.8125 321.816406 Z M 46.8125 53.316406 " clip-rule="nonzero"/></clipPath></defs><g clip-path="url(#7576c46216)"><path fill="#f25454" d="M 181.0625 53.316406 C 106.917969 53.316406 46.8125 113.421875 46.8125 187.566406 C 46.8125 261.714844 106.917969 321.816406 181.0625 321.816406 C 255.207031 321.816406 315.3125 261.714844 315.3125 187.566406 C 315.3125 113.421875 255.207031 53.316406 181.0625 53.316406 " fill-opacity="1" fill-rule="nonzero"/></g><path fill="#f35f5c" d="M 181.0625 55.101562 C 112.160156 55.101562 56.308594 110.175781 56.308594 178.109375 C 56.308594 246.042969 112.160156 301.113281 181.0625 301.113281 C 249.964844 301.113281 305.820312 246.042969 305.820312 178.109375 C 305.820312 110.175781 249.964844 55.101562 181.0625 55.101562 " fill-opacity="1" fill-rule="nonzero"/><path fill="#f46a63" d="M 281.039062 137.640625 C 282.613281 139.425781 284.164062 141.496094 285.59375 143.769531 C 287.160156 146.261719 288.585938 149.003906 289.753906 151.886719 C 293.035156 157.167969 295.597656 163.449219 296.320312 169.828125 C 296.320312 169.433594 296.324219 169.039062 296.324219 168.648438 C 296.324219 106.925781 244.722656 56.890625 181.0625 56.890625 C 130.753906 56.890625 87.972656 88.140625 72.242188 131.714844 C 74.695312 130.121094 77.699219 128.351562 81 126.535156 C 83.683594 125.058594 86.5625 123.550781 89.496094 122.078125 C 92.269531 120.6875 95.089844 119.332031 97.847656 118.066406 C 100.71875 116.746094 103.515625 115.527344 106.105469 114.46875 C 109.230469 113.199219 112.050781 112.167969 114.332031 111.492188 C 116.140625 110.957031 117.613281 110.648438 118.628906 110.617188 C 124.335938 110.453125 120.445312 117.355469 113.359375 124.242188 C 110.539062 126.980469 107.214844 129.71875 103.789062 132.007812 C 101.960938 133.230469 100.105469 134.324219 98.28125 135.21875 C 97.046875 135.828125 95.730469 136.394531 94.359375 136.914062 C 91.515625 137.996094 88.445312 138.882812 85.40625 139.550781 C 82.519531 140.1875 79.660156 140.628906 77.046875 140.859375 C 74.078125 141.121094 71.421875 141.105469 69.410156 140.792969 C 67.054688 149.699219 65.800781 159.03125 65.800781 168.648438 C 65.800781 179.234375 67.320312 189.476562 70.15625 199.179688 C 73.210938 197.210938 77.53125 195.863281 82.417969 195.527344 C 83.210938 195.46875 84.019531 195.441406 84.835938 195.441406 C 95.527344 195.441406 104.195312 200.25 104.195312 206.175781 C 104.195312 210.351562 99.894531 213.96875 93.617188 215.742188 C 90.980469 216.488281 88 216.910156 84.835938 216.910156 C 81.882812 216.910156 79.078125 216.542969 76.574219 215.886719 C 94.929688 253.996094 134.816406 280.402344 181.0625 280.402344 C 240.4375 280.402344 289.328125 236.875 295.636719 180.929688 C 292.273438 197.371094 282.503906 204.824219 275.238281 204.988281 C 273.265625 205.027344 271.476562 204.535156 270.054688 203.539062 C 266.984375 201.605469 265.023438 198.8125 263.859375 195.300781 C 263.703125 194.820312 263.558594 194.332031 263.429688 193.828125 C 260.039062 188.945312 259.40625 181.664062 259.972656 172.777344 C 260.085938 171.015625 260.246094 169.195312 260.441406 167.3125 C 262.890625 157.476562 266.386719 139.296875 267.230469 130.949219 C 267.464844 128.648438 267.496094 127.09375 267.25 126.664062 C 267.1875 126.625 267.164062 126.597656 267.179688 126.582031 C 267.207031 126.601562 267.230469 126.628906 267.25 126.664062 C 267.789062 127.042969 271.261719 128.601562 275.460938 132.085938 C 277.242188 133.570312 279.164062 135.402344 281.039062 137.640625 " fill-opacity="1" fill-rule="nonzero"/><path fill="#f5756b" d="M 181.0625 58.675781 C 134.675781 58.675781 95.261719 87.050781 81 126.535156 C 83.683594 125.058594 86.5625 123.550781 89.496094 122.078125 C 92.269531 120.6875 95.089844 119.332031 97.847656 118.066406 C 100.71875 116.746094 103.515625 115.527344 106.105469 114.46875 C 109.230469 113.199219 112.050781 112.167969 114.332031 111.492188 C 116.140625 110.957031 117.613281 110.648438 118.628906 110.617188 C 124.335938 110.453125 120.445312 117.355469 113.359375 124.242188 C 110.539062 126.980469 107.214844 129.71875 103.789062 132.007812 C 101.960938 133.230469 100.105469 134.324219 98.28125 135.21875 C 97.046875 135.828125 95.730469 136.394531 94.359375 136.914062 C 91.515625 137.996094 88.445312 138.882812 85.40625 139.550781 C 82.519531 140.1875 79.660156 140.628906 77.046875 140.859375 C 75.898438 146.800781 75.292969 152.925781 75.292969 159.183594 C 75.292969 172 77.816406 184.253906 82.417969 195.527344 C 83.210938 195.46875 84.019531 195.441406 84.835938 195.441406 C 95.527344 195.441406 104.195312 200.25 104.195312 206.175781 C 104.195312 210.351562 99.894531 213.96875 93.617188 215.742188 C 100.882812 225.867188 110.042969 234.667969 120.617188 241.675781 C 117.179688 236.84375 114.988281 230.976562 114.554688 224.597656 C 118.019531 228.390625 129.089844 230.496094 141 230.914062 C 155.875 231.441406 172.066406 229.335938 176.394531 224.597656 C 176.046875 229.683594 174.585938 234.449219 172.261719 238.621094 C 167.273438 247.578125 158.316406 253.8125 147.914062 254.660156 C 158.339844 257.925781 169.484375 259.695312 181.0625 259.695312 C 222.117188 259.695312 257.707031 237.46875 275.238281 204.988281 C 273.265625 205.027344 271.476562 204.535156 270.054688 203.539062 C 266.984375 201.605469 265.023438 198.8125 263.859375 195.300781 C 263.703125 194.820312 263.558594 194.332031 263.429688 193.828125 C 260.039062 188.945312 259.40625 181.664062 259.972656 172.777344 C 260.085938 171.015625 260.246094 169.195312 260.441406 167.3125 C 262.890625 157.476562 266.386719 139.296875 267.230469 130.949219 C 267.464844 128.648438 267.496094 127.09375 267.25 126.664062 C 267.1875 126.625 267.164062 126.597656 267.179688 126.582031 C 267.207031 126.601562 267.230469 126.628906 267.25 126.664062 C 267.789062 127.042969 271.261719 128.601562 275.460938 132.085938 C 277.242188 133.570312 279.164062 135.402344 281.039062 137.640625 C 282.613281 139.425781 284.164062 141.496094 285.59375 143.769531 C 277.789062 95.578125 233.960938 58.675781 181.0625 58.675781 " fill-opacity="1" fill-rule="nonzero"/><path fill="#f68174" d="M 267.179688 126.582031 C 267.207031 126.601562 267.230469 126.628906 267.25 126.664062 C 267.789062 127.042969 271.261719 128.601562 275.460938 132.085938 C 266.628906 91.234375 227.722656 60.460938 181.0625 60.460938 C 138.300781 60.460938 102.046875 86.3125 89.496094 122.078125 C 92.269531 120.6875 95.089844 119.332031 97.847656 118.066406 C 100.71875 116.746094 103.515625 115.527344 106.105469 114.46875 C 109.230469 113.199219 112.050781 112.167969 114.332031 111.492188 C 116.140625 110.957031 117.613281 110.648438 118.628906 110.617188 C 124.335938 110.453125 120.445312 117.355469 113.359375 124.242188 C 110.539062 126.980469 107.214844 129.71875 103.789062 132.007812 C 101.960938 133.230469 100.105469 134.324219 98.28125 135.21875 C 97.046875 135.828125 95.730469 136.394531 94.359375 136.914062 C 91.515625 137.996094 88.445312 138.882812 85.40625 139.550781 C 85 142.890625 84.789062 146.285156 84.789062 149.726562 C 84.789062 154.238281 85.148438 158.675781 85.847656 163.007812 C 87.164062 155.527344 90.457031 149.625 94.628906 147.292969 C 95.886719 146.589844 97.226562 146.207031 98.613281 146.207031 C 106.007812 146.207031 112 156.980469 112 170.269531 C 112 175.53125 111.058594 180.398438 109.464844 184.363281 C 107.03125 190.402344 103.078125 194.332031 98.613281 194.332031 C 98.277344 194.332031 97.941406 194.308594 97.609375 194.265625 C 107.578125 210.285156 122.757812 223.164062 141 230.914062 C 155.875 231.441406 172.066406 229.335938 176.394531 224.597656 C 176.046875 229.683594 174.585938 234.449219 172.261719 238.621094 C 175.160156 238.863281 178.09375 238.988281 181.0625 238.988281 C 216.277344 238.988281 247.074219 221.460938 263.859375 195.300781 C 263.703125 194.820312 263.558594 194.332031 263.429688 193.828125 C 260.039062 188.945312 259.40625 181.664062 259.972656 172.777344 C 260.085938 171.015625 260.246094 169.195312 260.441406 167.3125 C 262.890625 157.476562 266.386719 139.296875 267.230469 130.949219 C 267.464844 128.648438 267.496094 127.09375 267.25 126.664062 C 267.1875 126.625 267.164062 126.597656 267.179688 126.582031 " fill-opacity="1" fill-rule="nonzero"/><path fill="#f68c7d" d="M 181.0625 62.246094 C 141.714844 62.246094 108.484375 85.789062 97.847656 118.066406 C 100.71875 116.746094 103.515625 115.527344 106.105469 114.46875 C 109.230469 113.199219 112.050781 112.167969 114.332031 111.492188 C 116.140625 110.957031 117.613281 110.648438 118.628906 110.617188 C 124.335938 110.453125 120.445312 117.355469 113.359375 124.242188 C 110.539062 126.980469 107.214844 129.71875 103.789062 132.007812 C 101.960938 133.230469 100.105469 134.324219 98.28125 135.21875 C 97.046875 135.828125 95.730469 136.394531 94.359375 136.914062 C 94.308594 138.023438 94.28125 139.140625 94.28125 140.265625 C 94.28125 142.632812 94.398438 144.976562 94.628906 147.292969 C 95.886719 146.589844 97.226562 146.207031 98.613281 146.207031 C 106.007812 146.207031 112 156.980469 112 170.269531 C 112 175.53125 111.058594 180.398438 109.464844 184.363281 C 125.105469 204.847656 151.339844 218.28125 181.0625 218.28125 C 188.167969 218.28125 195.074219 217.511719 201.683594 216.066406 C 192.574219 214.4375 186.179688 210.621094 186.179688 206.175781 C 186.179688 200.25 197.542969 195.441406 211.5625 195.441406 C 221.773438 195.441406 230.578125 197.992188 234.605469 201.664062 C 245.421875 194.03125 254.171875 184.140625 259.972656 172.777344 C 260.085938 171.015625 260.246094 169.195312 260.441406 167.3125 C 262.890625 157.476562 266.386719 139.296875 267.230469 130.949219 C 262.109375 92.253906 225.484375 62.246094 181.0625 62.246094 " fill-opacity="1" fill-rule="nonzero"/><path fill="#f79887" d="M 181.0625 64.03125 C 144.898438 64.03125 114.539062 85.488281 106.105469 114.46875 C 109.230469 113.199219 112.050781 112.167969 114.332031 111.492188 C 116.140625 110.957031 117.613281 110.648438 118.628906 110.617188 C 124.335938 110.453125 120.445312 117.355469 113.359375 124.242188 C 110.539062 126.980469 107.214844 129.71875 103.789062 132.007812 C 104.53125 168.332031 138.84375 197.574219 181.0625 197.574219 C 223.746094 197.574219 258.351562 167.679688 258.351562 130.804688 C 258.351562 93.925781 223.746094 64.03125 181.0625 64.03125 " fill-opacity="1" fill-rule="nonzero"/><path fill="#f8a492" d="M 181.0625 65.816406 C 147.726562 65.816406 120.007812 85.523438 114.332031 111.492188 C 116.140625 110.957031 117.613281 110.648438 118.628906 110.617188 C 124.335938 110.453125 120.445312 117.355469 113.359375 124.242188 C 115.164062 152.96875 143.625 175.925781 178.878906 176.835938 C 178.550781 174.75 178.375 172.546875 178.375 170.269531 C 178.375 165 179.316406 160.125 180.917969 156.15625 C 183.351562 150.128906 187.300781 146.207031 191.761719 146.207031 C 195.503906 146.207031 198.882812 148.96875 201.3125 153.414062 C 203.683594 157.753906 205.148438 163.707031 205.148438 170.269531 C 205.148438 171.292969 205.113281 172.300781 205.042969 173.292969 C 230.648438 165.359375 248.855469 145.09375 248.855469 121.34375 C 248.855469 90.675781 218.503906 65.816406 181.0625 65.816406 " fill-opacity="1" fill-rule="nonzero"/><path fill="#f9b09d" d="M 181.0625 67.605469 C 148.863281 67.605469 122.761719 87.425781 122.761719 111.882812 C 122.761719 136.296875 148.785156 156.097656 180.917969 156.15625 C 183.351562 150.128906 187.300781 146.207031 191.761719 146.207031 C 195.503906 146.207031 198.882812 148.96875 201.3125 153.414062 C 223.53125 147.164062 239.363281 130.925781 239.363281 111.882812 C 239.363281 87.425781 213.261719 67.605469 181.0625 67.605469 " fill-opacity="1" fill-rule="nonzero"/><path fill="#fabca8" d="M 181.0625 69.390625 C 154.109375 69.390625 132.257812 84.179688 132.257812 102.421875 C 132.257812 120.664062 154.109375 135.453125 181.0625 135.453125 C 183.714844 135.453125 186.316406 135.308594 188.855469 135.03125 C 178.410156 129.753906 167.03125 118.230469 166.1875 113.128906 C 165.921875 111.523438 166.703125 110.554688 168.882812 110.617188 C 171.269531 110.6875 176.167969 112.308594 182.058594 114.738281 C 191.003906 118.425781 202.25 123.976562 210.476562 128.78125 C 222.257812 122.75 229.867188 113.1875 229.867188 102.421875 C 229.867188 84.179688 208.019531 69.390625 181.0625 69.390625 " fill-opacity="1" fill-rule="nonzero"/><path fill="#fbc8b4" d="M 168.882812 110.617188 C 171.269531 110.6875 176.167969 112.308594 182.058594 114.738281 C 203.308594 114.445312 220.375 104.808594 220.375 92.960938 C 220.375 80.929688 202.773438 71.175781 181.0625 71.175781 C 159.351562 71.175781 141.75 80.929688 141.75 92.960938 C 141.75 102.074219 151.851562 109.878906 166.1875 113.128906 C 165.921875 111.523438 166.703125 110.554688 168.882812 110.617188 " fill-opacity="1" fill-rule="nonzero"/><path fill="#c51b50" d="M 186.179688 206.175781 C 186.179688 210.621094 192.574219 214.4375 201.683594 216.066406 C 204.722656 216.609375 208.058594 216.910156 211.5625 216.910156 C 225.582031 216.910156 236.949219 212.101562 236.949219 206.175781 C 236.949219 204.5625 236.109375 203.039062 234.605469 201.664062 C 230.578125 197.992188 221.773438 195.441406 211.5625 195.441406 C 197.542969 195.441406 186.179688 200.25 186.179688 206.175781 " fill-opacity="1" fill-rule="nonzero"/><path fill="#c51b50" d="M 93.617188 215.742188 C 99.894531 213.96875 104.195312 210.351562 104.195312 206.175781 C 104.195312 200.25 95.527344 195.441406 84.835938 195.441406 C 84.019531 195.441406 83.210938 195.46875 82.417969 195.527344 C 77.53125 195.863281 73.210938 197.210938 70.15625 199.179688 C 67.242188 201.058594 65.480469 203.503906 65.480469 206.175781 C 65.480469 210.464844 70.015625 214.164062 76.574219 215.886719 C 79.078125 216.542969 81.882812 216.910156 84.835938 216.910156 C 88 216.910156 90.980469 216.488281 93.617188 215.742188 " fill-opacity="1" fill-rule="nonzero"/><path fill="#120803" d="M 98.613281 146.207031 C 97.226562 146.207031 95.886719 146.589844 94.628906 147.292969 C 90.457031 149.625 87.164062 155.527344 85.847656 163.007812 C 85.445312 165.296875 85.226562 167.738281 85.226562 170.269531 C 85.226562 182.949219 90.683594 193.339844 97.609375 194.265625 C 97.941406 194.308594 98.277344 194.332031 98.613281 194.332031 C 103.078125 194.332031 107.03125 190.402344 109.464844 184.363281 C 111.058594 180.398438 112 175.53125 112 170.269531 C 112 156.980469 106.007812 146.207031 98.613281 146.207031 " fill-opacity="1" fill-rule="nonzero"/><path fill="#120803" d="M 201.3125 153.414062 C 198.882812 148.96875 195.503906 146.207031 191.761719 146.207031 C 187.300781 146.207031 183.351562 150.128906 180.917969 156.15625 C 179.316406 160.125 178.375 165 178.375 170.269531 C 178.375 172.546875 178.550781 174.75 178.878906 176.835938 C 180.46875 186.933594 185.632812 194.332031 191.761719 194.332031 C 198.582031 194.332031 204.214844 185.152344 205.042969 173.292969 C 205.113281 172.300781 205.148438 171.292969 205.148438 170.269531 C 205.148438 163.707031 203.683594 157.753906 201.3125 153.414062 " fill-opacity="1" fill-rule="nonzero"/><path fill="#120803" d="M 77.046875 140.859375 C 79.660156 140.628906 82.519531 140.1875 85.40625 139.550781 C 88.445312 138.882812 91.515625 137.996094 94.359375 136.914062 C 95.730469 136.394531 97.046875 135.828125 98.28125 135.21875 C 100.105469 134.324219 101.960938 133.230469 103.789062 132.007812 C 107.214844 129.71875 110.539062 126.980469 113.359375 124.242188 C 120.445312 117.355469 124.335938 110.453125 118.628906 110.617188 C 117.613281 110.648438 116.140625 110.957031 114.332031 111.492188 C 112.050781 112.167969 109.230469 113.199219 106.105469 114.46875 C 103.515625 115.527344 100.71875 116.746094 97.847656 118.066406 C 95.089844 119.332031 92.269531 120.6875 89.496094 122.078125 C 86.5625 123.550781 83.683594 125.058594 81 126.535156 C 77.699219 128.351562 74.695312 130.121094 72.242188 131.714844 C 69.425781 133.550781 67.339844 135.152344 66.375 136.332031 C 64.351562 138.808594 65.921875 140.25 69.410156 140.792969 C 71.421875 141.105469 74.078125 141.121094 77.046875 140.859375 " fill-opacity="1" fill-rule="nonzero"/><path fill="#120803" d="M 168.882812 110.617188 C 166.703125 110.554688 165.921875 111.523438 166.1875 113.128906 C 167.03125 118.230469 178.410156 129.753906 188.855469 135.03125 C 188.980469 135.097656 189.101562 135.160156 189.230469 135.21875 C 203.058594 142.027344 226.957031 143.453125 221.136719 136.332031 C 219.683594 134.554688 215.683594 131.816406 210.476562 128.78125 C 202.25 123.976562 191.003906 118.425781 182.058594 114.738281 C 176.167969 112.308594 171.269531 110.6875 168.882812 110.617188 " fill-opacity="1" fill-rule="nonzero"/><path fill="#120803" d="M 172.261719 238.621094 C 174.585938 234.449219 176.046875 229.683594 176.394531 224.597656 C 172.066406 229.335938 155.875 231.441406 141 230.914062 C 129.089844 230.496094 118.019531 228.390625 114.554688 224.597656 C 114.988281 230.976562 117.179688 236.84375 120.617188 241.675781 C 126.269531 249.617188 135.296875 254.761719 145.476562 254.761719 C 146.296875 254.761719 147.109375 254.726562 147.914062 254.660156 C 158.316406 253.8125 167.273438 247.578125 172.261719 238.621094 " fill-opacity="1" fill-rule="nonzero"/><path fill="#5a88ce" d="M 296.320312 169.828125 C 295.597656 163.449219 293.035156 157.167969 289.753906 151.886719 C 288.585938 149.003906 287.160156 146.261719 285.59375 143.769531 C 284.164062 141.496094 282.613281 139.425781 281.039062 137.640625 C 279.164062 135.402344 277.242188 133.570312 275.460938 132.085938 C 271.261719 128.601562 267.789062 127.042969 267.25 126.664062 C 267.496094 127.09375 267.464844 128.648438 267.230469 130.949219 C 266.386719 139.296875 262.890625 157.476562 260.441406 167.3125 C 260.246094 169.195312 260.085938 171.015625 259.972656 172.777344 C 259.40625 181.664062 260.039062 188.945312 263.429688 193.828125 C 263.558594 194.332031 263.703125 194.820312 263.859375 195.300781 C 265.023438 198.8125 266.984375 201.605469 270.054688 203.539062 C 271.476562 204.535156 273.265625 205.027344 275.238281 204.988281 C 282.503906 204.824219 292.273438 197.371094 295.636719 180.929688 C 295.894531 179.679688 296.109375 178.378906 296.289062 177.023438 C 296.601562 174.644531 296.589844 172.230469 296.320312 169.828125 " fill-opacity="1" fill-rule="nonzero"/><path fill="#c54446" d="M 296.320312 169.828125 C 295.597656 163.449219 293.035156 157.167969 289.753906 151.886719 C 292.125 157.765625 293.421875 164.253906 292.640625 170.507812 C 289.585938 194.945312 274.039062 202.535156 267.179688 197.492188 C 265.667969 196.492188 264.429688 195.265625 263.429688 193.828125 C 263.558594 194.332031 263.703125 194.820312 263.859375 195.300781 C 265.023438 198.8125 266.984375 201.605469 270.054688 203.539062 C 271.476562 204.535156 273.265625 205.027344 275.238281 204.988281 C 282.503906 204.824219 292.273438 197.371094 295.636719 180.929688 C 295.894531 179.679688 296.109375 178.378906 296.289062 177.023438 C 296.601562 174.644531 296.589844 172.230469 296.320312 169.828125 " fill-opacity="1" fill-rule="nonzero"/><path fill="#cb2258" d="M 234.972656 205.652344 C 234.972656 211.023438 224.492188 215.375 211.5625 215.375 C 198.636719 215.375 188.15625 211.023438 188.15625 205.652344 C 188.15625 200.28125 198.636719 195.929688 211.5625 195.929688 C 224.492188 195.929688 234.972656 200.28125 234.972656 205.652344 " fill-opacity="1" fill-rule="nonzero"/><path fill="#d12a60" d="M 232.996094 205.128906 C 232.996094 209.941406 223.398438 213.84375 211.5625 213.84375 C 199.726562 213.84375 190.132812 209.941406 190.132812 205.128906 C 190.132812 200.316406 199.726562 196.414062 211.5625 196.414062 C 223.398438 196.414062 232.996094 200.316406 232.996094 205.128906 " fill-opacity="1" fill-rule="nonzero"/><path fill="#d73269" d="M 231.019531 204.605469 C 231.019531 208.859375 222.308594 212.308594 211.5625 212.308594 C 200.820312 212.308594 192.109375 208.859375 192.109375 204.605469 C 192.109375 200.351562 200.820312 196.902344 211.5625 196.902344 C 222.308594 196.902344 231.019531 200.351562 231.019531 204.605469 " fill-opacity="1" fill-rule="nonzero"/><path fill="#de3b72" d="M 229.042969 204.082031 C 229.042969 207.777344 221.21875 210.773438 211.5625 210.773438 C 201.910156 210.773438 194.085938 207.777344 194.085938 204.082031 C 194.085938 200.386719 201.910156 197.386719 211.5625 197.386719 C 221.21875 197.386719 229.042969 200.386719 229.042969 204.082031 " fill-opacity="1" fill-rule="nonzero"/><path fill="#e4437d" d="M 227.066406 203.558594 C 227.066406 206.695312 220.125 209.242188 211.5625 209.242188 C 203 209.242188 196.0625 206.695312 196.0625 203.558594 C 196.0625 200.421875 203 197.875 211.5625 197.875 C 220.125 197.875 227.066406 200.421875 227.066406 203.558594 " fill-opacity="1" fill-rule="nonzero"/><path fill="#eb4d88" d="M 225.089844 203.035156 C 225.089844 205.617188 219.035156 207.707031 211.5625 207.707031 C 204.09375 207.707031 198.035156 205.617188 198.035156 203.035156 C 198.035156 200.453125 204.09375 198.363281 211.5625 198.363281 C 219.035156 198.363281 225.089844 200.453125 225.089844 203.035156 " fill-opacity="1" fill-rule="nonzero"/><path fill="#f25795" d="M 223.113281 202.511719 C 223.113281 204.535156 217.941406 206.175781 211.5625 206.175781 C 205.183594 206.175781 200.011719 204.535156 200.011719 202.511719 C 200.011719 200.488281 205.183594 198.847656 211.5625 198.847656 C 217.941406 198.847656 223.113281 200.488281 223.113281 202.511719 " fill-opacity="1" fill-rule="nonzero"/><path fill="#cb2258" d="M 102.6875 205.652344 C 102.6875 211.023438 94.695312 215.375 84.835938 215.375 C 74.980469 215.375 66.984375 211.023438 66.984375 205.652344 C 66.984375 200.28125 74.980469 195.929688 84.835938 195.929688 C 94.695312 195.929688 102.6875 200.28125 102.6875 205.652344 " fill-opacity="1" fill-rule="nonzero"/><path fill="#d12a60" d="M 101.179688 205.128906 C 101.179688 209.941406 93.863281 213.84375 84.835938 213.84375 C 75.808594 213.84375 68.492188 209.941406 68.492188 205.128906 C 68.492188 200.316406 75.808594 196.414062 84.835938 196.414062 C 93.863281 196.414062 101.179688 200.316406 101.179688 205.128906 " fill-opacity="1" fill-rule="nonzero"/><path fill="#d73269" d="M 99.671875 204.605469 C 99.671875 208.859375 93.03125 212.308594 84.835938 212.308594 C 76.644531 212.308594 70 208.859375 70 204.605469 C 70 200.351562 76.644531 196.902344 84.835938 196.902344 C 93.03125 196.902344 99.671875 200.351562 99.671875 204.605469 " fill-opacity="1" fill-rule="nonzero"/><path fill="#de3b72" d="M 98.167969 204.082031 C 98.167969 207.777344 92.199219 210.773438 84.835938 210.773438 C 77.476562 210.773438 71.507812 207.777344 71.507812 204.082031 C 71.507812 200.386719 77.476562 197.386719 84.835938 197.386719 C 92.199219 197.386719 98.167969 200.386719 98.167969 204.082031 " fill-opacity="1" fill-rule="nonzero"/><path fill="#e4437d" d="M 96.660156 203.558594 C 96.660156 206.695312 91.367188 209.242188 84.835938 209.242188 C 78.308594 209.242188 73.015625 206.695312 73.015625 203.558594 C 73.015625 200.421875 78.308594 197.875 84.835938 197.875 C 91.367188 197.875 96.660156 200.421875 96.660156 203.558594 " fill-opacity="1" fill-rule="nonzero"/><path fill="#eb4d88" d="M 95.152344 203.035156 C 95.152344 205.617188 90.535156 207.707031 84.835938 207.707031 C 79.140625 207.707031 74.519531 205.617188 74.519531 203.035156 C 74.519531 200.453125 79.140625 198.363281 84.835938 198.363281 C 90.535156 198.363281 95.152344 200.453125 95.152344 203.035156 " fill-opacity="1" fill-rule="nonzero"/><path fill="#f25795" d="M 93.644531 202.511719 C 93.644531 204.535156 89.703125 206.175781 84.835938 206.175781 C 79.972656 206.175781 76.027344 204.535156 76.027344 202.511719 C 76.027344 200.488281 79.972656 198.847656 84.835938 198.847656 C 89.703125 198.847656 93.644531 200.488281 93.644531 202.511719 " fill-opacity="1" fill-rule="nonzero"/><path fill="#1b0c06" d="M 99.265625 192.457031 C 92.566406 192.457031 87.136719 182.523438 87.136719 170.269531 C 87.136719 158.015625 92.566406 148.082031 99.265625 148.082031 C 105.964844 148.082031 111.390625 158.015625 111.390625 170.269531 C 111.390625 182.523438 105.964844 192.457031 99.265625 192.457031 " fill-opacity="1" fill-rule="nonzero"/><path fill="#251009" d="M 99.917969 190.585938 C 93.917969 190.585938 89.050781 181.488281 89.050781 170.269531 C 89.050781 159.050781 93.917969 149.957031 99.917969 149.957031 C 105.921875 149.957031 110.785156 159.050781 110.785156 170.269531 C 110.785156 181.488281 105.921875 190.585938 99.917969 190.585938 " fill-opacity="1" fill-rule="nonzero"/><path fill="#30150c" d="M 100.570312 188.710938 C 95.265625 188.710938 90.964844 180.453125 90.964844 170.269531 C 90.964844 160.085938 95.265625 151.828125 100.570312 151.828125 C 105.878906 151.828125 110.179688 160.085938 110.179688 170.269531 C 110.179688 180.453125 105.878906 188.710938 100.570312 188.710938 " fill-opacity="1" fill-rule="nonzero"/><path fill="#3d190f" d="M 101.222656 186.835938 C 96.613281 186.835938 92.875 179.417969 92.875 170.269531 C 92.875 161.117188 96.613281 153.699219 101.222656 153.699219 C 105.832031 153.699219 109.570312 161.117188 109.570312 170.269531 C 109.570312 179.417969 105.832031 186.835938 101.222656 186.835938 " fill-opacity="1" fill-rule="nonzero"/><path fill="#4a1e12" d="M 101.878906 184.964844 C 97.960938 184.964844 94.789062 178.386719 94.789062 170.269531 C 94.789062 162.15625 97.960938 155.574219 101.878906 155.574219 C 105.792969 155.574219 108.964844 162.15625 108.964844 170.269531 C 108.964844 178.386719 105.792969 184.964844 101.878906 184.964844 " fill-opacity="1" fill-rule="nonzero"/><path fill="#592214" d="M 102.53125 183.09375 C 99.308594 183.09375 96.703125 177.351562 96.703125 170.269531 C 96.703125 163.1875 99.308594 157.449219 102.53125 157.449219 C 105.746094 157.449219 108.355469 163.1875 108.355469 170.269531 C 108.355469 177.351562 105.746094 183.09375 102.53125 183.09375 " fill-opacity="1" fill-rule="nonzero"/><path fill="#682617" d="M 103.183594 181.21875 C 100.660156 181.21875 98.613281 176.316406 98.613281 170.269531 C 98.613281 164.222656 100.660156 159.320312 103.183594 159.320312 C 105.703125 159.320312 107.75 164.222656 107.75 170.269531 C 107.75 176.316406 105.703125 181.21875 103.183594 181.21875 " fill-opacity="1" fill-rule="nonzero"/><path fill="#1b0c06" d="M 191.28125 192.457031 C 184.585938 192.457031 179.15625 182.523438 179.15625 170.269531 C 179.15625 158.015625 184.585938 148.082031 191.28125 148.082031 C 197.980469 148.082031 203.410156 158.015625 203.410156 170.269531 C 203.410156 182.523438 197.980469 192.457031 191.28125 192.457031 " fill-opacity="1" fill-rule="nonzero"/><path fill="#251009" d="M 190.804688 190.585938 C 184.800781 190.585938 179.9375 181.488281 179.9375 170.269531 C 179.9375 159.050781 184.800781 149.957031 190.804688 149.957031 C 196.804688 149.957031 201.671875 159.050781 201.671875 170.269531 C 201.671875 181.488281 196.804688 190.585938 190.804688 190.585938 " fill-opacity="1" fill-rule="nonzero"/><path fill="#30150c" d="M 190.328125 188.710938 C 185.023438 188.710938 180.722656 180.453125 180.722656 170.269531 C 180.722656 160.085938 185.023438 151.828125 190.328125 151.828125 C 195.632812 151.828125 199.9375 160.085938 199.9375 170.269531 C 199.9375 180.453125 195.632812 188.710938 190.328125 188.710938 " fill-opacity="1" fill-rule="nonzero"/><path fill="#3d190f" d="M 189.851562 186.835938 C 185.238281 186.835938 181.503906 179.417969 181.503906 170.269531 C 181.503906 161.117188 185.238281 153.699219 189.851562 153.699219 C 194.460938 153.699219 198.199219 161.117188 198.199219 170.269531 C 198.199219 179.417969 194.460938 186.835938 189.851562 186.835938 " fill-opacity="1" fill-rule="nonzero"/><path fill="#4a1e12" d="M 189.375 184.964844 C 185.457031 184.964844 182.285156 178.386719 182.285156 170.269531 C 182.285156 162.15625 185.457031 155.574219 189.375 155.574219 C 193.289062 155.574219 196.460938 162.15625 196.460938 170.269531 C 196.460938 178.386719 193.289062 184.964844 189.375 184.964844 " fill-opacity="1" fill-rule="nonzero"/><path fill="#592214" d="M 188.894531 183.09375 C 185.675781 183.09375 183.070312 177.351562 183.070312 170.269531 C 183.070312 163.1875 185.675781 157.449219 188.894531 157.449219 C 192.113281 157.449219 194.726562 163.1875 194.726562 170.269531 C 194.726562 177.351562 192.113281 183.09375 188.894531 183.09375 " fill-opacity="1" fill-rule="nonzero"/><path fill="#682617" d="M 188.417969 181.21875 C 185.894531 181.21875 183.851562 176.316406 183.851562 170.269531 C 183.851562 164.222656 185.894531 159.320312 188.417969 159.320312 C 190.941406 159.320312 192.988281 164.222656 192.988281 170.269531 C 192.988281 176.316406 190.941406 181.21875 188.417969 181.21875 " fill-opacity="1" fill-rule="nonzero"/><path fill="#1b0c06" d="M 115.480469 115.46875 C 114.054688 112.574219 70.714844 133.898438 72.136719 136.796875 C 73.5625 139.691406 85.972656 140.421875 97.941406 134.527344 C 109.910156 128.640625 116.90625 118.363281 115.480469 115.46875 " fill-opacity="1" fill-rule="nonzero"/><path fill="#251009" d="M 113.789062 117.234375 C 112.53125 114.683594 73.316406 133.980469 74.574219 136.535156 C 75.832031 139.089844 86.996094 139.621094 97.824219 134.292969 C 108.652344 128.964844 115.046875 119.792969 113.789062 117.234375 " fill-opacity="1" fill-rule="nonzero"/><path fill="#30150c" d="M 112.09375 119.003906 C 111.007812 116.796875 75.921875 134.0625 77.007812 136.273438 C 78.097656 138.484375 88.019531 138.820312 97.707031 134.054688 C 107.398438 129.285156 113.183594 121.21875 112.09375 119.003906 " fill-opacity="1" fill-rule="nonzero"/><path fill="#3d190f" d="M 110.402344 120.777344 C 109.480469 118.90625 78.523438 134.140625 79.445312 136.011719 C 80.363281 137.882812 89.042969 138.023438 97.589844 133.816406 C 106.140625 129.609375 111.324219 122.648438 110.402344 120.777344 " fill-opacity="1" fill-rule="nonzero"/><path fill="#4a1e12" d="M 108.710938 122.546875 C 107.957031 121.019531 81.128906 134.21875 81.878906 135.75 C 82.632812 137.277344 90.066406 137.226562 97.472656 133.578125 C 104.882812 129.933594 109.460938 124.074219 108.710938 122.546875 " fill-opacity="1" fill-rule="nonzero"/><path fill="#592214" d="M 107.015625 124.316406 C 106.433594 123.128906 83.730469 134.304688 84.3125 135.488281 C 84.898438 136.675781 91.089844 136.425781 97.355469 133.339844 C 103.628906 130.257812 107.601562 125.503906 107.015625 124.316406 " fill-opacity="1" fill-rule="nonzero"/><path fill="#682617" d="M 105.324219 126.085938 C 104.90625 125.242188 86.335938 134.382812 86.75 135.226562 C 87.164062 136.070312 92.109375 135.628906 97.238281 133.105469 C 102.371094 130.582031 105.738281 126.929688 105.324219 126.085938 " fill-opacity="1" fill-rule="nonzero"/><path fill="#1b0c06" d="M 172.03125 115.46875 C 173.453125 112.574219 216.796875 133.898438 215.371094 136.796875 C 213.949219 139.691406 201.539062 140.421875 189.570312 134.527344 C 177.597656 128.640625 170.605469 118.363281 172.03125 115.46875 " fill-opacity="1" fill-rule="nonzero"/><path fill="#251009" d="M 173.722656 117.234375 C 174.980469 114.683594 214.195312 133.980469 212.9375 136.535156 C 211.679688 139.089844 200.515625 139.621094 189.6875 134.292969 C 178.859375 128.964844 172.46875 119.792969 173.722656 117.234375 " fill-opacity="1" fill-rule="nonzero"/><path fill="#30150c" d="M 175.417969 119.003906 C 176.503906 116.796875 211.589844 134.0625 210.503906 136.273438 C 209.414062 138.484375 199.492188 138.820312 189.804688 134.054688 C 180.113281 129.285156 174.328125 121.21875 175.417969 119.003906 " fill-opacity="1" fill-rule="nonzero"/><path fill="#3d190f" d="M 177.109375 120.777344 C 178.027344 118.90625 208.988281 134.140625 208.066406 136.011719 C 207.148438 137.882812 198.472656 138.023438 189.917969 133.816406 C 181.371094 129.609375 176.1875 122.648438 177.109375 120.777344 " fill-opacity="1" fill-rule="nonzero"/><path fill="#4a1e12" d="M 178.800781 122.546875 C 179.554688 121.019531 206.386719 134.21875 205.632812 135.75 C 204.878906 137.277344 197.449219 137.226562 190.035156 133.578125 C 182.628906 129.933594 178.050781 124.074219 178.800781 122.546875 " fill-opacity="1" fill-rule="nonzero"/><path fill="#592214" d="M 180.496094 124.316406 C 181.078125 123.128906 203.78125 134.304688 203.195312 135.488281 C 202.613281 136.675781 196.425781 136.425781 190.152344 133.339844 C 183.882812 130.257812 179.910156 125.503906 180.496094 124.316406 " fill-opacity="1" fill-rule="nonzero"/><path fill="#682617" d="M 182.1875 126.085938 C 182.605469 125.242188 201.175781 134.382812 200.761719 135.226562 C 200.347656 136.070312 195.402344 135.628906 190.269531 133.105469 C 185.140625 130.582031 181.773438 126.929688 182.1875 126.085938 " fill-opacity="1" fill-rule="nonzero"/><path fill="#1b0c06" d="M 174.996094 226.082031 C 173.894531 241.234375 161.101562 253.449219 145.476562 253.449219 C 129.847656 253.449219 117.054688 241.234375 115.953125 226.082031 C 123.398438 233.75 167.550781 233.75 174.996094 226.082031 " fill-opacity="1" fill-rule="nonzero"/><path fill="#251009" d="M 173.59375 227.570312 C 172.546875 241.011719 160.363281 252.132812 145.476562 252.132812 C 130.589844 252.132812 118.40625 241.011719 117.355469 227.570312 C 124.449219 234.367188 166.503906 234.367188 173.59375 227.570312 " fill-opacity="1" fill-rule="nonzero"/><path fill="#30150c" d="M 172.191406 229.058594 C 171.195312 240.789062 159.617188 250.820312 145.476562 250.820312 C 131.332031 250.820312 119.753906 240.789062 118.757812 229.058594 C 125.496094 234.992188 165.453125 234.992188 172.191406 229.058594 " fill-opacity="1" fill-rule="nonzero"/><path fill="#3d190f" d="M 170.789062 230.542969 C 169.847656 240.566406 158.875 249.507812 145.476562 249.507812 C 132.074219 249.507812 121.101562 240.566406 120.160156 230.542969 C 126.542969 235.613281 164.40625 235.613281 170.789062 230.542969 " fill-opacity="1" fill-rule="nonzero"/><path fill="#4a1e12" d="M 169.390625 232.027344 C 168.496094 240.34375 158.136719 248.195312 145.476562 248.195312 C 132.816406 248.195312 122.453125 240.34375 121.558594 232.027344 C 127.589844 236.234375 163.359375 236.234375 169.390625 232.027344 " fill-opacity="1" fill-rule="nonzero"/><path fill="#592214" d="M 167.988281 233.515625 C 167.148438 240.121094 157.394531 246.882812 145.476562 246.882812 C 133.554688 246.882812 123.800781 240.121094 122.960938 233.515625 C 128.640625 236.855469 162.308594 236.855469 167.988281 233.515625 " fill-opacity="1" fill-rule="nonzero"/><path fill="#682617" d="M 166.585938 235 C 165.800781 239.894531 156.652344 245.570312 145.476562 245.570312 C 134.296875 245.570312 125.148438 239.894531 124.363281 235 C 129.6875 237.476562 161.261719 237.476562 166.585938 235 " fill-opacity="1" fill-rule="nonzero"/><path fill="#6591d3" d="M 291.6875 170.3125 C 288.980469 192.605469 275.289062 199.980469 268.886719 195.695312 C 261.777344 191.386719 261.175781 181.167969 262.601562 167.464844 C 265.425781 154.9375 270.433594 130.121094 269.316406 129.171875 C 269.128906 129.324219 275.613281 132.308594 281.566406 139.941406 C 287.5625 147.269531 293.03125 159.246094 291.6875 170.3125 " fill-opacity="1" fill-rule="nonzero"/><path fill="#6e99d7" d="M 290.734375 170.125 C 288.355469 190.320312 276.425781 197.417969 270.539062 193.835938 C 264.046875 190.230469 263.394531 180.757812 264.761719 167.609375 C 267.253906 155.445312 272.214844 132.675781 271.332031 131.871094 C 271.285156 130.527344 293.367188 148.480469 290.734375 170.125 " fill-opacity="1" fill-rule="nonzero"/><path fill="#79a2db" d="M 289.777344 169.933594 C 287.707031 188.085938 277.453125 194.84375 272.128906 191.910156 C 266.300781 188.957031 265.628906 180.242188 266.917969 167.75 C 269.101562 156.054688 273.910156 135.332031 273.226562 134.667969 C 273.242188 133.597656 292.117188 150.636719 289.777344 169.933594 " fill-opacity="1" fill-rule="nonzero"/><path fill="#85ade0" d="M 288.828125 169.75 C 287.035156 185.90625 278.367188 192.261719 273.65625 189.917969 C 268.53125 187.5625 267.875 179.625 269.078125 167.882812 C 270.976562 156.769531 275.507812 138.09375 274.988281 137.5625 C 275.046875 136.726562 290.878906 152.707031 288.828125 169.75 " fill-opacity="1" fill-rule="nonzero"/><path fill="#90b7e5" d="M 287.871094 169.566406 C 286.34375 183.785156 279.175781 189.679688 275.125 187.867188 C 270.734375 186.046875 270.136719 178.910156 271.242188 168.011719 C 272.867188 157.597656 277 140.960938 276.621094 140.550781 C 276.703125 139.925781 289.644531 154.6875 287.871094 169.566406 " fill-opacity="1" fill-rule="nonzero"/><path fill="#9bbfe8" d="M 286.914062 169.386719 C 285.628906 181.714844 279.875 187.09375 276.523438 185.757812 C 272.902344 184.410156 272.40625 178.09375 273.402344 168.136719 C 274.78125 158.53125 278.386719 143.925781 278.117188 143.625 C 278.207031 143.179688 288.417969 156.589844 286.914062 169.386719 " fill-opacity="1" fill-rule="nonzero"/><path fill="#a2c7ec" d="M 285.960938 169.207031 C 284.898438 179.699219 280.476562 184.511719 277.851562 183.589844 C 275.03125 182.660156 274.6875 177.171875 275.566406 168.261719 C 276.710938 159.578125 279.660156 146.984375 279.472656 146.78125 C 279.5625 146.488281 287.203125 158.402344 285.960938 169.207031 " fill-opacity="1" fill-rule="nonzero"/></svg>