<svg xmlns="http://www.w3.org/2000/svg" xmlns:xlink="http://www.w3.org/1999/xlink" width="500" zoomAndPan="magnify" viewBox="0 0 375 374.999991" height="500" preserveAspectRatio="xMidYMid meet" version="1.0"><metadata><ContainsAiGeneratedContent>Yes</ContainsAiGeneratedContent></metadata><defs><clipPath id="cf439d081e"><path d="M 86 303 L 281 303 L 281 305.027344 L 86 305.027344 Z M 86 303 " clip-rule="nonzero"/></clipPath><clipPath id="a2e2924eaa"><path d="M 37.5 47.027344 L 327 47.027344 L 327 293 L 37.5 293 Z M 37.5 47.027344 " clip-rule="nonzero"/></clipPath><clipPath id="a80acec1c7"><path d="M 37.5 47.027344 L 266 47.027344 L 266 277 L 37.5 277 Z M 37.5 47.027344 " clip-rule="nonzero"/></clipPath></defs><g clip-path="url(#cf439d081e)"><path fill="#34344f" d="M 184.304688 340.960938 C 174.328125 340.960938 164.515625 340.738281 155.128906 340.324219 C 135.824219 339.492188 117.941406 337.867188 100.398438 335.355469 C 99.878906 335.277344 99.363281 335.179688 98.855469 335.054688 C 98.347656 334.929688 97.84375 334.777344 97.347656 334.601562 C 96.855469 334.429688 96.371094 334.230469 95.894531 334.007812 C 95.417969 333.785156 94.957031 333.539062 94.503906 333.269531 C 94.054688 333.003906 93.617188 332.714844 93.195312 332.402344 C 92.769531 332.09375 92.363281 331.761719 91.976562 331.410156 C 91.585938 331.058594 91.210938 330.691406 90.859375 330.304688 C 90.503906 329.914062 90.171875 329.511719 89.855469 329.089844 C 89.542969 328.671875 89.25 328.238281 88.976562 327.789062 C 88.707031 327.339844 88.457031 326.878906 88.230469 326.402344 C 88.003906 325.929688 87.804688 325.449219 87.625 324.953125 C 87.445312 324.460938 87.292969 323.960938 87.160156 323.453125 C 87.03125 322.941406 86.929688 322.429688 86.847656 321.910156 C 86.769531 321.390625 86.714844 320.871094 86.6875 320.347656 C 86.660156 319.824219 86.660156 319.296875 86.683594 318.773438 C 86.707031 318.25 86.753906 317.730469 86.832031 317.210938 C 86.90625 316.691406 87.007812 316.175781 87.132812 315.667969 C 87.257812 315.15625 87.40625 314.65625 87.582031 314.160156 C 87.757812 313.664062 87.957031 313.179688 88.179688 312.707031 C 88.398438 312.230469 88.644531 311.765625 88.914062 311.316406 C 89.179688 310.863281 89.472656 310.425781 89.78125 310.003906 C 90.09375 309.582031 90.421875 309.175781 90.773438 308.785156 C 91.125 308.394531 91.496094 308.023438 91.882812 307.667969 C 92.269531 307.316406 92.671875 306.980469 93.09375 306.667969 C 93.511719 306.351562 93.949219 306.058594 94.398438 305.789062 C 94.847656 305.515625 95.308594 305.269531 95.78125 305.042969 C 96.253906 304.816406 96.738281 304.613281 97.230469 304.433594 C 97.722656 304.257812 98.226562 304.101562 98.734375 303.972656 C 99.242188 303.84375 99.753906 303.738281 100.273438 303.660156 C 100.792969 303.582031 101.3125 303.527344 101.839844 303.5 C 102.363281 303.472656 102.886719 303.46875 103.410156 303.492188 C 103.933594 303.515625 104.457031 303.566406 104.976562 303.640625 C 121.441406 306 138.308594 307.53125 156.535156 308.320312 C 165.503906 308.703125 174.84375 308.894531 184.355469 308.921875 C 193.714844 308.921875 202.980469 308.710938 211.859375 308.351562 C 229.789062 307.582031 246.386719 306.097656 262.585938 303.8125 C 263.105469 303.742188 263.628906 303.691406 264.152344 303.671875 C 264.675781 303.648438 265.199219 303.652344 265.726562 303.683594 C 266.25 303.714844 266.769531 303.769531 267.289062 303.847656 C 267.804688 303.929688 268.320312 304.035156 268.828125 304.167969 C 269.335938 304.300781 269.835938 304.453125 270.328125 304.636719 C 270.820312 304.816406 271.304688 305.019531 271.777344 305.246094 C 272.25 305.476562 272.707031 305.726562 273.15625 306 C 273.605469 306.273438 274.039062 306.566406 274.457031 306.882812 C 274.875 307.199219 275.277344 307.535156 275.664062 307.890625 C 276.050781 308.246094 276.417969 308.617188 276.765625 309.007812 C 277.117188 309.398438 277.445312 309.808594 277.753906 310.230469 C 278.066406 310.65625 278.351562 311.09375 278.617188 311.542969 C 278.886719 311.996094 279.128906 312.460938 279.351562 312.9375 C 279.570312 313.414062 279.765625 313.898438 279.941406 314.394531 C 280.113281 314.886719 280.261719 315.390625 280.386719 315.902344 C 280.507812 316.410156 280.609375 316.925781 280.679688 317.445312 C 280.753906 317.964844 280.800781 318.484375 280.824219 319.011719 C 280.84375 319.535156 280.839844 320.058594 280.8125 320.582031 C 280.78125 321.105469 280.726562 321.625 280.644531 322.144531 C 280.566406 322.664062 280.460938 323.175781 280.328125 323.683594 C 280.199219 324.191406 280.042969 324.691406 279.863281 325.183594 C 279.679688 325.679688 279.476562 326.160156 279.25 326.632812 C 279.023438 327.105469 278.769531 327.566406 278.5 328.015625 C 278.226562 328.460938 277.929688 328.894531 277.617188 329.316406 C 277.300781 329.734375 276.964844 330.136719 276.609375 330.523438 C 276.253906 330.910156 275.882812 331.277344 275.492188 331.625 C 275.097656 331.976562 274.691406 332.304688 274.269531 332.613281 C 273.84375 332.925781 273.40625 333.210938 272.953125 333.480469 C 272.503906 333.746094 272.039062 333.988281 271.5625 334.210938 C 271.085938 334.429688 270.601562 334.628906 270.105469 334.800781 C 269.613281 334.972656 269.109375 335.125 268.597656 335.246094 C 268.089844 335.371094 267.574219 335.46875 267.054688 335.542969 C 249.8125 337.96875 232.207031 339.546875 213.230469 340.359375 C 203.859375 340.707031 194.144531 340.921875 184.304688 340.960938 Z M 184.304688 340.960938 " fill-opacity="1" fill-rule="nonzero"/></g><g clip-path="url(#a2e2924eaa)"><path fill="#84bf3e" d="M 324.164062 106.46875 C 318.636719 81.59375 294.539062 58.804688 269.601562 53.964844 C 254.402344 50.925781 212.007812 47.171875 183.96875 47.464844 C 155.933594 47.15625 113.535156 50.898438 98.339844 53.949219 C 73.394531 58.789062 49.28125 81.574219 43.769531 106.449219 C 40.628906 121.578125 37.558594 142.117188 37.503906 170.171875 C 37.550781 198.207031 40.636719 218.761719 43.800781 233.871094 C 49.308594 258.746094 73.429688 281.535156 98.367188 286.375 C 113.570312 289.414062 155.957031 293.167969 183.996094 292.855469 C 212.03125 293.167969 254.429688 289.425781 269.628906 286.375 C 294.574219 281.535156 318.6875 258.746094 324.191406 233.871094 C 327.332031 218.761719 330.410156 198.222656 330.484375 170.171875 C 330.382812 142.121094 327.304688 121.578125 324.164062 106.46875 Z M 324.164062 106.46875 " fill-opacity="1" fill-rule="nonzero"/></g><g clip-path="url(#a80acec1c7)"><path fill="#84bf3e" d="M 69.222656 272.394531 C 81.46875 275.324219 93.886719 276.789062 106.480469 276.78125 C 194.375 276.78125 265.625 205.53125 265.625 117.640625 C 265.640625 106.199219 264.429688 94.886719 261.992188 83.703125 C 259.558594 72.523438 255.953125 61.734375 251.179688 51.332031 C 231.628906 49.136719 204.101562 47.257812 183.96875 47.464844 C 155.933594 47.15625 113.535156 50.898438 98.339844 53.949219 C 73.394531 58.789062 49.28125 81.574219 43.769531 106.449219 C 40.628906 121.578125 37.558594 142.117188 37.503906 170.171875 C 37.550781 198.207031 40.636719 218.761719 43.800781 233.871094 C 47.015625 248.511719 56.710938 262.433594 69.222656 272.394531 Z M 69.222656 272.394531 " fill-opacity="1" fill-rule="nonzero"/></g><path fill="#ffffff" d="M 231.105469 187.320312 C 208.171875 203.082031 179.992188 219.019531 159.15625 228.824219 C 147.378906 234.980469 130.171875 224.359375 129.257812 209.4375 C 127.332031 183.246094 127.332031 157.058594 129.257812 130.867188 C 130.171875 115.941406 147.378906 105.324219 159.15625 111.480469 C 179.992188 121.300781 208.171875 137.222656 231.09375 153.003906 C 231.785156 153.480469 232.449219 153.996094 233.078125 154.550781 C 233.710938 155.109375 234.304688 155.699219 234.863281 156.328125 C 235.425781 156.957031 235.941406 157.617188 236.421875 158.308594 C 236.902344 159 237.335938 159.71875 237.730469 160.460938 C 238.121094 161.207031 238.464844 161.972656 238.765625 162.757812 C 239.0625 163.542969 239.316406 164.34375 239.515625 165.160156 C 239.71875 165.976562 239.871094 166.804688 239.972656 167.636719 C 240.074219 168.472656 240.125 169.3125 240.125 170.152344 C 240.125 170.992188 240.074219 171.832031 239.972656 172.667969 C 239.871094 173.5 239.71875 174.328125 239.515625 175.144531 C 239.316406 175.960938 239.0625 176.761719 238.765625 177.546875 C 238.464844 178.335938 238.121094 179.097656 237.730469 179.84375 C 237.335938 180.589844 236.902344 181.304688 236.421875 181.996094 C 235.941406 182.6875 235.425781 183.347656 234.863281 183.976562 C 234.304688 184.605469 233.710938 185.199219 233.078125 185.753906 C 232.449219 186.308594 231.785156 186.824219 231.09375 187.300781 Z M 231.105469 187.320312 " fill-opacity="1" fill-rule="nonzero"/></svg>