<svg xmlns="http://www.w3.org/2000/svg" xmlns:xlink="http://www.w3.org/1999/xlink" width="500" zoomAndPan="magnify" viewBox="0 0 375 374.999991" height="500" preserveAspectRatio="xMidYMid meet" version="1.0"><defs><filter x="0%" y="0%" width="100%" height="100%" id="36b7b9d319"><feColorMatrix values="0 0 0 0 1 0 0 0 0 1 0 0 0 0 1 0 0 0 1 0" color-interpolation-filters="sRGB"/></filter><mask id="c281e5820d"><g filter="url(#36b7b9d319)"><rect x="-37.5" width="450" fill="#000000" y="-37.499999" height="449.999989" fill-opacity="0.418"/></g></mask><clipPath id="4551c7b843"><path d="M 1 0.121094 L 27 0.121094 L 27 15 L 1 15 Z M 1 0.121094 " clip-rule="nonzero"/></clipPath><clipPath id="02d68f60bf"><rect x="0" width="29" y="0" height="16"/></clipPath><mask id="41d78d0088"><g filter="url(#36b7b9d319)"><rect x="-37.5" width="450" fill="#000000" y="-37.499999" height="449.999989" fill-opacity="0.418"/></g></mask><clipPath id="48b2d7075a"><path d="M 1 1 L 27 1 L 27 15.679688 L 1 15.679688 Z M 1 1 " clip-rule="nonzero"/></clipPath><clipPath id="922c392323"><rect x="0" width="29" y="0" height="16"/></clipPath><mask id="4be75f7d0c"><g filter="url(#36b7b9d319)"><rect x="-37.5" width="450" fill="#000000" y="-37.499999" height="449.999989" fill-opacity="0.418"/></g></mask><clipPath id="f1ba891e67"><path d="M 1 0.0390625 L 27 0.0390625 L 27 14.921875 L 1 14.921875 Z M 1 0.0390625 " clip-rule="nonzero"/></clipPath><clipPath id="219379e600"><rect x="0" width="28" y="0" height="15"/></clipPath><mask id="5826e3be8c"><g filter="url(#36b7b9d319)"><rect x="-37.5" width="450" fill="#000000" y="-37.499999" height="449.999989" fill-opacity="0.418"/></g></mask><clipPath id="812233e3f6"><path d="M 2 0.28125 L 28 0.28125 L 28 15 L 2 15 Z M 2 0.28125 " clip-rule="nonzero"/></clipPath><clipPath id="bbe8c3bc0f"><rect x="0" width="30" y="0" height="16"/></clipPath><mask id="3621810766"><g filter="url(#36b7b9d319)"><rect x="-37.5" width="450" fill="#000000" y="-37.499999" height="449.999989" fill-opacity="0.418"/></g></mask><clipPath id="718401eea7"><path d="M 1 0.0390625 L 27 0.0390625 L 27 15 L 1 15 Z M 1 0.0390625 " clip-rule="nonzero"/></clipPath><clipPath id="302d95a4dd"><rect x="0" width="29" y="0" height="16"/></clipPath><mask id="1d8ba8a8f0"><g filter="url(#36b7b9d319)"><rect x="-37.5" width="450" fill="#000000" y="-37.499999" height="449.999989" fill-opacity="0.418"/></g></mask><clipPath id="547cbfc555"><rect x="0" width="29" y="0" height="16"/></clipPath><mask id="c1563bacc7"><g filter="url(#36b7b9d319)"><rect x="-37.5" width="450" fill="#000000" y="-37.499999" height="449.999989" fill-opacity="0.418"/></g></mask><clipPath id="b599455557"><path d="M 2 0.320312 L 28 0.320312 L 28 15 L 2 15 Z M 2 0.320312 " clip-rule="nonzero"/></clipPath><clipPath id="d25bd9e97b"><rect x="0" width="30" y="0" height="16"/></clipPath><mask id="fb92209022"><g filter="url(#36b7b9d319)"><rect x="-37.5" width="450" fill="#000000" y="-37.499999" height="449.999989" fill-opacity="0.418"/></g></mask><clipPath id="ccf3cf9719"><rect x="0" width="30" y="0" height="16"/></clipPath><mask id="a5fb0a40dd"><g filter="url(#36b7b9d319)"><rect x="-37.5" width="450" fill="#000000" y="-37.499999" height="449.999989" fill-opacity="0.418"/></g></mask><clipPath id="06ac290dc0"><path d="M 2 0.078125 L 28 0.078125 L 28 15 L 2 15 Z M 2 0.078125 " clip-rule="nonzero"/></clipPath><clipPath id="ff3a3f6656"><rect x="0" width="30" y="0" height="16"/></clipPath><mask id="478ec27c50"><g filter="url(#36b7b9d319)"><rect x="-37.5" width="450" fill="#000000" y="-37.499999" height="449.999989" fill-opacity="0.418"/></g></mask><clipPath id="901d74068c"><path d="M 2 1 L 28 1 L 28 15.960938 L 2 15.960938 Z M 2 1 " clip-rule="nonzero"/></clipPath><clipPath id="29dbe0cc56"><rect x="0" width="29" y="0" height="16"/></clipPath><mask id="edfbf5c0d1"><g filter="url(#36b7b9d319)"><rect x="-37.5" width="450" fill="#000000" y="-37.499999" height="449.999989" fill-opacity="0.418"/></g></mask><clipPath id="087d8b9b2b"><rect x="0" width="29" y="0" height="16"/></clipPath><mask id="8ec1b9455e"><g filter="url(#36b7b9d319)"><rect x="-37.5" width="450" fill="#000000" y="-37.499999" height="449.999989" fill-opacity="0.418"/></g></mask><clipPath id="072090945c"><path d="M 1 0.121094 L 27 0.121094 L 27 15 L 1 15 Z M 1 0.121094 " clip-rule="nonzero"/></clipPath><clipPath id="ce10878ad5"><rect x="0" width="29" y="0" height="16"/></clipPath><mask id="146974b406"><g filter="url(#36b7b9d319)"><rect x="-37.5" width="450" fill="#000000" y="-37.499999" height="449.999989" fill-opacity="0.418"/></g></mask><clipPath id="0994353f16"><path d="M 2 1 L 28 1 L 28 15.761719 L 2 15.761719 Z M 2 1 " clip-rule="nonzero"/></clipPath><clipPath id="3592692151"><rect x="0" width="29" y="0" height="16"/></clipPath><mask id="3e6382ef6c"><g filter="url(#36b7b9d319)"><rect x="-37.5" width="450" fill="#000000" y="-37.499999" height="449.999989" fill-opacity="0.418"/></g></mask><clipPath id="a3f299dd63"><path d="M 1 0.160156 L 27 0.160156 L 27 15 L 1 15 Z M 1 0.160156 " clip-rule="nonzero"/></clipPath><clipPath id="42a0157d00"><rect x="0" width="29" y="0" height="16"/></clipPath><mask id="6dcca5a350"><g filter="url(#36b7b9d319)"><rect x="-37.5" width="450" fill="#000000" y="-37.499999" height="449.999989" fill-opacity="0.418"/></g></mask><clipPath id="ad59145fc1"><path d="M 2 0.121094 L 28 0.121094 L 28 15 L 2 15 Z M 2 0.121094 " clip-rule="nonzero"/></clipPath><clipPath id="4960642de1"><rect x="0" width="30" y="0" height="16"/></clipPath><mask id="87ffc24123"><g filter="url(#36b7b9d319)"><rect x="-37.5" width="450" fill="#000000" y="-37.499999" height="449.999989" fill-opacity="0.3"/></g></mask><clipPath id="568dcba51c"><rect x="0" width="7" y="0" height="8"/></clipPath><mask id="9b600c229e"><g filter="url(#36b7b9d319)"><rect x="-37.5" width="450" fill="#000000" y="-37.499999" height="449.999989" fill-opacity="0.3"/></g></mask><clipPath id="e4115bb3f7"><rect x="0" width="7" y="0" height="8"/></clipPath><mask id="d0f3eb10a4"><g filter="url(#36b7b9d319)"><rect x="-37.5" width="450" fill="#000000" y="-37.499999" height="449.999989" fill-opacity="0.3"/></g></mask><clipPath id="ea033b4230"><path d="M 1 1 L 6 1 L 6 7.558594 L 1 7.558594 Z M 1 1 " clip-rule="nonzero"/></clipPath><clipPath id="0e49601e6f"><rect x="0" width="6" y="0" height="8"/></clipPath><mask id="6f2b1d8eb4"><g filter="url(#36b7b9d319)"><rect x="-37.5" width="450" fill="#000000" y="-37.499999" height="449.999989" fill-opacity="0.3"/></g></mask><clipPath id="f06a9e881d"><path d="M 1 1 L 5 1 L 5 7.921875 L 1 7.921875 Z M 1 1 " clip-rule="nonzero"/></clipPath><clipPath id="140ee21bee"><rect x="0" width="6" y="0" height="8"/></clipPath><mask id="f5830c2722"><g filter="url(#36b7b9d319)"><rect x="-37.5" width="450" fill="#000000" y="-37.499999" height="449.999989" fill-opacity="0.3"/></g></mask><clipPath id="d6fedb7fd5"><rect x="0" width="7" y="0" height="8"/></clipPath><mask id="90b5a2629a"><g filter="url(#36b7b9d319)"><rect x="-37.5" width="450" fill="#000000" y="-37.499999" height="449.999989" fill-opacity="0.3"/></g></mask><clipPath id="1000722e6a"><path d="M 1 1 L 5.960938 1 L 5.960938 7.761719 L 1 7.761719 Z M 1 1 " clip-rule="nonzero"/></clipPath><clipPath id="4caad64592"><rect x="0" width="6" y="0" height="8"/></clipPath><mask id="90de1433b4"><g filter="url(#36b7b9d319)"><rect x="-37.5" width="450" fill="#000000" y="-37.499999" height="449.999989" fill-opacity="0.249"/></g></mask><clipPath id="c7f52913b9"><rect x="0" width="26" y="0" height="20"/></clipPath><mask id="62b9fd2efb"><g filter="url(#36b7b9d319)"><rect x="-37.5" width="450" fill="#000000" y="-37.499999" height="449.999989" fill-opacity="0.249"/></g></mask><clipPath id="4f98b048c0"><rect x="0" width="26" y="0" height="21"/></clipPath><mask id="aa8e512495"><g filter="url(#36b7b9d319)"><rect x="-37.5" width="450" fill="#000000" y="-37.499999" height="449.999989" fill-opacity="0.249"/></g></mask><clipPath id="8634410dbd"><rect x="0" width="26" y="0" height="21"/></clipPath><mask id="f8246bd81c"><g filter="url(#36b7b9d319)"><rect x="-37.5" width="450" fill="#000000" y="-37.499999" height="449.999989" fill-opacity="0.249"/></g></mask><clipPath id="549e06d23a"><path d="M 0.078125 2 L 24 2 L 24 19 L 0.078125 19 Z M 0.078125 2 " clip-rule="nonzero"/></clipPath><clipPath id="0296da568e"><rect x="0" width="25" y="0" height="21"/></clipPath><mask id="30eec0bf21"><g filter="url(#36b7b9d319)"><rect x="-37.5" width="450" fill="#000000" y="-37.499999" height="449.999989" fill-opacity="0.249"/></g></mask><clipPath id="b53ffdcb26"><path d="M 0.0390625 2 L 24 2 L 24 19 L 0.0390625 19 Z M 0.0390625 2 " clip-rule="nonzero"/></clipPath><clipPath id="e79d8b22c6"><rect x="0" width="25" y="0" height="21"/></clipPath><mask id="7bc7b5748d"><g filter="url(#36b7b9d319)"><rect x="-37.5" width="450" fill="#000000" y="-37.499999" height="449.999989" fill-opacity="0.249"/></g></mask><clipPath id="7b2a686f1e"><rect x="0" width="26" y="0" height="20"/></clipPath><mask id="f968944c84"><g filter="url(#36b7b9d319)"><rect x="-37.5" width="450" fill="#000000" y="-37.499999" height="449.999989" fill-opacity="0.249"/></g></mask><clipPath id="fc0d5d0308"><path d="M 0.28125 1 L 24 1 L 24 19 L 0.28125 19 Z M 0.28125 1 " clip-rule="nonzero"/></clipPath><clipPath id="ccf37f20be"><rect x="0" width="25" y="0" height="20"/></clipPath><mask id="180aec88ed"><g filter="url(#36b7b9d319)"><rect x="-37.5" width="450" fill="#000000" y="-37.499999" height="449.999989" fill-opacity="0.249"/></g></mask><clipPath id="029802fe54"><path d="M 1 1 L 24.878906 1 L 24.878906 19 L 1 19 Z M 1 1 " clip-rule="nonzero"/></clipPath><clipPath id="e26a6e0090"><rect x="0" width="25" y="0" height="20"/></clipPath><mask id="0b29c5ea36"><g filter="url(#36b7b9d319)"><rect x="-37.5" width="450" fill="#000000" y="-37.499999" height="449.999989" fill-opacity="0.249"/></g></mask><clipPath id="e391e3cbad"><path d="M 0.160156 1 L 24 1 L 24 19 L 0.160156 19 Z M 0.160156 1 " clip-rule="nonzero"/></clipPath><clipPath id="9686195dec"><rect x="0" width="25" y="0" height="20"/></clipPath></defs><path fill="#000000" d="M 106.425781 153.71875 L 190.742188 98.128906 C 190.953125 97.992188 191.207031 97.882812 191.507812 97.804688 C 191.808594 97.722656 192.148438 97.671875 192.527344 97.652344 C 192.90625 97.632812 193.320312 97.644531 193.761719 97.6875 C 194.207031 97.730469 194.675781 97.800781 195.167969 97.90625 C 195.660156 98.007812 196.164062 98.136719 196.6875 98.296875 C 197.207031 98.453125 197.730469 98.636719 198.261719 98.84375 C 198.789062 99.054688 199.3125 99.28125 199.832031 99.53125 C 200.347656 99.78125 200.851562 100.050781 201.335938 100.332031 L 276.578125 144.054688 C 277.066406 144.339844 277.527344 144.632812 277.964844 144.9375 C 278.398438 145.238281 278.800781 145.550781 279.171875 145.863281 C 279.539062 146.175781 279.867188 146.488281 280.15625 146.800781 C 280.445312 147.113281 280.6875 147.417969 280.882812 147.714844 C 281.078125 148.011719 281.222656 148.296875 281.320312 148.570312 C 281.414062 148.839844 281.460938 149.09375 281.453125 149.328125 C 281.445312 149.566406 281.386719 149.777344 281.277344 149.96875 C 281.164062 150.160156 281.003906 150.324219 280.796875 150.460938 L 196.476562 206.046875 C 196.269531 206.1875 196.015625 206.296875 195.714844 206.375 C 195.414062 206.457031 195.074219 206.503906 194.695312 206.523438 C 194.316406 206.542969 193.902344 206.535156 193.457031 206.492188 C 193.015625 206.449219 192.546875 206.375 192.054688 206.273438 C 191.5625 206.171875 191.054688 206.042969 190.535156 205.882812 C 190.015625 205.726562 189.488281 205.542969 188.960938 205.335938 C 188.429688 205.125 187.90625 204.898438 187.390625 204.644531 C 186.871094 204.394531 186.371094 204.128906 185.882812 203.847656 L 110.640625 160.121094 C 110.15625 159.839844 109.695312 159.546875 109.257812 159.242188 C 108.824219 158.9375 108.421875 158.628906 108.050781 158.316406 C 107.683594 158.003906 107.351562 157.6875 107.066406 157.378906 C 106.777344 157.066406 106.535156 156.761719 106.339844 156.464844 C 106.144531 156.167969 106 155.882812 105.902344 155.609375 C 105.804688 155.339844 105.761719 155.085938 105.769531 154.847656 C 105.777344 154.613281 105.835938 154.402344 105.945312 154.210938 C 106.054688 154.019531 106.214844 153.855469 106.425781 153.71875 " fill-opacity="1" fill-rule="nonzero"/><path fill="#000000" d="M 197.785156 202.722656 L 279.097656 149.332031 C 279.390625 149.140625 279.679688 149.011719 279.964844 148.945312 C 280.25 148.878906 280.527344 148.875 280.796875 148.9375 C 281.0625 148.996094 281.316406 149.121094 281.554688 149.308594 C 281.796875 149.496094 282.015625 149.742188 282.21875 150.050781 C 282.421875 150.355469 282.601562 150.714844 282.757812 151.128906 C 282.914062 151.539062 283.046875 152 283.152344 152.5 C 283.257812 153.003906 283.335938 153.546875 283.386719 154.121094 C 283.433594 154.695312 283.457031 155.296875 283.449219 155.921875 L 282.660156 226.691406 C 282.652344 227.316406 282.617188 227.953125 282.554688 228.605469 C 282.492188 229.253906 282.398438 229.90625 282.28125 230.554688 C 282.164062 231.207031 282.019531 231.84375 281.851562 232.472656 C 281.683594 233.097656 281.492188 233.699219 281.28125 234.277344 C 281.066406 234.855469 280.839844 235.398438 280.589844 235.90625 C 280.34375 236.410156 280.082031 236.875 279.808594 237.289062 C 279.535156 237.707031 279.253906 238.070312 278.96875 238.382812 C 278.679688 238.691406 278.386719 238.941406 278.09375 239.136719 L 196.785156 292.523438 C 196.492188 292.714844 196.203125 292.847656 195.917969 292.914062 C 195.632812 292.980469 195.355469 292.980469 195.085938 292.921875 C 194.820312 292.859375 194.566406 292.734375 194.324219 292.546875 C 194.085938 292.359375 193.863281 292.113281 193.664062 291.808594 C 193.460938 291.503906 193.28125 291.144531 193.125 290.730469 C 192.96875 290.316406 192.835938 289.859375 192.730469 289.355469 C 192.625 288.851562 192.546875 288.3125 192.496094 287.738281 C 192.445312 287.160156 192.425781 286.5625 192.433594 285.9375 L 193.222656 215.167969 C 193.226562 214.542969 193.261719 213.902344 193.328125 213.253906 C 193.390625 212.601562 193.484375 211.953125 193.601562 211.300781 C 193.71875 210.652344 193.863281 210.011719 194.03125 209.386719 C 194.199219 208.757812 194.390625 208.15625 194.601562 207.578125 C 194.8125 207.003906 195.042969 206.460938 195.292969 205.953125 C 195.539062 205.445312 195.800781 204.984375 196.070312 204.566406 C 196.34375 204.148438 196.625 203.785156 196.914062 203.476562 C 197.203125 203.164062 197.492188 202.914062 197.785156 202.722656 " fill-opacity="1" fill-rule="nonzero"/><path fill="#f41809" d="M 200.285156 263.875 L 218.851562 251.28125 C 219.308594 250.972656 219.742188 250.75 220.164062 250.617188 C 220.582031 250.484375 220.953125 250.445312 221.273438 250.507812 C 221.59375 250.566406 221.84375 250.71875 222.015625 250.964844 C 222.191406 251.210938 222.277344 251.527344 222.277344 251.921875 L 222.277344 269.390625 C 222.277344 269.785156 222.191406 270.222656 222.015625 270.703125 C 221.84375 271.183594 221.59375 271.671875 221.273438 272.167969 C 220.953125 272.664062 220.582031 273.128906 220.164062 273.566406 C 219.742188 274 219.308594 274.371094 218.851562 274.679688 L 200.285156 287.273438 C 199.828125 287.582031 199.390625 287.804688 198.972656 287.9375 C 198.554688 288.074219 198.183594 288.109375 197.863281 288.050781 C 197.539062 287.988281 197.292969 287.835938 197.121094 287.589844 C 196.945312 287.347656 196.859375 287.027344 196.859375 286.632812 L 196.859375 269.164062 C 196.859375 268.769531 196.945312 268.332031 197.121094 267.851562 C 197.292969 267.371094 197.539062 266.882812 197.863281 266.386719 C 198.183594 265.890625 198.554688 265.425781 198.972656 264.992188 C 199.390625 264.554688 199.828125 264.183594 200.285156 263.875 " fill-opacity="1" fill-rule="nonzero"/><path fill="#f41809" d="M 201.289062 234.804688 L 219.117188 222.710938 C 219.363281 222.542969 219.613281 222.398438 219.855469 222.277344 C 220.101562 222.15625 220.339844 222.066406 220.566406 222 C 220.796875 221.933594 221.015625 221.894531 221.222656 221.886719 C 221.433594 221.875 221.625 221.894531 221.800781 221.941406 C 221.976562 221.988281 222.132812 222.0625 222.273438 222.167969 C 222.410156 222.269531 222.527344 222.394531 222.621094 222.550781 C 222.71875 222.703125 222.789062 222.878906 222.839844 223.078125 C 222.886719 223.273438 222.910156 223.492188 222.910156 223.726562 L 222.910156 239.945312 C 222.910156 240.179688 222.886719 240.429688 222.839844 240.695312 C 222.789062 240.957031 222.71875 241.230469 222.621094 241.515625 C 222.527344 241.796875 222.410156 242.082031 222.273438 242.371094 C 222.132812 242.664062 221.976562 242.949219 221.800781 243.238281 C 221.625 243.523438 221.433594 243.800781 221.222656 244.074219 C 221.015625 244.34375 220.796875 244.605469 220.566406 244.851562 C 220.339844 245.097656 220.101562 245.324219 219.855469 245.539062 C 219.613281 245.75 219.363281 245.941406 219.117188 246.109375 L 201.289062 258.203125 C 201.039062 258.371094 200.792969 258.515625 200.546875 258.636719 C 200.300781 258.753906 200.066406 258.847656 199.835938 258.914062 C 199.605469 258.980469 199.386719 259.019531 199.179688 259.027344 C 198.972656 259.039062 198.78125 259.019531 198.605469 258.972656 C 198.425781 258.925781 198.269531 258.847656 198.132812 258.746094 C 197.992188 258.644531 197.875 258.515625 197.78125 258.363281 C 197.6875 258.210938 197.613281 258.035156 197.566406 257.835938 C 197.515625 257.640625 197.492188 257.421875 197.492188 257.1875 L 197.492188 240.96875 C 197.492188 240.734375 197.515625 240.484375 197.566406 240.21875 C 197.613281 239.957031 197.6875 239.683594 197.78125 239.398438 C 197.875 239.117188 197.992188 238.832031 198.132812 238.542969 C 198.269531 238.25 198.425781 237.964844 198.605469 237.675781 C 198.78125 237.390625 198.972656 237.113281 199.179688 236.839844 C 199.386719 236.570312 199.605469 236.308594 199.835938 236.0625 C 200.066406 235.816406 200.300781 235.585938 200.546875 235.375 C 200.792969 235.164062 201.039062 234.972656 201.289062 234.804688 " fill-opacity="1" fill-rule="nonzero"/><path fill="#f41809" d="M 199.714844 207.082031 L 220.691406 192.855469 C 220.835938 192.753906 220.980469 192.691406 221.125 192.664062 C 221.269531 192.636719 221.40625 192.644531 221.542969 192.6875 C 221.675781 192.730469 221.804688 192.808594 221.925781 192.925781 C 222.046875 193.039062 222.160156 193.1875 222.261719 193.367188 C 222.367188 193.546875 222.457031 193.753906 222.539062 193.992188 C 222.621094 194.234375 222.6875 194.496094 222.742188 194.785156 C 222.800781 195.074219 222.84375 195.382812 222.871094 195.707031 C 222.898438 196.035156 222.914062 196.375 222.914062 196.730469 L 222.914062 209.363281 C 222.914062 209.71875 222.898438 210.078125 222.871094 210.441406 C 222.84375 210.808594 222.800781 211.175781 222.742188 211.539062 C 222.6875 211.902344 222.621094 212.257812 222.539062 212.609375 C 222.457031 212.957031 222.367188 213.292969 222.261719 213.609375 C 222.160156 213.929688 222.046875 214.230469 221.925781 214.507812 C 221.804688 214.789062 221.675781 215.039062 221.542969 215.265625 C 221.40625 215.492188 221.269531 215.691406 221.125 215.855469 C 220.980469 216.023438 220.835938 216.152344 220.691406 216.253906 L 199.714844 230.480469 C 199.570312 230.582031 199.425781 230.644531 199.28125 230.671875 C 199.140625 230.699219 199 230.691406 198.867188 230.648438 C 198.730469 230.605469 198.601562 230.527344 198.480469 230.410156 C 198.359375 230.296875 198.246094 230.152344 198.144531 229.96875 C 198.042969 229.789062 197.949219 229.582031 197.867188 229.34375 C 197.789062 229.105469 197.71875 228.839844 197.664062 228.550781 C 197.605469 228.261719 197.566406 227.953125 197.535156 227.628906 C 197.507812 227.300781 197.492188 226.960938 197.492188 226.605469 L 197.492188 213.972656 C 197.492188 213.617188 197.507812 213.257812 197.535156 212.894531 C 197.566406 212.527344 197.605469 212.164062 197.664062 211.796875 C 197.71875 211.433594 197.789062 211.078125 197.867188 210.726562 C 197.949219 210.378906 198.042969 210.046875 198.144531 209.726562 C 198.246094 209.40625 198.359375 209.105469 198.480469 208.828125 C 198.601562 208.546875 198.730469 208.296875 198.867188 208.070312 C 199 207.84375 199.140625 207.644531 199.28125 207.480469 C 199.425781 207.3125 199.570312 207.183594 199.714844 207.082031 " fill-opacity="1" fill-rule="nonzero"/><path fill="#f41809" d="M 229.992188 186.375 L 248.734375 173.765625 C 248.960938 173.613281 249.183594 173.492188 249.40625 173.402344 C 249.628906 173.3125 249.84375 173.257812 250.050781 173.234375 C 250.261719 173.210938 250.460938 173.21875 250.648438 173.261719 C 250.835938 173.304688 251.007812 173.382812 251.167969 173.488281 C 251.328125 173.597656 251.472656 173.738281 251.597656 173.90625 C 251.722656 174.078125 251.828125 174.273438 251.914062 174.5 C 252.003906 174.722656 252.066406 174.96875 252.113281 175.238281 C 252.15625 175.507812 252.179688 175.796875 252.179688 176.101562 L 252.179688 190.191406 C 252.179688 190.496094 252.15625 190.8125 252.113281 191.144531 C 252.066406 191.472656 252.003906 191.808594 251.914062 192.148438 C 251.828125 192.488281 251.722656 192.828125 251.597656 193.167969 C 251.472656 193.507812 251.328125 193.835938 251.167969 194.160156 C 251.007812 194.484375 250.835938 194.796875 250.648438 195.089844 C 250.460938 195.386719 250.261719 195.664062 250.050781 195.921875 C 249.84375 196.179688 249.628906 196.414062 249.40625 196.621094 C 249.183594 196.832031 248.960938 197.011719 248.734375 197.164062 L 229.992188 209.773438 C 229.769531 209.925781 229.542969 210.046875 229.320312 210.132812 C 229.101562 210.222656 228.886719 210.28125 228.675781 210.304688 C 228.46875 210.328125 228.269531 210.316406 228.082031 210.273438 C 227.894531 210.230469 227.71875 210.15625 227.558594 210.046875 C 227.398438 209.9375 227.257812 209.800781 227.128906 209.628906 C 227.003906 209.460938 226.898438 209.261719 226.8125 209.039062 C 226.726562 208.816406 226.660156 208.566406 226.617188 208.296875 C 226.574219 208.027344 226.550781 207.738281 226.550781 207.433594 L 226.550781 193.347656 C 226.550781 193.039062 226.574219 192.722656 226.617188 192.394531 C 226.660156 192.0625 226.726562 191.726562 226.8125 191.386719 C 226.898438 191.046875 227.003906 190.707031 227.128906 190.367188 C 227.257812 190.03125 227.398438 189.699219 227.558594 189.375 C 227.71875 189.050781 227.894531 188.742188 228.082031 188.445312 C 228.269531 188.148438 228.46875 187.871094 228.675781 187.613281 C 228.886719 187.355469 229.101562 187.125 229.320312 186.914062 C 229.542969 186.707031 229.769531 186.527344 229.992188 186.375 " fill-opacity="1" fill-rule="nonzero"/><path fill="#f41809" d="M 229.253906 215.484375 L 249.476562 201.878906 C 249.652344 201.757812 249.828125 201.675781 250.003906 201.628906 C 250.179688 201.582031 250.347656 201.574219 250.511719 201.605469 C 250.675781 201.632812 250.832031 201.699219 250.976562 201.804688 C 251.125 201.90625 251.261719 202.046875 251.386719 202.21875 C 251.511719 202.394531 251.625 202.597656 251.722656 202.835938 C 251.824219 203.074219 251.90625 203.335938 251.972656 203.628906 C 252.042969 203.921875 252.09375 204.234375 252.128906 204.570312 C 252.164062 204.902344 252.179688 205.253906 252.179688 205.617188 L 252.179688 217.898438 C 252.179688 218.261719 252.164062 218.636719 252.128906 219.015625 C 252.09375 219.398438 252.042969 219.78125 251.972656 220.164062 C 251.90625 220.546875 251.824219 220.921875 251.722656 221.292969 C 251.625 221.664062 251.511719 222.019531 251.386719 222.363281 C 251.261719 222.703125 251.125 223.027344 250.976562 223.328125 C 250.832031 223.628906 250.675781 223.90625 250.511719 224.15625 C 250.347656 224.40625 250.179688 224.625 250.003906 224.8125 C 249.828125 225.003906 249.652344 225.15625 249.476562 225.277344 L 229.253906 238.882812 C 229.078125 239 228.902344 239.082031 228.726562 239.128906 C 228.554688 239.175781 228.386719 239.183594 228.222656 239.152344 C 228.058594 239.125 227.902344 239.058594 227.753906 238.953125 C 227.605469 238.851562 227.46875 238.710938 227.34375 238.539062 C 227.21875 238.363281 227.105469 238.160156 227.007812 237.921875 C 226.910156 237.683594 226.824219 237.421875 226.757812 237.128906 C 226.691406 236.835938 226.636719 236.523438 226.605469 236.191406 C 226.570312 235.855469 226.550781 235.503906 226.550781 235.140625 L 226.550781 222.859375 C 226.550781 222.496094 226.570312 222.121094 226.605469 221.742188 C 226.636719 221.359375 226.691406 220.976562 226.757812 220.59375 C 226.824219 220.210938 226.910156 219.835938 227.007812 219.464844 C 227.105469 219.097656 227.21875 218.738281 227.34375 218.398438 C 227.46875 218.054688 227.605469 217.730469 227.753906 217.429688 C 227.902344 217.128906 228.058594 216.851562 228.222656 216.601562 C 228.386719 216.351562 228.554688 216.132812 228.726562 215.945312 C 228.902344 215.753906 229.078125 215.601562 229.253906 215.484375 " fill-opacity="1" fill-rule="nonzero"/><path fill="#f41809" d="M 229.730469 243.453125 L 247.730469 231.34375 C 247.980469 231.171875 248.226562 231.046875 248.472656 230.957031 C 248.71875 230.867188 248.957031 230.824219 249.1875 230.816406 C 249.421875 230.8125 249.640625 230.851562 249.847656 230.929688 C 250.058594 231.007812 250.25 231.128906 250.425781 231.289062 C 250.601562 231.449219 250.761719 231.644531 250.902344 231.878906 C 251.039062 232.113281 251.15625 232.382812 251.253906 232.683594 C 251.347656 232.984375 251.421875 233.308594 251.46875 233.664062 C 251.519531 234.019531 251.542969 234.394531 251.542969 234.789062 L 251.542969 246.164062 C 251.542969 246.558594 251.519531 246.964844 251.46875 247.382812 C 251.421875 247.804688 251.347656 248.230469 251.253906 248.660156 C 251.15625 249.085938 251.039062 249.511719 250.902344 249.933594 C 250.761719 250.355469 250.601562 250.765625 250.425781 251.164062 C 250.25 251.5625 250.058594 251.941406 249.847656 252.300781 C 249.640625 252.660156 249.421875 252.992188 249.1875 253.300781 C 248.957031 253.605469 248.71875 253.882812 248.472656 254.125 C 248.226562 254.367188 247.980469 254.570312 247.730469 254.738281 L 229.730469 266.851562 C 229.480469 267.019531 229.230469 267.148438 228.984375 267.234375 C 228.738281 267.324219 228.5 267.371094 228.269531 267.375 C 228.039062 267.378906 227.820312 267.34375 227.609375 267.261719 C 227.402344 267.183594 227.210938 267.0625 227.03125 266.902344 C 226.855469 266.746094 226.699219 266.546875 226.558594 266.3125 C 226.417969 266.078125 226.300781 265.808594 226.207031 265.511719 C 226.109375 265.210938 226.039062 264.882812 225.988281 264.527344 C 225.941406 264.175781 225.917969 263.800781 225.917969 263.40625 L 225.917969 252.03125 C 225.917969 251.636719 225.941406 251.226562 225.988281 250.808594 C 226.039062 250.386719 226.109375 249.964844 226.207031 249.535156 C 226.300781 249.105469 226.417969 248.679688 226.558594 248.257812 C 226.699219 247.835938 226.855469 247.425781 227.03125 247.027344 C 227.210938 246.628906 227.402344 246.25 227.609375 245.890625 C 227.820312 245.53125 228.039062 245.199219 228.269531 244.890625 C 228.5 244.585938 228.738281 244.3125 228.984375 244.070312 C 229.230469 243.828125 229.480469 243.621094 229.730469 243.453125 " fill-opacity="1" fill-rule="nonzero"/><path fill="#f41809" d="M 258.40625 223.132812 L 277.144531 210.523438 C 277.371094 210.375 277.597656 210.253906 277.816406 210.164062 C 278.039062 210.074219 278.253906 210.015625 278.464844 209.992188 C 278.671875 209.972656 278.871094 209.980469 279.058594 210.023438 C 279.246094 210.070312 279.421875 210.144531 279.582031 210.253906 C 279.742188 210.363281 279.882812 210.503906 280.007812 210.671875 C 280.136719 210.84375 280.242188 211.042969 280.328125 211.265625 C 280.414062 211.492188 280.480469 211.738281 280.523438 212.011719 C 280.566406 212.28125 280.589844 212.570312 280.589844 212.878906 L 280.589844 226.9375 C 280.589844 227.246094 280.566406 227.5625 280.523438 227.894531 C 280.480469 228.222656 280.414062 228.558594 280.328125 228.902344 C 280.242188 229.242188 280.136719 229.582031 280.007812 229.921875 C 279.882812 230.261719 279.742188 230.59375 279.582031 230.917969 C 279.421875 231.242188 279.246094 231.550781 279.058594 231.847656 C 278.871094 232.144531 278.671875 232.421875 278.464844 232.679688 C 278.253906 232.9375 278.039062 233.171875 277.816406 233.382812 C 277.597656 233.589844 277.371094 233.769531 277.144531 233.921875 L 258.40625 246.53125 C 258.179688 246.683594 257.957031 246.804688 257.734375 246.894531 C 257.511719 246.984375 257.296875 247.039062 257.089844 247.0625 C 256.878906 247.085938 256.679688 247.078125 256.492188 247.03125 C 256.304688 246.988281 256.132812 246.910156 255.972656 246.804688 C 255.8125 246.695312 255.667969 246.554688 255.542969 246.382812 C 255.417969 246.214844 255.3125 246.015625 255.222656 245.789062 C 255.136719 245.566406 255.074219 245.316406 255.027344 245.046875 C 254.984375 244.777344 254.960938 244.488281 254.960938 244.179688 L 254.960938 230.121094 C 254.960938 229.8125 254.984375 229.496094 255.027344 229.164062 C 255.074219 228.832031 255.136719 228.5 255.222656 228.15625 C 255.3125 227.816406 255.417969 227.476562 255.542969 227.136719 C 255.667969 226.796875 255.8125 226.464844 255.972656 226.140625 C 256.132812 225.816406 256.304688 225.503906 256.492188 225.207031 C 256.679688 224.910156 256.878906 224.632812 257.089844 224.375 C 257.296875 224.117188 257.511719 223.882812 257.734375 223.675781 C 257.957031 223.464844 258.179688 223.285156 258.40625 223.132812 " fill-opacity="1" fill-rule="nonzero"/><path fill="#f41809" d="M 258.449219 196.394531 L 277.929688 183.289062 C 278.132812 183.152344 278.332031 183.050781 278.53125 182.976562 C 278.726562 182.90625 278.921875 182.867188 279.105469 182.859375 C 279.292969 182.855469 279.46875 182.882812 279.636719 182.941406 C 279.804688 183.003906 279.960938 183.097656 280.105469 183.222656 C 280.246094 183.347656 280.375 183.5 280.488281 183.683594 C 280.597656 183.871094 280.691406 184.082031 280.769531 184.316406 C 280.847656 184.554688 280.90625 184.8125 280.945312 185.09375 C 280.984375 185.375 281.003906 185.667969 281.003906 185.984375 L 281.003906 199.855469 C 281.003906 200.167969 280.984375 200.492188 280.945312 200.824219 C 280.90625 201.160156 280.847656 201.496094 280.769531 201.835938 C 280.691406 202.175781 280.597656 202.515625 280.488281 202.851562 C 280.375 203.1875 280.246094 203.511719 280.105469 203.828125 C 279.960938 204.148438 279.804688 204.449219 279.636719 204.734375 C 279.46875 205.023438 279.292969 205.289062 279.105469 205.53125 C 278.921875 205.777344 278.726562 205.996094 278.53125 206.191406 C 278.332031 206.386719 278.132812 206.550781 277.929688 206.6875 L 258.449219 219.792969 C 258.25 219.929688 258.046875 220.03125 257.851562 220.105469 C 257.652344 220.175781 257.460938 220.214844 257.273438 220.222656 C 257.085938 220.226562 256.910156 220.199219 256.742188 220.140625 C 256.574219 220.078125 256.417969 219.984375 256.277344 219.859375 C 256.132812 219.734375 256.007812 219.582031 255.894531 219.398438 C 255.78125 219.210938 255.6875 219 255.609375 218.765625 C 255.535156 218.527344 255.476562 218.269531 255.4375 217.988281 C 255.394531 217.707031 255.375 217.414062 255.375 217.097656 L 255.375 203.226562 C 255.375 202.914062 255.394531 202.589844 255.4375 202.257812 C 255.476562 201.921875 255.535156 201.585938 255.609375 201.246094 C 255.6875 200.90625 255.78125 200.566406 255.894531 200.230469 C 256.007812 199.894531 256.132812 199.570312 256.277344 199.253906 C 256.417969 198.933594 256.574219 198.632812 256.742188 198.347656 C 256.910156 198.058594 257.085938 197.792969 257.273438 197.550781 C 257.460938 197.304688 257.652344 197.085938 257.851562 196.890625 C 258.046875 196.695312 258.25 196.53125 258.449219 196.394531 " fill-opacity="1" fill-rule="nonzero"/><path fill="#f41809" d="M 258.449219 167.503906 L 277.929688 154.398438 C 278.339844 154.125 278.730469 153.9375 279.105469 153.839844 C 279.484375 153.742188 279.816406 153.738281 280.105469 153.828125 C 280.390625 153.921875 280.613281 154.101562 280.769531 154.367188 C 280.925781 154.636719 281.003906 154.972656 281.003906 155.375 L 281.003906 172.683594 C 281.003906 173.085938 280.925781 173.527344 280.769531 174.007812 C 280.613281 174.484375 280.390625 174.964844 280.105469 175.441406 C 279.816406 175.921875 279.484375 176.367188 279.105469 176.773438 C 278.730469 177.183594 278.339844 177.523438 277.929688 177.796875 L 258.449219 190.902344 C 258.042969 191.179688 257.652344 191.363281 257.273438 191.464844 C 256.898438 191.5625 256.566406 191.566406 256.277344 191.472656 C 255.988281 191.382812 255.765625 191.203125 255.609375 190.933594 C 255.453125 190.664062 255.375 190.328125 255.375 189.925781 L 255.375 172.621094 C 255.375 172.214844 255.453125 171.773438 255.609375 171.296875 C 255.765625 170.820312 255.988281 170.339844 256.277344 169.859375 C 256.566406 169.378906 256.898438 168.9375 257.273438 168.527344 C 257.652344 168.121094 258.042969 167.78125 258.449219 167.503906 " fill-opacity="1" fill-rule="nonzero"/><path fill="#000000" d="M 107.894531 153.386719 L 194.984375 205.445312 C 195.167969 205.558594 195.351562 205.71875 195.53125 205.9375 C 195.710938 206.152344 195.882812 206.417969 196.050781 206.734375 C 196.21875 207.046875 196.375 207.40625 196.527344 207.808594 C 196.675781 208.207031 196.8125 208.644531 196.9375 209.117188 C 197.0625 209.585938 197.175781 210.085938 197.273438 210.609375 C 197.367188 211.132812 197.449219 211.671875 197.515625 212.230469 C 197.578125 212.785156 197.625 213.347656 197.65625 213.917969 C 197.683594 214.484375 197.695312 215.046875 197.6875 215.601562 L 196.867188 285.640625 C 196.859375 286.199219 196.835938 286.738281 196.792969 287.265625 C 196.75 287.789062 196.691406 288.285156 196.613281 288.757812 C 196.539062 289.230469 196.445312 289.667969 196.339844 290.070312 C 196.230469 290.472656 196.109375 290.832031 195.976562 291.148438 C 195.839844 291.464844 195.695312 291.730469 195.539062 291.949219 C 195.382812 292.164062 195.214844 292.332031 195.042969 292.441406 C 194.871094 292.554688 194.695312 292.609375 194.511719 292.609375 C 194.332031 292.609375 194.148438 292.554688 193.964844 292.445312 L 106.871094 240.386719 C 106.6875 240.277344 106.507812 240.113281 106.328125 239.894531 C 106.148438 239.679688 105.972656 239.414062 105.804688 239.097656 C 105.640625 238.785156 105.480469 238.425781 105.332031 238.023438 C 105.183594 237.625 105.042969 237.1875 104.917969 236.714844 C 104.792969 236.246094 104.683594 235.746094 104.585938 235.222656 C 104.488281 234.699219 104.40625 234.160156 104.34375 233.601562 C 104.277344 233.046875 104.230469 232.484375 104.203125 231.914062 C 104.171875 231.347656 104.160156 230.785156 104.167969 230.230469 L 104.992188 160.191406 C 104.996094 159.632812 105.023438 159.09375 105.0625 158.570312 C 105.105469 158.042969 105.167969 157.546875 105.242188 157.074219 C 105.320312 156.601562 105.410156 156.164062 105.519531 155.761719 C 105.625 155.359375 105.746094 155 105.882812 154.683594 C 106.015625 154.367188 106.164062 154.101562 106.320312 153.882812 C 106.476562 153.667969 106.640625 153.5 106.8125 153.390625 C 106.984375 153.277344 107.164062 153.222656 107.34375 153.222656 C 107.527344 153.222656 107.710938 153.277344 107.894531 153.386719 " fill-opacity="1" fill-rule="nonzero"/><path fill="#0000dd" d="M 170.039062 251.8125 L 188.882812 263.71875 C 189.101562 263.851562 189.3125 264.023438 189.527344 264.222656 C 189.738281 264.425781 189.941406 264.65625 190.140625 264.914062 C 190.34375 265.171875 190.53125 265.453125 190.710938 265.761719 C 190.890625 266.066406 191.054688 266.390625 191.207031 266.730469 C 191.363281 267.074219 191.496094 267.425781 191.617188 267.789062 C 191.738281 268.152344 191.839844 268.519531 191.921875 268.894531 C 192.003906 269.265625 192.066406 269.636719 192.109375 270 C 192.152344 270.367188 192.171875 270.726562 192.171875 271.070312 L 192.171875 283.914062 C 192.171875 284.261719 192.152344 284.589844 192.109375 284.902344 C 192.066406 285.21875 192.003906 285.507812 191.921875 285.777344 C 191.839844 286.042969 191.738281 286.285156 191.617188 286.496094 C 191.496094 286.710938 191.363281 286.890625 191.207031 287.039062 C 191.054688 287.1875 190.890625 287.300781 190.710938 287.378906 C 190.53125 287.457031 190.34375 287.5 190.140625 287.507812 C 189.941406 287.515625 189.738281 287.484375 189.527344 287.417969 C 189.3125 287.351562 189.101562 287.25 188.882812 287.117188 L 170.039062 275.210938 C 169.824219 275.074219 169.609375 274.90625 169.398438 274.703125 C 169.1875 274.503906 168.980469 274.273438 168.78125 274.015625 C 168.582031 273.757812 168.394531 273.472656 168.214844 273.167969 C 168.035156 272.863281 167.867188 272.539062 167.714844 272.195312 C 167.5625 271.855469 167.425781 271.503906 167.304688 271.140625 C 167.1875 270.773438 167.085938 270.40625 167.003906 270.035156 C 166.921875 269.664062 166.859375 269.292969 166.816406 268.925781 C 166.773438 268.558594 166.753906 268.203125 166.753906 267.855469 L 166.753906 255.015625 C 166.753906 254.667969 166.773438 254.335938 166.816406 254.023438 C 166.859375 253.710938 166.921875 253.421875 167.003906 253.152344 C 167.085938 252.882812 167.1875 252.644531 167.304688 252.429688 C 167.425781 252.21875 167.5625 252.039062 167.714844 251.890625 C 167.867188 251.742188 168.035156 251.628906 168.214844 251.546875 C 168.394531 251.46875 168.582031 251.425781 168.78125 251.417969 C 168.980469 251.414062 169.1875 251.441406 169.398438 251.507812 C 169.609375 251.574219 169.824219 251.675781 170.039062 251.8125 " fill-opacity="1" fill-rule="nonzero"/><path fill="#0000dd" d="M 170.46875 222.835938 L 189.3125 234.738281 C 189.75 235.015625 190.167969 235.347656 190.570312 235.742188 C 190.972656 236.136719 191.328125 236.5625 191.636719 237.015625 C 191.945312 237.46875 192.183594 237.917969 192.347656 238.363281 C 192.515625 238.808594 192.601562 239.210938 192.601562 239.578125 L 192.601562 257.449219 C 192.601562 257.816406 192.515625 258.117188 192.347656 258.347656 C 192.183594 258.582031 191.945312 258.730469 191.636719 258.796875 C 191.328125 258.859375 190.972656 258.835938 190.570312 258.722656 C 190.167969 258.605469 189.75 258.410156 189.3125 258.136719 L 170.46875 246.230469 C 170.03125 245.957031 169.613281 245.621094 169.210938 245.226562 C 168.808594 244.832031 168.453125 244.410156 168.144531 243.953125 C 167.835938 243.5 167.597656 243.050781 167.429688 242.609375 C 167.265625 242.164062 167.179688 241.757812 167.179688 241.390625 L 167.179688 223.519531 C 167.179688 223.15625 167.265625 222.855469 167.429688 222.621094 C 167.597656 222.386719 167.835938 222.238281 168.144531 222.175781 C 168.453125 222.109375 168.808594 222.136719 169.210938 222.25 C 169.613281 222.363281 170.03125 222.558594 170.46875 222.835938 " fill-opacity="1" fill-rule="nonzero"/><path fill="#0000dd" d="M 170.46875 195.15625 L 189.3125 207.0625 C 189.75 207.335938 190.167969 207.691406 190.570312 208.128906 C 190.972656 208.566406 191.328125 209.050781 191.636719 209.582031 C 191.945312 210.113281 192.183594 210.652344 192.347656 211.195312 C 192.515625 211.742188 192.601562 212.253906 192.601562 212.730469 L 192.601562 228.945312 C 192.601562 229.421875 192.515625 229.828125 192.347656 230.160156 C 192.183594 230.496094 191.945312 230.734375 191.636719 230.875 C 191.328125 231.019531 190.972656 231.054688 190.570312 230.980469 C 190.167969 230.910156 189.75 230.734375 189.3125 230.460938 L 170.46875 218.554688 C 170.03125 218.28125 169.613281 217.925781 169.210938 217.488281 C 168.808594 217.050781 168.453125 216.566406 168.144531 216.035156 C 167.835938 215.503906 167.597656 214.964844 167.429688 214.421875 C 167.265625 213.875 167.179688 213.363281 167.179688 212.886719 L 167.179688 196.671875 C 167.179688 196.195312 167.265625 195.789062 167.429688 195.457031 C 167.597656 195.121094 167.835938 194.882812 168.144531 194.742188 C 168.453125 194.597656 168.808594 194.5625 169.210938 194.636719 C 169.613281 194.707031 170.03125 194.882812 170.46875 195.15625 " fill-opacity="1" fill-rule="nonzero"/><path fill="#0000dd" d="M 141.421875 233.695312 L 160.265625 245.601562 C 160.480469 245.738281 160.695312 245.902344 160.90625 246.09375 C 161.117188 246.285156 161.324219 246.503906 161.523438 246.742188 C 161.722656 246.984375 161.910156 247.242188 162.089844 247.523438 C 162.269531 247.804688 162.4375 248.097656 162.589844 248.40625 C 162.742188 248.714844 162.878906 249.03125 163 249.355469 C 163.117188 249.679688 163.21875 250.003906 163.300781 250.335938 C 163.382812 250.664062 163.445312 250.988281 163.488281 251.308594 C 163.53125 251.628906 163.550781 251.9375 163.550781 252.238281 L 163.550781 266.515625 C 163.550781 266.816406 163.53125 267.097656 163.488281 267.367188 C 163.445312 267.632812 163.382812 267.878906 163.300781 268.101562 C 163.21875 268.328125 163.117188 268.527344 163 268.699219 C 162.878906 268.871094 162.742188 269.015625 162.589844 269.132812 C 162.4375 269.246094 162.269531 269.332031 162.089844 269.382812 C 161.910156 269.4375 161.722656 269.457031 161.523438 269.445312 C 161.324219 269.433594 161.117188 269.390625 160.90625 269.316406 C 160.695312 269.242188 160.480469 269.136719 160.265625 269 L 141.421875 257.09375 C 141.203125 256.957031 140.992188 256.792969 140.777344 256.601562 C 140.566406 256.410156 140.363281 256.195312 140.164062 255.953125 C 139.960938 255.710938 139.773438 255.453125 139.59375 255.171875 C 139.414062 254.894531 139.25 254.597656 139.097656 254.289062 C 138.941406 253.984375 138.808594 253.667969 138.6875 253.339844 C 138.566406 253.015625 138.464844 252.691406 138.382812 252.363281 C 138.300781 252.03125 138.238281 251.707031 138.195312 251.386719 C 138.152344 251.066406 138.132812 250.757812 138.132812 250.457031 L 138.132812 236.179688 C 138.132812 235.878906 138.152344 235.597656 138.195312 235.328125 C 138.238281 235.0625 138.300781 234.816406 138.382812 234.59375 C 138.464844 234.367188 138.566406 234.167969 138.6875 233.996094 C 138.808594 233.824219 138.941406 233.679688 139.097656 233.5625 C 139.25 233.449219 139.414062 233.363281 139.59375 233.3125 C 139.773438 233.257812 139.960938 233.238281 140.164062 233.25 C 140.363281 233.261719 140.566406 233.304688 140.777344 233.378906 C 140.992188 233.453125 141.203125 233.558594 141.421875 233.695312 " fill-opacity="1" fill-rule="nonzero"/><path fill="#0000dd" d="M 141.421875 205.371094 L 160.265625 217.273438 C 160.480469 217.410156 160.695312 217.578125 160.90625 217.773438 C 161.117188 217.96875 161.324219 218.191406 161.523438 218.441406 C 161.722656 218.691406 161.910156 218.960938 162.089844 219.253906 C 162.269531 219.542969 162.4375 219.851562 162.589844 220.175781 C 162.742188 220.5 162.878906 220.832031 163 221.175781 C 163.117188 221.515625 163.21875 221.863281 163.300781 222.210938 C 163.382812 222.558594 163.445312 222.90625 163.488281 223.246094 C 163.53125 223.585938 163.550781 223.917969 163.550781 224.238281 L 163.550781 237.863281 C 163.550781 238.183594 163.53125 238.488281 163.488281 238.777344 C 163.445312 239.0625 163.382812 239.332031 163.300781 239.574219 C 163.21875 239.820312 163.117188 240.035156 163 240.226562 C 162.878906 240.417969 162.742188 240.578125 162.589844 240.710938 C 162.4375 240.839844 162.269531 240.9375 162.089844 241.003906 C 161.910156 241.066406 161.722656 241.097656 161.523438 241.097656 C 161.324219 241.09375 161.117188 241.054688 160.90625 240.984375 C 160.695312 240.914062 160.480469 240.808594 160.265625 240.671875 L 141.421875 228.769531 C 141.203125 228.632812 140.992188 228.464844 140.777344 228.269531 C 140.566406 228.074219 140.363281 227.851562 140.164062 227.601562 C 139.960938 227.355469 139.773438 227.082031 139.59375 226.792969 C 139.414062 226.5 139.25 226.191406 139.097656 225.867188 C 138.941406 225.546875 138.808594 225.210938 138.6875 224.871094 C 138.566406 224.527344 138.464844 224.183594 138.382812 223.832031 C 138.300781 223.484375 138.238281 223.140625 138.195312 222.796875 C 138.152344 222.457031 138.132812 222.125 138.132812 221.804688 L 138.132812 208.183594 C 138.132812 207.859375 138.152344 207.554688 138.195312 207.269531 C 138.238281 206.980469 138.300781 206.714844 138.382812 206.46875 C 138.464844 206.226562 138.566406 206.007812 138.6875 205.816406 C 138.808594 205.625 138.941406 205.464844 139.097656 205.332031 C 139.25 205.203125 139.414062 205.105469 139.59375 205.039062 C 139.773438 204.976562 139.960938 204.945312 140.164062 204.949219 C 140.363281 204.949219 140.566406 204.988281 140.777344 205.058594 C 140.992188 205.128906 141.203125 205.234375 141.421875 205.371094 " fill-opacity="1" fill-rule="nonzero"/><path fill="#0000dd" d="M 141.632812 178.082031 L 160.476562 189.984375 C 160.910156 190.261719 161.332031 190.625 161.734375 191.078125 C 162.136719 191.53125 162.492188 192.039062 162.800781 192.601562 C 163.109375 193.164062 163.347656 193.738281 163.511719 194.324219 C 163.679688 194.910156 163.761719 195.460938 163.761719 195.980469 L 163.761719 211.539062 C 163.761719 212.058594 163.679688 212.507812 163.511719 212.882812 C 163.347656 213.257812 163.109375 213.53125 162.800781 213.703125 C 162.492188 213.875 162.136719 213.933594 161.734375 213.878906 C 161.332031 213.824219 160.910156 213.65625 160.476562 213.382812 L 141.632812 201.476562 C 141.195312 201.203125 140.777344 200.839844 140.371094 200.386719 C 139.96875 199.933594 139.613281 199.425781 139.304688 198.863281 C 139 198.300781 138.761719 197.726562 138.59375 197.140625 C 138.425781 196.554688 138.34375 196 138.34375 195.480469 L 138.34375 179.921875 C 138.34375 179.402344 138.425781 178.957031 138.59375 178.582031 C 138.761719 178.207031 139 177.933594 139.304688 177.761719 C 139.613281 177.585938 139.96875 177.527344 140.371094 177.582031 C 140.777344 177.640625 141.195312 177.804688 141.632812 178.082031 " fill-opacity="1" fill-rule="nonzero"/><path fill="#0000dd" d="M 112.160156 215.335938 L 131.003906 227.238281 C 131.4375 227.515625 131.859375 227.863281 132.261719 228.289062 C 132.664062 228.710938 133.019531 229.175781 133.328125 229.6875 C 133.636719 230.195312 133.875 230.707031 134.039062 231.21875 C 134.207031 231.734375 134.289062 232.214844 134.289062 232.65625 L 134.289062 249.371094 C 134.289062 249.816406 134.207031 250.1875 134.039062 250.492188 C 133.875 250.796875 133.636719 251.007812 133.328125 251.125 C 133.019531 251.246094 132.664062 251.261719 132.261719 251.175781 C 131.859375 251.09375 131.4375 250.914062 131.003906 250.636719 L 112.160156 238.734375 C 111.722656 238.457031 111.304688 238.109375 110.902344 237.683594 C 110.496094 237.257812 110.140625 236.792969 109.835938 236.285156 C 109.527344 235.777344 109.289062 235.265625 109.121094 234.75 C 108.953125 234.238281 108.871094 233.757812 108.871094 233.3125 L 108.871094 216.597656 C 108.871094 216.15625 108.953125 215.78125 109.121094 215.480469 C 109.289062 215.175781 109.527344 214.964844 109.835938 214.84375 C 110.140625 214.726562 110.496094 214.710938 110.902344 214.792969 C 111.304688 214.878906 111.722656 215.058594 112.160156 215.335938 " fill-opacity="1" fill-rule="nonzero"/><path fill="#0000dd" d="M 112.585938 188.167969 L 131.429688 200.074219 C 131.867188 200.347656 132.285156 200.695312 132.6875 201.113281 C 133.09375 201.527344 133.449219 201.984375 133.753906 202.480469 C 134.0625 202.972656 134.300781 203.46875 134.46875 203.96875 C 134.636719 204.464844 134.71875 204.925781 134.71875 205.351562 L 134.71875 222.347656 C 134.71875 222.769531 134.636719 223.128906 134.46875 223.414062 C 134.300781 223.699219 134.0625 223.898438 133.753906 224.003906 C 133.449219 224.109375 133.09375 224.113281 132.6875 224.023438 C 132.285156 223.929688 131.867188 223.746094 131.429688 223.472656 L 112.585938 211.566406 C 112.152344 211.292969 111.730469 210.945312 111.328125 210.527344 C 110.925781 210.113281 110.570312 209.65625 110.261719 209.160156 C 109.953125 208.667969 109.714844 208.171875 109.550781 207.671875 C 109.382812 207.175781 109.300781 206.714844 109.300781 206.289062 L 109.300781 189.292969 C 109.300781 188.871094 109.382812 188.511719 109.550781 188.226562 C 109.714844 187.941406 109.953125 187.742188 110.261719 187.636719 C 110.570312 187.53125 110.925781 187.527344 111.328125 187.617188 C 111.730469 187.710938 112.152344 187.894531 112.585938 188.167969 " fill-opacity="1" fill-rule="nonzero"/><path fill="#0000dd" d="M 112.585938 160.230469 L 131.429688 172.136719 C 131.867188 172.410156 132.285156 172.746094 132.6875 173.144531 C 133.09375 173.542969 133.449219 173.972656 133.753906 174.433594 C 134.0625 174.894531 134.300781 175.351562 134.46875 175.804688 C 134.636719 176.257812 134.71875 176.671875 134.71875 177.046875 L 134.71875 194.777344 C 134.71875 195.152344 134.636719 195.460938 134.46875 195.703125 C 134.300781 195.945312 134.0625 196.101562 133.753906 196.171875 C 133.449219 196.242188 133.09375 196.222656 132.6875 196.113281 C 132.285156 196 131.867188 195.808594 131.429688 195.535156 L 112.585938 183.628906 C 112.152344 183.355469 111.730469 183.015625 111.328125 182.617188 C 110.925781 182.21875 110.570312 181.792969 110.261719 181.332031 C 109.953125 180.871094 109.714844 180.414062 109.550781 179.960938 C 109.382812 179.507812 109.300781 179.09375 109.300781 178.71875 L 109.300781 160.988281 C 109.300781 160.613281 109.382812 160.304688 109.550781 160.0625 C 109.714844 159.820312 109.953125 159.664062 110.261719 159.59375 C 110.570312 159.523438 110.925781 159.542969 111.328125 159.652344 C 111.730469 159.761719 112.152344 159.957031 112.585938 160.230469 " fill-opacity="1" fill-rule="nonzero"/><path fill="#5dad07" d="M 137.800781 138.871094 L 158.9375 151.515625 C 159.1875 151.664062 159.332031 151.875 159.363281 152.144531 C 159.398438 152.414062 159.320312 152.722656 159.128906 153.070312 C 158.941406 153.417969 158.65625 153.78125 158.269531 154.152344 C 157.886719 154.527344 157.4375 154.886719 156.917969 155.230469 L 140.710938 165.945312 C 140.191406 166.289062 139.644531 166.589844 139.070312 166.847656 C 138.496094 167.105469 137.933594 167.304688 137.390625 167.441406 C 136.847656 167.578125 136.359375 167.640625 135.929688 167.636719 C 135.5 167.628906 135.160156 167.550781 134.910156 167.398438 L 113.769531 154.757812 C 113.519531 154.605469 113.378906 154.394531 113.34375 154.125 C 113.3125 153.855469 113.390625 153.546875 113.578125 153.199219 C 113.769531 152.851562 114.054688 152.488281 114.4375 152.117188 C 114.820312 151.742188 115.273438 151.382812 115.789062 151.039062 L 132 140.324219 C 132.519531 139.980469 133.066406 139.679688 133.640625 139.421875 C 134.214844 139.164062 134.773438 138.964844 135.316406 138.828125 C 135.863281 138.691406 136.347656 138.628906 136.777344 138.636719 C 137.207031 138.640625 137.550781 138.722656 137.800781 138.871094 " fill-opacity="1" fill-rule="nonzero"/><path fill="#5dad07" d="M 166.550781 156.769531 L 187.691406 169.414062 C 187.941406 169.5625 188.085938 169.773438 188.117188 170.042969 C 188.148438 170.3125 188.070312 170.621094 187.882812 170.96875 C 187.695312 171.320312 187.40625 171.679688 187.023438 172.054688 C 186.640625 172.429688 186.191406 172.785156 185.671875 173.128906 L 169.460938 183.84375 C 168.945312 184.1875 168.398438 184.488281 167.824219 184.746094 C 167.246094 185.007812 166.6875 185.207031 166.144531 185.339844 C 165.601562 185.476562 165.113281 185.542969 164.683594 185.535156 C 164.253906 185.527344 163.914062 185.449219 163.664062 185.300781 L 142.523438 172.65625 C 142.273438 172.507812 142.128906 172.296875 142.097656 172.027344 C 142.066406 171.757812 142.140625 171.449219 142.332031 171.101562 C 142.519531 170.75 142.808594 170.390625 143.191406 170.015625 C 143.574219 169.640625 144.023438 169.285156 144.542969 168.941406 L 160.753906 158.226562 C 161.269531 157.882812 161.816406 157.582031 162.390625 157.320312 C 162.96875 157.0625 163.527344 156.863281 164.070312 156.730469 C 164.613281 156.59375 165.101562 156.527344 165.53125 156.535156 C 165.960938 156.542969 166.300781 156.621094 166.550781 156.769531 " fill-opacity="1" fill-rule="nonzero"/><path fill="#5dad07" d="M 196.074219 174.417969 L 217.214844 187.0625 C 217.464844 187.210938 217.605469 187.421875 217.640625 187.691406 C 217.671875 187.960938 217.59375 188.269531 217.40625 188.617188 C 217.214844 188.964844 216.929688 189.328125 216.546875 189.703125 C 216.164062 190.074219 215.710938 190.433594 215.191406 190.777344 L 198.984375 201.492188 C 198.464844 201.835938 197.917969 202.136719 197.34375 202.394531 C 196.769531 202.65625 196.210938 202.851562 195.664062 202.988281 C 195.121094 203.125 194.636719 203.191406 194.203125 203.183594 C 193.773438 203.175781 193.433594 203.097656 193.183594 202.945312 L 172.046875 190.304688 C 171.792969 190.152344 171.652344 189.945312 171.621094 189.675781 C 171.585938 189.40625 171.664062 189.097656 171.855469 188.746094 C 172.042969 188.398438 172.328125 188.039062 172.710938 187.664062 C 173.09375 187.289062 173.546875 186.929688 174.066406 186.589844 L 190.273438 175.875 C 190.792969 175.53125 191.339844 175.230469 191.914062 174.96875 C 192.488281 174.710938 193.046875 174.511719 193.59375 174.375 C 194.136719 174.238281 194.621094 174.175781 195.054688 174.183594 C 195.484375 174.191406 195.824219 174.269531 196.074219 174.417969 " fill-opacity="1" fill-rule="nonzero"/><path fill="#5dad07" d="M 166.921875 119.875 L 188.0625 132.515625 C 188.3125 132.667969 188.453125 132.875 188.488281 133.144531 C 188.519531 133.414062 188.441406 133.726562 188.253906 134.074219 C 188.0625 134.421875 187.777344 134.78125 187.394531 135.15625 C 187.011719 135.53125 186.5625 135.890625 186.042969 136.230469 L 169.832031 146.949219 C 169.316406 147.289062 168.769531 147.589844 168.191406 147.851562 C 167.617188 148.109375 167.058594 148.308594 166.515625 148.445312 C 165.972656 148.582031 165.484375 148.644531 165.054688 148.636719 C 164.625 148.628906 164.285156 148.550781 164.03125 148.402344 L 142.894531 135.757812 C 142.644531 135.609375 142.5 135.398438 142.46875 135.128906 C 142.433594 134.859375 142.511719 134.550781 142.703125 134.203125 C 142.890625 133.855469 143.179688 133.492188 143.5625 133.117188 C 143.945312 132.746094 144.394531 132.386719 144.914062 132.042969 L 161.121094 121.328125 C 161.640625 120.984375 162.1875 120.683594 162.761719 120.425781 C 163.335938 120.164062 163.898438 119.96875 164.441406 119.832031 C 164.984375 119.695312 165.472656 119.628906 165.902344 119.636719 C 166.332031 119.644531 166.671875 119.722656 166.921875 119.875 " fill-opacity="1" fill-rule="nonzero"/><path fill="#5dad07" d="M 196.042969 137.273438 L 217.183594 149.917969 C 217.433594 150.066406 217.578125 150.277344 217.609375 150.546875 C 217.644531 150.816406 217.566406 151.125 217.375 151.472656 C 217.1875 151.820312 216.898438 152.183594 216.515625 152.558594 C 216.132812 152.929688 215.683594 153.289062 215.164062 153.632812 L 198.953125 164.347656 C 198.4375 164.691406 197.890625 164.992188 197.316406 165.25 C 196.738281 165.511719 196.179688 165.707031 195.636719 165.84375 C 195.09375 165.980469 194.605469 166.046875 194.175781 166.039062 C 193.746094 166.03125 193.40625 165.953125 193.15625 165.800781 L 172.015625 153.160156 C 171.765625 153.007812 171.625 152.800781 171.589844 152.53125 C 171.558594 152.261719 171.636719 151.949219 171.824219 151.601562 C 172.015625 151.253906 172.300781 150.894531 172.683594 150.519531 C 173.066406 150.144531 173.515625 149.785156 174.035156 149.445312 L 190.246094 138.726562 C 190.761719 138.386719 191.308594 138.085938 191.882812 137.824219 C 192.460938 137.566406 193.019531 137.367188 193.5625 137.230469 C 194.105469 137.09375 194.59375 137.03125 195.023438 137.039062 C 195.453125 137.046875 195.792969 137.125 196.042969 137.273438 " fill-opacity="1" fill-rule="nonzero"/><path fill="#5dad07" d="M 226.191406 155.308594 L 247.328125 167.949219 C 247.582031 168.101562 247.722656 168.3125 247.753906 168.582031 C 247.789062 168.851562 247.710938 169.160156 247.519531 169.507812 C 247.332031 169.855469 247.046875 170.21875 246.664062 170.589844 C 246.277344 170.964844 245.828125 171.324219 245.308594 171.667969 L 229.101562 182.382812 C 228.582031 182.726562 228.035156 183.027344 227.460938 183.285156 C 226.886719 183.542969 226.328125 183.742188 225.78125 183.878906 C 225.238281 184.015625 224.75 184.078125 224.320312 184.070312 C 223.890625 184.066406 223.550781 183.984375 223.300781 183.835938 L 202.160156 171.191406 C 201.910156 171.042969 201.769531 170.832031 201.734375 170.5625 C 201.703125 170.292969 201.78125 169.984375 201.96875 169.636719 C 202.160156 169.289062 202.445312 168.925781 202.828125 168.554688 C 203.210938 168.179688 203.664062 167.820312 204.179688 167.476562 L 220.390625 156.761719 C 220.910156 156.417969 221.457031 156.117188 222.03125 155.859375 C 222.605469 155.601562 223.164062 155.402344 223.707031 155.265625 C 224.253906 155.128906 224.738281 155.066406 225.167969 155.070312 C 225.597656 155.078125 225.941406 155.15625 226.191406 155.308594 " fill-opacity="1" fill-rule="nonzero"/><path fill="#5dad07" d="M 195.199219 101.179688 L 216.339844 113.824219 C 216.589844 113.972656 216.730469 114.183594 216.765625 114.453125 C 216.796875 114.722656 216.71875 115.03125 216.53125 115.378906 C 216.339844 115.730469 216.054688 116.089844 215.671875 116.464844 C 215.289062 116.839844 214.835938 117.195312 214.320312 117.539062 L 198.109375 128.253906 C 197.589844 128.597656 197.042969 128.898438 196.46875 129.15625 C 195.894531 129.417969 195.335938 129.613281 194.789062 129.75 C 194.246094 129.886719 193.761719 129.953125 193.332031 129.945312 C 192.898438 129.9375 192.558594 129.859375 192.308594 129.710938 L 171.171875 117.066406 C 170.917969 116.917969 170.777344 116.707031 170.746094 116.4375 C 170.710938 116.167969 170.789062 115.859375 170.980469 115.507812 C 171.167969 115.160156 171.453125 114.800781 171.835938 114.425781 C 172.21875 114.050781 172.671875 113.695312 173.191406 113.351562 L 189.398438 102.636719 C 189.917969 102.292969 190.464844 101.992188 191.039062 101.730469 C 191.613281 101.472656 192.171875 101.273438 192.71875 101.136719 C 193.261719 101.003906 193.75 100.9375 194.179688 100.945312 C 194.609375 100.953125 194.949219 101.03125 195.199219 101.179688 " fill-opacity="1" fill-rule="nonzero"/><path fill="#5dad07" d="M 225.148438 118.5625 L 246.289062 131.207031 C 246.539062 131.355469 246.683594 131.566406 246.714844 131.835938 C 246.75 132.105469 246.671875 132.414062 246.480469 132.761719 C 246.292969 133.109375 246.003906 133.472656 245.621094 133.84375 C 245.238281 134.21875 244.789062 134.578125 244.269531 134.921875 L 228.0625 145.636719 C 227.542969 145.980469 226.996094 146.28125 226.421875 146.539062 C 225.84375 146.796875 225.285156 146.996094 224.742188 147.132812 C 224.199219 147.269531 223.710938 147.332031 223.28125 147.328125 C 222.851562 147.320312 222.511719 147.242188 222.261719 147.089844 L 201.121094 134.449219 C 200.871094 134.296875 200.730469 134.085938 200.695312 133.816406 C 200.664062 133.546875 200.742188 133.238281 200.929688 132.890625 C 201.121094 132.542969 201.40625 132.179688 201.789062 131.808594 C 202.171875 131.433594 202.621094 131.074219 203.140625 130.730469 L 219.351562 120.015625 C 219.867188 119.675781 220.414062 119.371094 220.988281 119.113281 C 221.566406 118.855469 222.125 118.65625 222.667969 118.519531 C 223.210938 118.382812 223.699219 118.320312 224.128906 118.328125 C 224.558594 118.332031 224.898438 118.414062 225.148438 118.5625 " fill-opacity="1" fill-rule="nonzero"/><path fill="#5dad07" d="M 254.484375 136.605469 L 275.621094 149.246094 C 275.875 149.398438 276.015625 149.605469 276.046875 149.875 C 276.082031 150.144531 276.003906 150.453125 275.8125 150.804688 C 275.625 151.152344 275.339844 151.511719 274.957031 151.886719 C 274.574219 152.261719 274.121094 152.621094 273.601562 152.960938 L 257.394531 163.679688 C 256.875 164.019531 256.328125 164.320312 255.753906 164.582031 C 255.179688 164.839844 254.621094 165.039062 254.074219 165.175781 C 253.53125 165.3125 253.042969 165.375 252.613281 165.367188 C 252.183594 165.359375 251.84375 165.28125 251.59375 165.132812 L 230.453125 152.488281 C 230.203125 152.339844 230.0625 152.128906 230.027344 151.859375 C 229.996094 151.589844 230.074219 151.28125 230.261719 150.933594 C 230.453125 150.585938 230.738281 150.222656 231.121094 149.847656 C 231.503906 149.476562 231.957031 149.117188 232.472656 148.773438 L 248.683594 138.058594 C 249.203125 137.714844 249.75 137.414062 250.324219 137.15625 C 250.898438 136.894531 251.457031 136.699219 252 136.5625 C 252.546875 136.425781 253.03125 136.359375 253.460938 136.367188 C 253.894531 136.375 254.234375 136.453125 254.484375 136.605469 " fill-opacity="1" fill-rule="nonzero"/><g mask="url(#c281e5820d)"><g transform="matrix(1, 0, 0, 1, 138, 135)"><g clip-path="url(#02d68f60bf)"><g clip-path="url(#4551c7b843)"><path fill="#ffffff" d="M 6.828125 1.785156 L 25.445312 12.714844 C 25.769531 12.902344 26.03125 13.097656 26.234375 13.296875 C 26.433594 13.5 26.558594 13.6875 26.605469 13.867188 C 26.65625 14.046875 26.625 14.199219 26.511719 14.332031 C 26.398438 14.460938 26.214844 14.558594 25.960938 14.621094 C 25.703125 14.683594 25.394531 14.707031 25.035156 14.691406 C 24.675781 14.679688 24.289062 14.625 23.878906 14.535156 C 23.472656 14.445312 23.066406 14.324219 22.671875 14.171875 C 22.273438 14.019531 21.914062 13.851562 21.589844 13.660156 L 2.972656 2.734375 C 2.648438 2.542969 2.386719 2.347656 2.183594 2.148438 C 1.984375 1.949219 1.859375 1.757812 1.808594 1.582031 C 1.761719 1.402344 1.792969 1.246094 1.90625 1.117188 C 2.019531 0.984375 2.203125 0.890625 2.457031 0.828125 C 2.714844 0.761719 3.023438 0.738281 3.382812 0.753906 C 3.742188 0.769531 4.128906 0.820312 4.535156 0.910156 C 4.945312 1 5.351562 1.121094 5.746094 1.273438 C 6.144531 1.425781 6.503906 1.597656 6.828125 1.785156 " fill-opacity="1" fill-rule="nonzero"/></g></g></g></g><g mask="url(#41d78d0088)"><g transform="matrix(1, 0, 0, 1, 110, 154)"><g clip-path="url(#922c392323)"><g clip-path="url(#48b2d7075a)"><path fill="#ffffff" d="M 7.035156 2.296875 L 25.652344 13.222656 C 25.976562 13.414062 26.238281 13.609375 26.441406 13.808594 C 26.640625 14.007812 26.765625 14.195312 26.8125 14.375 C 26.863281 14.554688 26.832031 14.710938 26.71875 14.839844 C 26.605469 14.96875 26.421875 15.066406 26.167969 15.128906 C 25.910156 15.191406 25.601562 15.21875 25.242188 15.203125 C 24.882812 15.1875 24.496094 15.136719 24.085938 15.042969 C 23.675781 14.953125 23.273438 14.835938 22.878906 14.683594 C 22.480469 14.53125 22.121094 14.359375 21.796875 14.167969 L 3.179688 3.242188 C 2.855469 3.050781 2.59375 2.859375 2.390625 2.65625 C 2.191406 2.457031 2.066406 2.269531 2.015625 2.089844 C 1.96875 1.910156 2 1.757812 2.113281 1.625 C 2.226562 1.496094 2.410156 1.398438 2.664062 1.335938 C 2.921875 1.273438 3.230469 1.25 3.589844 1.265625 C 3.949219 1.277344 4.332031 1.332031 4.742188 1.421875 C 5.152344 1.511719 5.558594 1.632812 5.953125 1.785156 C 6.351562 1.933594 6.710938 2.105469 7.035156 2.296875 " fill-opacity="1" fill-rule="nonzero"/></g></g></g></g><g mask="url(#4be75f7d0c)"><g transform="matrix(1, 0, 0, 1, 108, 185)"><g clip-path="url(#219379e600)"><g clip-path="url(#f1ba891e67)"><path fill="#ffffff" d="M 6.585938 1.519531 L 25.203125 12.445312 C 25.527344 12.636719 25.789062 12.832031 25.992188 13.03125 C 26.191406 13.230469 26.316406 13.417969 26.363281 13.597656 C 26.414062 13.777344 26.382812 13.929688 26.269531 14.0625 C 26.15625 14.191406 25.972656 14.289062 25.71875 14.351562 C 25.460938 14.414062 25.152344 14.4375 24.792969 14.425781 C 24.433594 14.410156 24.046875 14.355469 23.640625 14.265625 C 23.230469 14.175781 22.824219 14.054688 22.429688 13.90625 C 22.03125 13.753906 21.671875 13.582031 21.347656 13.390625 L 2.730469 2.464844 C 2.40625 2.273438 2.144531 2.078125 1.941406 1.878906 C 1.742188 1.679688 1.617188 1.492188 1.566406 1.3125 C 1.519531 1.132812 1.550781 0.980469 1.664062 0.847656 C 1.777344 0.71875 1.960938 0.621094 2.214844 0.558594 C 2.472656 0.496094 2.78125 0.472656 3.140625 0.484375 C 3.5 0.5 3.886719 0.554688 4.292969 0.644531 C 4.703125 0.734375 5.109375 0.855469 5.503906 1.007812 C 5.902344 1.15625 6.261719 1.328125 6.585938 1.519531 " fill-opacity="1" fill-rule="nonzero"/></g></g></g></g><g mask="url(#5826e3be8c)"><g transform="matrix(1, 0, 0, 1, 138, 173)"><g clip-path="url(#bbe8c3bc0f)"><g clip-path="url(#812233e3f6)"><path fill="#ffffff" d="M 7.558594 2.019531 L 26.175781 12.945312 C 26.496094 13.136719 26.761719 13.332031 26.960938 13.53125 C 27.164062 13.730469 27.289062 13.917969 27.335938 14.097656 C 27.382812 14.277344 27.351562 14.433594 27.242188 14.5625 C 27.128906 14.695312 26.945312 14.789062 26.6875 14.851562 C 26.433594 14.914062 26.125 14.941406 25.765625 14.925781 C 25.40625 14.910156 25.019531 14.859375 24.609375 14.769531 C 24.199219 14.679688 23.796875 14.558594 23.398438 14.40625 C 23.003906 14.253906 22.640625 14.082031 22.316406 13.894531 L 3.703125 2.964844 C 3.378906 2.773438 3.117188 2.582031 2.914062 2.378906 C 2.710938 2.179688 2.585938 1.992188 2.539062 1.8125 C 2.492188 1.632812 2.523438 1.480469 2.636719 1.347656 C 2.746094 1.21875 2.933594 1.121094 3.1875 1.058594 C 3.441406 0.996094 3.75 0.972656 4.109375 0.988281 C 4.472656 1 4.855469 1.054688 5.265625 1.144531 C 5.675781 1.234375 6.078125 1.355469 6.476562 1.507812 C 6.875 1.65625 7.234375 1.828125 7.558594 2.019531 " fill-opacity="1" fill-rule="nonzero"/></g></g></g></g><g mask="url(#3621810766)"><g transform="matrix(1, 0, 0, 1, 168, 191)"><g clip-path="url(#302d95a4dd)"><g clip-path="url(#718401eea7)"><path fill="#ffffff" d="M 6.960938 1.644531 L 25.574219 12.570312 C 25.898438 12.761719 26.164062 12.957031 26.363281 13.15625 C 26.566406 13.355469 26.691406 13.542969 26.738281 13.722656 C 26.785156 13.902344 26.753906 14.054688 26.640625 14.1875 C 26.53125 14.316406 26.347656 14.414062 26.089844 14.476562 C 25.835938 14.539062 25.527344 14.5625 25.167969 14.550781 C 24.804688 14.535156 24.421875 14.480469 24.011719 14.390625 C 23.601562 14.300781 23.199219 14.179688 22.800781 14.03125 C 22.40625 13.878906 22.042969 13.707031 21.71875 13.515625 L 3.105469 2.589844 C 2.78125 2.398438 2.515625 2.203125 2.316406 2.003906 C 2.113281 1.804688 1.988281 1.617188 1.941406 1.4375 C 1.894531 1.257812 1.925781 1.105469 2.039062 0.972656 C 2.148438 0.84375 2.332031 0.746094 2.589844 0.683594 C 2.84375 0.621094 3.152344 0.597656 3.511719 0.609375 C 3.875 0.625 4.257812 0.679688 4.667969 0.769531 C 5.078125 0.859375 5.480469 0.980469 5.878906 1.128906 C 6.273438 1.28125 6.636719 1.453125 6.960938 1.644531 " fill-opacity="1" fill-rule="nonzero"/></g></g></g></g><g mask="url(#1d8ba8a8f0)"><g transform="matrix(1, 0, 0, 1, 138, 204)"><g clip-path="url(#547cbfc555)"><path fill="#ffffff" d="M 7.144531 2.058594 L 25.761719 12.984375 C 26.085938 13.175781 26.347656 13.371094 26.550781 13.570312 C 26.753906 13.769531 26.875 13.957031 26.925781 14.136719 C 26.972656 14.316406 26.941406 14.472656 26.828125 14.601562 C 26.71875 14.730469 26.53125 14.828125 26.277344 14.890625 C 26.023438 14.953125 25.714844 14.976562 25.355469 14.964844 C 24.992188 14.949219 24.609375 14.898438 24.199219 14.804688 C 23.789062 14.714844 23.386719 14.59375 22.988281 14.445312 C 22.589844 14.292969 22.230469 14.121094 21.90625 13.929688 L 3.289062 3.003906 C 2.96875 2.8125 2.703125 2.621094 2.503906 2.417969 C 2.300781 2.21875 2.175781 2.03125 2.128906 1.851562 C 2.082031 1.671875 2.113281 1.519531 2.222656 1.386719 C 2.335938 1.257812 2.519531 1.160156 2.777344 1.097656 C 3.03125 1.035156 3.339844 1.011719 3.699219 1.023438 C 4.058594 1.039062 4.445312 1.09375 4.855469 1.183594 C 5.265625 1.273438 5.667969 1.394531 6.066406 1.546875 C 6.460938 1.695312 6.824219 1.867188 7.144531 2.058594 " fill-opacity="1" fill-rule="nonzero"/></g></g></g><g mask="url(#c1563bacc7)"><g transform="matrix(1, 0, 0, 1, 165, 220)"><g clip-path="url(#d25bd9e97b)"><g clip-path="url(#b599455557)"><path fill="#ffffff" d="M 7.511719 1.984375 L 26.128906 12.914062 C 26.453125 13.101562 26.714844 13.296875 26.917969 13.496094 C 27.117188 13.695312 27.242188 13.886719 27.292969 14.066406 C 27.339844 14.242188 27.308594 14.398438 27.195312 14.53125 C 27.082031 14.660156 26.898438 14.757812 26.644531 14.820312 C 26.386719 14.882812 26.082031 14.90625 25.71875 14.890625 C 25.359375 14.878906 24.976562 14.824219 24.566406 14.734375 C 24.15625 14.644531 23.753906 14.523438 23.355469 14.371094 C 22.957031 14.21875 22.597656 14.050781 22.273438 13.859375 L 3.65625 2.933594 C 3.332031 2.742188 3.070312 2.546875 2.871094 2.347656 C 2.667969 2.148438 2.542969 1.957031 2.496094 1.78125 C 2.445312 1.601562 2.480469 1.445312 2.589844 1.316406 C 2.703125 1.183594 2.886719 1.089844 3.144531 1.027344 C 3.398438 0.960938 3.707031 0.9375 4.066406 0.953125 C 4.425781 0.96875 4.8125 1.019531 5.222656 1.109375 C 5.632812 1.199219 6.035156 1.320312 6.433594 1.472656 C 6.828125 1.625 7.1875 1.796875 7.511719 1.984375 " fill-opacity="1" fill-rule="nonzero"/></g></g></g></g><g mask="url(#fb92209022)"><g transform="matrix(1, 0, 0, 1, 107, 213)"><g clip-path="url(#ccf3cf9719)"><path fill="#ffffff" d="M 7.589844 2.042969 L 26.203125 12.96875 C 26.527344 13.160156 26.792969 13.355469 26.992188 13.554688 C 27.195312 13.753906 27.320312 13.945312 27.367188 14.121094 C 27.414062 14.300781 27.382812 14.457031 27.269531 14.585938 C 27.160156 14.71875 26.976562 14.8125 26.71875 14.878906 C 26.464844 14.941406 26.15625 14.964844 25.796875 14.949219 C 25.433594 14.933594 25.050781 14.882812 24.640625 14.792969 C 24.230469 14.703125 23.828125 14.582031 23.429688 14.429688 C 23.035156 14.277344 22.671875 14.105469 22.347656 13.917969 L 3.734375 2.988281 C 3.410156 2.800781 3.144531 2.605469 2.945312 2.40625 C 2.742188 2.203125 2.617188 2.015625 2.570312 1.835938 C 2.523438 1.660156 2.554688 1.503906 2.667969 1.371094 C 2.777344 1.242188 2.960938 1.144531 3.21875 1.082031 C 3.472656 1.019531 3.78125 0.996094 4.140625 1.011719 C 4.5 1.023438 4.886719 1.078125 5.296875 1.167969 C 5.707031 1.257812 6.109375 1.378906 6.507812 1.53125 C 6.902344 1.683594 7.265625 1.851562 7.589844 2.042969 " fill-opacity="1" fill-rule="nonzero"/></g></g></g><g mask="url(#a5fb0a40dd)"><g transform="matrix(1, 0, 0, 1, 137, 232)"><g clip-path="url(#ff3a3f6656)"><g clip-path="url(#06ac290dc0)"><path fill="#ffffff" d="M 7.332031 1.890625 L 25.949219 12.820312 C 26.273438 13.007812 26.535156 13.203125 26.734375 13.402344 C 26.9375 13.601562 27.0625 13.792969 27.109375 13.972656 C 27.160156 14.148438 27.125 14.304688 27.015625 14.433594 C 26.902344 14.566406 26.71875 14.664062 26.460938 14.726562 C 26.207031 14.789062 25.898438 14.8125 25.539062 14.796875 C 25.179688 14.78125 24.792969 14.730469 24.382812 14.640625 C 23.972656 14.550781 23.570312 14.429688 23.171875 14.277344 C 22.777344 14.125 22.414062 13.953125 22.09375 13.765625 L 3.476562 2.835938 C 3.152344 2.648438 2.890625 2.453125 2.6875 2.253906 C 2.488281 2.054688 2.363281 1.863281 2.3125 1.683594 C 2.265625 1.507812 2.296875 1.351562 2.410156 1.222656 C 2.523438 1.089844 2.707031 0.992188 2.960938 0.929688 C 3.21875 0.867188 3.523438 0.84375 3.886719 0.859375 C 4.246094 0.875 4.628906 0.925781 5.039062 1.015625 C 5.449219 1.105469 5.851562 1.226562 6.25 1.378906 C 6.648438 1.53125 7.007812 1.699219 7.332031 1.890625 " fill-opacity="1" fill-rule="nonzero"/></g></g></g></g><g mask="url(#478ec27c50)"><g transform="matrix(1, 0, 0, 1, 166, 249)"><g clip-path="url(#29dbe0cc56)"><g clip-path="url(#901d74068c)"><path fill="#ffffff" d="M 7.335938 2.394531 L 25.949219 13.320312 C 26.273438 13.511719 26.535156 13.707031 26.738281 13.90625 C 26.941406 14.105469 27.066406 14.292969 27.113281 14.472656 C 27.160156 14.652344 27.128906 14.808594 27.015625 14.9375 C 26.90625 15.066406 26.71875 15.164062 26.464844 15.226562 C 26.210938 15.289062 25.902344 15.316406 25.542969 15.300781 C 25.179688 15.285156 24.796875 15.234375 24.386719 15.144531 C 23.976562 15.050781 23.574219 14.933594 23.175781 14.78125 C 22.777344 14.628906 22.417969 14.457031 22.09375 14.265625 L 3.476562 3.339844 C 3.15625 3.148438 2.890625 2.957031 2.691406 2.753906 C 2.488281 2.554688 2.363281 2.367188 2.316406 2.1875 C 2.269531 2.007812 2.300781 1.855469 2.410156 1.722656 C 2.523438 1.59375 2.707031 1.496094 2.964844 1.433594 C 3.21875 1.371094 3.527344 1.347656 3.886719 1.363281 C 4.246094 1.375 4.632812 1.429688 5.042969 1.519531 C 5.453125 1.609375 5.855469 1.730469 6.253906 1.882812 C 6.648438 2.03125 7.011719 2.203125 7.335938 2.394531 " fill-opacity="1" fill-rule="nonzero"/></g></g></g></g><g mask="url(#edfbf5c0d1)"><g transform="matrix(1, 0, 0, 1, 167, 153)"><g clip-path="url(#087d8b9b2b)"><path fill="#ffffff" d="M 7.144531 2.070312 L 25.761719 13 C 26.085938 13.1875 26.347656 13.382812 26.550781 13.582031 C 26.75 13.78125 26.875 13.972656 26.925781 14.152344 C 26.972656 14.328125 26.941406 14.484375 26.828125 14.613281 C 26.714844 14.746094 26.53125 14.84375 26.277344 14.90625 C 26.019531 14.96875 25.710938 14.992188 25.351562 14.976562 C 24.992188 14.960938 24.609375 14.910156 24.199219 14.820312 C 23.789062 14.730469 23.382812 14.609375 22.988281 14.457031 C 22.589844 14.304688 22.230469 14.136719 21.90625 13.945312 L 3.289062 3.019531 C 2.964844 2.828125 2.703125 2.632812 2.5 2.433594 C 2.300781 2.234375 2.175781 2.042969 2.128906 1.867188 C 2.078125 1.6875 2.109375 1.53125 2.222656 1.402344 C 2.335938 1.269531 2.519531 1.171875 2.773438 1.109375 C 3.03125 1.046875 3.339844 1.023438 3.699219 1.039062 C 4.058594 1.054688 4.445312 1.105469 4.855469 1.195312 C 5.261719 1.285156 5.667969 1.40625 6.0625 1.558594 C 6.460938 1.710938 6.820312 1.882812 7.144531 2.070312 " fill-opacity="1" fill-rule="nonzero"/></g></g></g><g mask="url(#8ec1b9455e)"><g transform="matrix(1, 0, 0, 1, 167, 117)"><g clip-path="url(#ce10878ad5)"><g clip-path="url(#072090945c)"><path fill="#ffffff" d="M 6.738281 1.722656 L 25.355469 12.652344 C 25.675781 12.84375 25.941406 13.035156 26.140625 13.238281 C 26.34375 13.4375 26.46875 13.625 26.515625 13.804688 C 26.5625 13.984375 26.53125 14.136719 26.421875 14.269531 C 26.308594 14.398438 26.125 14.496094 25.867188 14.558594 C 25.613281 14.621094 25.304688 14.644531 24.945312 14.628906 C 24.585938 14.617188 24.199219 14.5625 23.789062 14.472656 C 23.378906 14.382812 22.976562 14.261719 22.578125 14.109375 C 22.183594 13.960938 21.820312 13.789062 21.496094 13.597656 L 2.882812 2.671875 C 2.558594 2.480469 2.296875 2.285156 2.09375 2.085938 C 1.890625 1.886719 1.769531 1.699219 1.71875 1.519531 C 1.671875 1.339844 1.703125 1.183594 1.816406 1.054688 C 1.925781 0.921875 2.113281 0.828125 2.367188 0.765625 C 2.621094 0.703125 2.929688 0.675781 3.289062 0.691406 C 3.652344 0.707031 4.035156 0.757812 4.445312 0.847656 C 4.855469 0.9375 5.257812 1.058594 5.65625 1.210938 C 6.054688 1.363281 6.414062 1.535156 6.738281 1.722656 " fill-opacity="1" fill-rule="nonzero"/></g></g></g></g><g mask="url(#146974b406)"><g transform="matrix(1, 0, 0, 1, 197, 134)"><g clip-path="url(#3592692151)"><g clip-path="url(#0994353f16)"><path fill="#ffffff" d="M 7.429688 2.222656 L 26.046875 13.148438 C 26.371094 13.339844 26.632812 13.535156 26.835938 13.734375 C 27.035156 13.933594 27.160156 14.125 27.210938 14.300781 C 27.257812 14.480469 27.226562 14.636719 27.113281 14.765625 C 27 14.898438 26.816406 14.992188 26.5625 15.054688 C 26.304688 15.121094 26 15.144531 25.636719 15.128906 C 25.277344 15.113281 24.894531 15.0625 24.484375 14.972656 C 24.074219 14.882812 23.671875 14.761719 23.273438 14.609375 C 22.875 14.457031 22.515625 14.285156 22.191406 14.097656 L 3.574219 3.167969 C 3.25 2.980469 2.988281 2.785156 2.789062 2.585938 C 2.585938 2.382812 2.460938 2.195312 2.414062 2.015625 C 2.363281 1.835938 2.398438 1.683594 2.507812 1.550781 C 2.621094 1.421875 2.804688 1.324219 3.0625 1.261719 C 3.316406 1.199219 3.625 1.175781 3.984375 1.191406 C 4.34375 1.203125 4.730469 1.257812 5.140625 1.347656 C 5.550781 1.4375 5.953125 1.558594 6.351562 1.710938 C 6.746094 1.863281 7.105469 2.03125 7.429688 2.222656 " fill-opacity="1" fill-rule="nonzero"/></g></g></g></g><g mask="url(#3e6382ef6c)"><g transform="matrix(1, 0, 0, 1, 227, 152)"><g clip-path="url(#42a0157d00)"><g clip-path="url(#a3f299dd63)"><path fill="#ffffff" d="M 6.835938 1.847656 L 25.453125 12.773438 C 25.777344 12.964844 26.039062 13.15625 26.242188 13.359375 C 26.441406 13.558594 26.566406 13.746094 26.617188 13.925781 C 26.664062 14.105469 26.632812 14.257812 26.519531 14.390625 C 26.40625 14.519531 26.222656 14.617188 25.96875 14.679688 C 25.710938 14.742188 25.402344 14.765625 25.042969 14.753906 C 24.683594 14.738281 24.300781 14.683594 23.890625 14.59375 C 23.480469 14.503906 23.074219 14.382812 22.679688 14.230469 C 22.28125 14.082031 21.921875 13.910156 21.597656 13.71875 L 2.980469 2.792969 C 2.65625 2.601562 2.394531 2.40625 2.191406 2.207031 C 1.992188 2.007812 1.867188 1.820312 1.820312 1.640625 C 1.769531 1.460938 1.800781 1.304688 1.914062 1.175781 C 2.027344 1.046875 2.210938 0.949219 2.464844 0.886719 C 2.722656 0.824219 3.03125 0.800781 3.390625 0.8125 C 3.75 0.828125 4.136719 0.878906 4.546875 0.972656 C 4.953125 1.0625 5.359375 1.183594 5.753906 1.332031 C 6.152344 1.484375 6.511719 1.65625 6.835938 1.847656 " fill-opacity="1" fill-rule="nonzero"/></g></g></g></g><g mask="url(#6dcca5a350)"><g transform="matrix(1, 0, 0, 1, 198, 171)"><g clip-path="url(#4960642de1)"><g clip-path="url(#ad59145fc1)"><path fill="#ffffff" d="M 7.25 1.976562 L 25.867188 12.90625 C 26.191406 13.097656 26.453125 13.289062 26.652344 13.492188 C 26.855469 13.691406 26.980469 13.878906 27.027344 14.058594 C 27.078125 14.238281 27.042969 14.390625 26.933594 14.523438 C 26.820312 14.652344 26.636719 14.75 26.378906 14.8125 C 26.125 14.875 25.816406 14.898438 25.457031 14.882812 C 25.097656 14.871094 24.710938 14.816406 24.300781 14.726562 C 23.890625 14.636719 23.488281 14.515625 23.089844 14.363281 C 22.695312 14.214844 22.335938 14.042969 22.011719 13.851562 L 3.394531 2.925781 C 3.070312 2.734375 2.808594 2.539062 2.605469 2.339844 C 2.40625 2.140625 2.28125 1.953125 2.230469 1.773438 C 2.183594 1.59375 2.214844 1.4375 2.328125 1.308594 C 2.441406 1.175781 2.625 1.082031 2.878906 1.019531 C 3.136719 0.957031 3.441406 0.929688 3.804688 0.945312 C 4.164062 0.960938 4.546875 1.011719 4.957031 1.101562 C 5.367188 1.195312 5.769531 1.3125 6.167969 1.464844 C 6.566406 1.617188 6.925781 1.789062 7.25 1.976562 " fill-opacity="1" fill-rule="nonzero"/></g></g></g></g><g mask="url(#87ffc24123)"><g transform="matrix(1, 0, 0, 1, 251, 194)"><g clip-path="url(#568dcba51c)"><path fill="#ffffff" d="M 4.816406 4.792969 C 4.6875 5.152344 4.527344 5.480469 4.332031 5.78125 C 4.136719 6.085938 3.921875 6.335938 3.6875 6.539062 C 3.453125 6.738281 3.21875 6.875 2.980469 6.945312 C 2.746094 7.015625 2.523438 7.015625 2.320312 6.941406 C 2.117188 6.867188 1.945312 6.730469 1.804688 6.527344 C 1.664062 6.324219 1.566406 6.070312 1.511719 5.765625 C 1.457031 5.460938 1.449219 5.132812 1.488281 4.773438 C 1.527344 4.414062 1.609375 4.058594 1.734375 3.699219 C 1.863281 3.34375 2.023438 3.015625 2.21875 2.710938 C 2.414062 2.410156 2.628906 2.15625 2.863281 1.957031 C 3.097656 1.753906 3.332031 1.617188 3.570312 1.550781 C 3.804688 1.480469 4.027344 1.480469 4.230469 1.554688 C 4.433594 1.625 4.609375 1.761719 4.746094 1.96875 C 4.886719 2.171875 4.984375 2.425781 5.039062 2.726562 C 5.09375 3.03125 5.101562 3.363281 5.0625 3.722656 C 5.023438 4.078125 4.941406 4.4375 4.816406 4.792969 Z M 4.816406 4.792969 " fill-opacity="1" fill-rule="nonzero"/></g></g></g><g mask="url(#9b600c229e)"><g transform="matrix(1, 0, 0, 1, 222, 214)"><g clip-path="url(#e4115bb3f7)"><path fill="#ffffff" d="M 5.226562 4.589844 C 5.101562 4.945312 4.941406 5.273438 4.746094 5.578125 C 4.550781 5.878906 4.335938 6.132812 4.101562 6.332031 C 3.867188 6.535156 3.632812 6.671875 3.394531 6.738281 C 3.15625 6.808594 2.9375 6.808594 2.730469 6.734375 C 2.527344 6.664062 2.355469 6.527344 2.214844 6.320312 C 2.074219 6.117188 1.976562 5.863281 1.921875 5.5625 C 1.867188 5.257812 1.859375 4.925781 1.898438 4.570312 C 1.9375 4.210938 2.023438 3.851562 2.148438 3.496094 C 2.273438 3.136719 2.4375 2.808594 2.632812 2.507812 C 2.828125 2.203125 3.042969 1.953125 3.273438 1.75 C 3.507812 1.550781 3.746094 1.414062 3.980469 1.34375 C 4.21875 1.273438 4.441406 1.273438 4.644531 1.347656 C 4.847656 1.421875 5.019531 1.558594 5.160156 1.761719 C 5.300781 1.964844 5.398438 2.21875 5.453125 2.523438 C 5.507812 2.828125 5.515625 3.15625 5.476562 3.515625 C 5.4375 3.875 5.355469 4.230469 5.226562 4.589844 Z M 5.226562 4.589844 " fill-opacity="1" fill-rule="nonzero"/></g></g></g><g mask="url(#d0f3eb10a4)"><g transform="matrix(1, 0, 0, 1, 222, 243)"><g clip-path="url(#0e49601e6f)"><g clip-path="url(#ea033b4230)"><path fill="#ffffff" d="M 4.820312 4.800781 C 4.691406 5.15625 4.53125 5.488281 4.335938 5.789062 C 4.140625 6.09375 3.925781 6.34375 3.691406 6.546875 C 3.457031 6.746094 3.222656 6.882812 2.984375 6.953125 C 2.75 7.023438 2.527344 7.019531 2.324219 6.949219 C 2.121094 6.875 1.949219 6.738281 1.808594 6.535156 C 1.667969 6.332031 1.570312 6.078125 1.515625 5.773438 C 1.460938 5.46875 1.453125 5.136719 1.492188 4.78125 C 1.53125 4.421875 1.613281 4.066406 1.738281 3.707031 C 1.867188 3.351562 2.027344 3.019531 2.222656 2.71875 C 2.417969 2.417969 2.632812 2.164062 2.867188 1.964844 C 3.101562 1.761719 3.335938 1.625 3.574219 1.554688 C 3.8125 1.484375 4.03125 1.488281 4.234375 1.558594 C 4.441406 1.632812 4.613281 1.769531 4.75 1.972656 C 4.890625 2.179688 4.988281 2.429688 5.042969 2.734375 C 5.097656 3.039062 5.105469 3.371094 5.066406 3.726562 C 5.027344 4.085938 4.945312 4.441406 4.820312 4.800781 Z M 4.820312 4.800781 " fill-opacity="1" fill-rule="nonzero"/></g></g></g></g><g mask="url(#6f2b1d8eb4)"><g transform="matrix(1, 0, 0, 1, 252, 222)"><g clip-path="url(#140ee21bee)"><g clip-path="url(#f06a9e881d)"><path fill="#ffffff" d="M 4.582031 4.972656 C 4.457031 5.328125 4.296875 5.660156 4.101562 5.960938 C 3.90625 6.265625 3.691406 6.515625 3.457031 6.71875 C 3.222656 6.917969 2.988281 7.054688 2.75 7.125 C 2.511719 7.195312 2.292969 7.191406 2.085938 7.121094 C 1.882812 7.046875 1.710938 6.910156 1.570312 6.707031 C 1.429688 6.503906 1.332031 6.25 1.277344 5.945312 C 1.222656 5.640625 1.214844 5.3125 1.253906 4.953125 C 1.292969 4.59375 1.378906 4.238281 1.503906 3.878906 C 1.628906 3.523438 1.792969 3.191406 1.988281 2.890625 C 2.183594 2.589844 2.398438 2.335938 2.628906 2.136719 C 2.863281 1.933594 3.101562 1.796875 3.335938 1.726562 C 3.574219 1.660156 3.796875 1.660156 4 1.730469 C 4.203125 1.804688 4.375 1.941406 4.515625 2.144531 C 4.65625 2.351562 4.753906 2.601562 4.808594 2.90625 C 4.863281 3.210938 4.871094 3.542969 4.832031 3.898438 C 4.792969 4.257812 4.710938 4.613281 4.582031 4.972656 Z M 4.582031 4.972656 " fill-opacity="1" fill-rule="nonzero"/></g></g></g></g><g mask="url(#f5830c2722)"><g transform="matrix(1, 0, 0, 1, 194, 233)"><g clip-path="url(#d6fedb7fd5)"><path fill="#ffffff" d="M 5.046875 4.589844 C 4.921875 4.949219 4.761719 5.277344 4.566406 5.582031 C 4.371094 5.882812 4.15625 6.132812 3.921875 6.335938 C 3.6875 6.539062 3.453125 6.671875 3.214844 6.742188 C 2.976562 6.8125 2.757812 6.8125 2.554688 6.738281 C 2.347656 6.667969 2.175781 6.527344 2.035156 6.324219 C 1.898438 6.121094 1.800781 5.867188 1.746094 5.5625 C 1.691406 5.257812 1.683594 4.929688 1.722656 4.570312 C 1.761719 4.214844 1.84375 3.855469 1.96875 3.5 C 2.097656 3.140625 2.257812 2.8125 2.453125 2.507812 C 2.648438 2.207031 2.863281 1.953125 3.097656 1.753906 C 3.332031 1.550781 3.566406 1.417969 3.804688 1.347656 C 4.039062 1.277344 4.261719 1.277344 4.464844 1.351562 C 4.667969 1.421875 4.839844 1.5625 4.980469 1.765625 C 5.121094 1.96875 5.21875 2.222656 5.273438 2.527344 C 5.328125 2.828125 5.335938 3.160156 5.296875 3.519531 C 5.257812 3.875 5.175781 4.234375 5.046875 4.589844 Z M 5.046875 4.589844 " fill-opacity="1" fill-rule="nonzero"/></g></g></g><g mask="url(#90b5a2629a)"><g transform="matrix(1, 0, 0, 1, 193, 262)"><g clip-path="url(#4caad64592)"><g clip-path="url(#1000722e6a)"><path fill="#ffffff" d="M 4.773438 4.996094 C 4.648438 5.351562 4.488281 5.683594 4.292969 5.984375 C 4.097656 6.285156 3.882812 6.539062 3.648438 6.738281 C 3.414062 6.941406 3.179688 7.078125 2.941406 7.148438 C 2.703125 7.214844 2.484375 7.214844 2.277344 7.144531 C 2.074219 7.070312 1.902344 6.933594 1.761719 6.730469 C 1.621094 6.523438 1.523438 6.273438 1.46875 5.96875 C 1.414062 5.664062 1.40625 5.332031 1.445312 4.976562 C 1.484375 4.617188 1.570312 4.261719 1.695312 3.902344 C 1.820312 3.546875 1.984375 3.214844 2.179688 2.914062 C 2.375 2.609375 2.589844 2.359375 2.820312 2.15625 C 3.054688 1.957031 3.292969 1.820312 3.527344 1.75 C 3.765625 1.679688 3.988281 1.683594 4.191406 1.753906 C 4.394531 1.828125 4.566406 1.964844 4.707031 2.167969 C 4.847656 2.371094 4.945312 2.625 5 2.929688 C 5.054688 3.234375 5.0625 3.566406 5.023438 3.921875 C 4.984375 4.28125 4.902344 4.636719 4.773438 4.996094 Z M 4.773438 4.996094 " fill-opacity="1" fill-rule="nonzero"/></g></g></g></g><g mask="url(#90de1433b4)"><g transform="matrix(1, 0, 0, 1, 194, 187)"><g clip-path="url(#c7f52913b9)"><path fill="#ffffff" d="M 4.5 13.828125 L 22.691406 2.210938 C 23.007812 2.007812 23.300781 1.863281 23.570312 1.773438 C 23.839844 1.683594 24.066406 1.660156 24.246094 1.699219 C 24.429688 1.738281 24.550781 1.835938 24.617188 1.996094 C 24.683594 2.152344 24.683594 2.363281 24.625 2.617188 C 24.5625 2.875 24.445312 3.160156 24.269531 3.472656 C 24.09375 3.789062 23.871094 4.105469 23.605469 4.429688 C 23.339844 4.753906 23.046875 5.058594 22.730469 5.34375 C 22.417969 5.628906 22.101562 5.871094 21.785156 6.074219 L 3.589844 17.695312 C 3.273438 17.894531 2.980469 18.042969 2.710938 18.128906 C 2.441406 18.21875 2.21875 18.242188 2.035156 18.207031 C 1.855469 18.167969 1.730469 18.070312 1.667969 17.910156 C 1.601562 17.75 1.597656 17.542969 1.660156 17.285156 C 1.71875 17.03125 1.835938 16.746094 2.015625 16.429688 C 2.191406 16.117188 2.414062 15.796875 2.679688 15.472656 C 2.945312 15.148438 3.234375 14.84375 3.550781 14.558594 C 3.867188 14.273438 4.183594 14.03125 4.5 13.828125 " fill-opacity="1" fill-rule="nonzero"/></g></g></g><g mask="url(#62b9fd2efb)"><g transform="matrix(1, 0, 0, 1, 224, 168)"><g clip-path="url(#4f98b048c0)"><path fill="#ffffff" d="M 4.570312 14.71875 L 22.765625 3.097656 C 23.082031 2.898438 23.375 2.75 23.640625 2.664062 C 23.910156 2.574219 24.136719 2.546875 24.320312 2.585938 C 24.5 2.625 24.621094 2.722656 24.6875 2.882812 C 24.753906 3.042969 24.757812 3.25 24.695312 3.507812 C 24.636719 3.761719 24.515625 4.046875 24.339844 4.363281 C 24.164062 4.675781 23.941406 4.996094 23.675781 5.320312 C 23.410156 5.644531 23.117188 5.949219 22.804688 6.234375 C 22.488281 6.519531 22.171875 6.761719 21.855469 6.964844 L 3.664062 18.582031 C 3.347656 18.785156 3.054688 18.929688 2.785156 19.019531 C 2.515625 19.109375 2.289062 19.132812 2.109375 19.09375 C 1.925781 19.054688 1.804688 18.957031 1.738281 18.796875 C 1.671875 18.640625 1.667969 18.429688 1.730469 18.175781 C 1.789062 17.917969 1.910156 17.632812 2.085938 17.320312 C 2.261719 17.003906 2.484375 16.6875 2.75 16.363281 C 3.015625 16.039062 3.308594 15.734375 3.625 15.449219 C 3.9375 15.164062 4.253906 14.921875 4.570312 14.71875 " fill-opacity="1" fill-rule="nonzero"/></g></g></g><g mask="url(#aa8e512495)"><g transform="matrix(1, 0, 0, 1, 253, 149)"><g clip-path="url(#8634410dbd)"><path fill="#ffffff" d="M 4.339844 14.328125 L 22.535156 2.707031 C 22.851562 2.503906 23.144531 2.359375 23.410156 2.269531 C 23.679688 2.183594 23.90625 2.15625 24.085938 2.195312 C 24.269531 2.234375 24.390625 2.332031 24.457031 2.492188 C 24.523438 2.652344 24.527344 2.859375 24.464844 3.117188 C 24.40625 3.371094 24.285156 3.65625 24.109375 3.972656 C 23.933594 4.285156 23.710938 4.605469 23.445312 4.929688 C 23.179688 5.253906 22.886719 5.558594 22.574219 5.84375 C 22.257812 6.125 21.941406 6.371094 21.625 6.574219 L 3.433594 18.191406 C 3.117188 18.394531 2.824219 18.539062 2.554688 18.628906 C 2.285156 18.714844 2.058594 18.742188 1.878906 18.703125 C 1.695312 18.664062 1.574219 18.566406 1.507812 18.40625 C 1.441406 18.246094 1.4375 18.039062 1.5 17.785156 C 1.558594 17.527344 1.679688 17.242188 1.855469 16.929688 C 2.03125 16.613281 2.253906 16.292969 2.519531 15.96875 C 2.785156 15.648438 3.078125 15.34375 3.394531 15.058594 C 3.707031 14.773438 4.023438 14.527344 4.339844 14.328125 " fill-opacity="1" fill-rule="nonzero"/></g></g></g><g mask="url(#f8246bd81c)"><g transform="matrix(1, 0, 0, 1, 166, 132)"><g clip-path="url(#0296da568e)"><g clip-path="url(#549e06d23a)"><path fill="#ffffff" d="M 3.761719 14.171875 L 21.953125 2.554688 C 22.269531 2.351562 22.5625 2.207031 22.832031 2.117188 C 23.101562 2.027344 23.328125 2.003906 23.507812 2.042969 C 23.691406 2.078125 23.8125 2.179688 23.878906 2.335938 C 23.945312 2.496094 23.949219 2.703125 23.886719 2.960938 C 23.828125 3.21875 23.707031 3.503906 23.53125 3.816406 C 23.355469 4.128906 23.132812 4.449219 22.867188 4.773438 C 22.601562 5.097656 22.308594 5.402344 21.992188 5.6875 C 21.679688 5.972656 21.363281 6.214844 21.046875 6.417969 L 2.851562 18.035156 C 2.535156 18.238281 2.242188 18.382812 1.972656 18.472656 C 1.707031 18.5625 1.480469 18.585938 1.296875 18.546875 C 1.117188 18.511719 0.996094 18.410156 0.929688 18.253906 C 0.863281 18.09375 0.859375 17.886719 0.921875 17.628906 C 0.980469 17.371094 1.101562 17.085938 1.277344 16.773438 C 1.453125 16.460938 1.675781 16.140625 1.941406 15.816406 C 2.207031 15.492188 2.5 15.1875 2.8125 14.902344 C 3.128906 14.617188 3.445312 14.375 3.761719 14.171875 " fill-opacity="1" fill-rule="nonzero"/></g></g></g></g><g mask="url(#30eec0bf21)"><g transform="matrix(1, 0, 0, 1, 137, 151)"><g clip-path="url(#e79d8b22c6)"><g clip-path="url(#b53ffdcb26)"><path fill="#ffffff" d="M 3.765625 14.367188 L 21.960938 2.746094 C 22.277344 2.546875 22.570312 2.398438 22.839844 2.3125 C 23.109375 2.222656 23.332031 2.195312 23.515625 2.234375 C 23.695312 2.273438 23.820312 2.371094 23.882812 2.53125 C 23.949219 2.691406 23.953125 2.898438 23.890625 3.15625 C 23.832031 3.410156 23.714844 3.695312 23.535156 4.011719 C 23.359375 4.324219 23.136719 4.644531 22.871094 4.96875 C 22.605469 5.292969 22.3125 5.597656 22 5.882812 C 21.683594 6.167969 21.367188 6.410156 21.050781 6.613281 L 2.859375 18.230469 C 2.542969 18.433594 2.25 18.578125 1.980469 18.667969 C 1.710938 18.757812 1.484375 18.78125 1.304688 18.742188 C 1.121094 18.703125 1 18.605469 0.933594 18.445312 C 0.867188 18.285156 0.867188 18.078125 0.925781 17.824219 C 0.984375 17.566406 1.105469 17.28125 1.28125 16.96875 C 1.457031 16.652344 1.679688 16.335938 1.945312 16.011719 C 2.210938 15.6875 2.503906 15.382812 2.820312 15.097656 C 3.132812 14.8125 3.449219 14.566406 3.765625 14.367188 " fill-opacity="1" fill-rule="nonzero"/></g></g></g></g><g mask="url(#7bc7b5748d)"><g transform="matrix(1, 0, 0, 1, 193, 114)"><g clip-path="url(#7b2a686f1e)"><path fill="#ffffff" d="M 4.125 14.203125 L 22.316406 2.585938 C 22.632812 2.382812 22.925781 2.238281 23.195312 2.148438 C 23.464844 2.058594 23.691406 2.035156 23.871094 2.074219 C 24.050781 2.109375 24.175781 2.210938 24.242188 2.371094 C 24.304688 2.527344 24.308594 2.738281 24.25 2.992188 C 24.1875 3.25 24.070312 3.535156 23.894531 3.847656 C 23.714844 4.164062 23.496094 4.480469 23.226562 4.804688 C 22.960938 5.128906 22.671875 5.433594 22.355469 5.71875 C 22.039062 6.003906 21.722656 6.246094 21.40625 6.449219 L 3.214844 18.070312 C 2.898438 18.269531 2.605469 18.417969 2.335938 18.503906 C 2.066406 18.59375 1.839844 18.617188 1.660156 18.582031 C 1.480469 18.542969 1.355469 18.445312 1.289062 18.285156 C 1.226562 18.125 1.222656 17.917969 1.28125 17.660156 C 1.34375 17.402344 1.460938 17.117188 1.636719 16.804688 C 1.816406 16.492188 2.035156 16.171875 2.304688 15.847656 C 2.570312 15.523438 2.859375 15.21875 3.175781 14.933594 C 3.492188 14.648438 3.808594 14.40625 4.125 14.203125 " fill-opacity="1" fill-rule="nonzero"/></g></g></g><g mask="url(#f968944c84)"><g transform="matrix(1, 0, 0, 1, 167, 169)"><g clip-path="url(#ccf37f20be)"><g clip-path="url(#fc0d5d0308)"><path fill="#ffffff" d="M 3.761719 13.71875 L 21.953125 2.101562 C 22.269531 1.898438 22.5625 1.753906 22.832031 1.664062 C 23.101562 1.574219 23.328125 1.550781 23.507812 1.585938 C 23.6875 1.625 23.8125 1.726562 23.878906 1.882812 C 23.945312 2.042969 23.945312 2.25 23.886719 2.507812 C 23.824219 2.765625 23.707031 3.050781 23.53125 3.363281 C 23.351562 3.675781 23.132812 3.996094 22.867188 4.320312 C 22.597656 4.644531 22.308594 4.949219 21.992188 5.234375 C 21.675781 5.519531 21.359375 5.761719 21.042969 5.964844 L 2.851562 17.582031 C 2.535156 17.785156 2.242188 17.929688 1.972656 18.019531 C 1.703125 18.109375 1.480469 18.132812 1.296875 18.09375 C 1.117188 18.058594 0.992188 17.957031 0.925781 17.800781 C 0.863281 17.640625 0.859375 17.433594 0.917969 17.175781 C 0.980469 16.917969 1.097656 16.632812 1.273438 16.320312 C 1.453125 16.007812 1.671875 15.6875 1.941406 15.363281 C 2.207031 15.039062 2.496094 14.734375 2.8125 14.449219 C 3.128906 14.164062 3.445312 13.921875 3.761719 13.71875 " fill-opacity="1" fill-rule="nonzero"/></g></g></g></g><g mask="url(#180aec88ed)"><g transform="matrix(1, 0, 0, 1, 194, 151)"><g clip-path="url(#e26a6e0090)"><g clip-path="url(#029802fe54)"><path fill="#ffffff" d="M 4.121094 13.75 L 22.316406 2.132812 C 22.632812 1.929688 22.925781 1.785156 23.195312 1.695312 C 23.464844 1.605469 23.6875 1.582031 23.871094 1.621094 C 24.050781 1.65625 24.175781 1.757812 24.238281 1.914062 C 24.304688 2.074219 24.308594 2.285156 24.246094 2.539062 C 24.1875 2.796875 24.070312 3.082031 23.890625 3.394531 C 23.714844 3.710938 23.492188 4.027344 23.226562 4.351562 C 22.960938 4.675781 22.667969 4.980469 22.355469 5.265625 C 22.039062 5.550781 21.722656 5.792969 21.40625 5.996094 L 3.214844 17.617188 C 2.898438 17.816406 2.605469 17.964844 2.335938 18.050781 C 2.066406 18.140625 1.839844 18.164062 1.660156 18.128906 C 1.476562 18.089844 1.355469 17.988281 1.289062 17.832031 C 1.222656 17.671875 1.222656 17.464844 1.28125 17.207031 C 1.339844 16.949219 1.460938 16.664062 1.636719 16.351562 C 1.8125 16.039062 2.035156 15.71875 2.300781 15.394531 C 2.566406 15.070312 2.859375 14.765625 3.175781 14.480469 C 3.488281 14.195312 3.804688 13.953125 4.121094 13.75 " fill-opacity="1" fill-rule="nonzero"/></g></g></g></g><g mask="url(#0b29c5ea36)"><g transform="matrix(1, 0, 0, 1, 224, 131)"><g clip-path="url(#9686195dec)"><g clip-path="url(#e391e3cbad)"><path fill="#ffffff" d="M 3.753906 13.738281 L 21.945312 2.117188 C 22.265625 1.917969 22.554688 1.769531 22.824219 1.683594 C 23.09375 1.59375 23.320312 1.566406 23.5 1.605469 C 23.683594 1.644531 23.804688 1.742188 23.871094 1.902344 C 23.9375 2.0625 23.941406 2.269531 23.878906 2.527344 C 23.820312 2.78125 23.699219 3.066406 23.523438 3.382812 C 23.347656 3.695312 23.125 4.015625 22.859375 4.339844 C 22.59375 4.664062 22.300781 4.96875 21.988281 5.253906 C 21.671875 5.539062 21.355469 5.78125 21.039062 5.984375 L 2.847656 17.601562 C 2.53125 17.804688 2.238281 17.949219 1.96875 18.039062 C 1.699219 18.128906 1.472656 18.152344 1.292969 18.113281 C 1.109375 18.074219 0.988281 17.976562 0.921875 17.816406 C 0.855469 17.65625 0.851562 17.449219 0.914062 17.195312 C 0.972656 16.9375 1.09375 16.652344 1.269531 16.339844 C 1.445312 16.023438 1.667969 15.707031 1.933594 15.382812 C 2.199219 15.058594 2.492188 14.753906 2.808594 14.46875 C 3.121094 14.183594 3.4375 13.9375 3.753906 13.738281 " fill-opacity="1" fill-rule="nonzero"/></g></g></g></g></svg>