<svg xmlns="http://www.w3.org/2000/svg" xmlns:xlink="http://www.w3.org/1999/xlink" width="500" zoomAndPan="magnify" viewBox="0 0 375 374.999991" height="500" preserveAspectRatio="xMidYMid meet" version="1.0"><metadata><ContainsAiGeneratedContent>Yes</ContainsAiGeneratedContent></metadata><path fill="#2db3ef" d="M 100.421875 298.679688 C 134.957031 302.371094 234.9375 302.371094 269.476562 298.679688 C 283.550781 297.046875 297.046875 283.550781 298.679688 269.476562 C 302.371094 234.9375 302.371094 134.957031 298.679688 100.421875 C 297.046875 86.347656 283.550781 72.847656 269.476562 71.214844 C 234.9375 67.539062 134.957031 67.539062 100.421875 71.214844 C 86.347656 72.847656 72.847656 86.347656 71.214844 100.421875 C 67.539062 134.957031 67.539062 234.9375 71.214844 269.472656 C 72.847656 283.550781 86.347656 297.046875 100.421875 298.679688 Z M 100.421875 298.679688 " fill-opacity="1" fill-rule="nonzero"/><path fill="#2db3ef" d="M 100.421875 71.214844 C 86.347656 72.847656 72.847656 86.347656 71.214844 100.421875 C 68.335938 127.402344 67.703125 194.335938 69.320312 238.792969 C 77.761719 242.777344 86.539062 245.785156 95.648438 247.820312 C 104.757812 249.855469 113.980469 250.867188 123.3125 250.851562 C 193.226562 250.851562 249.902344 194.175781 249.902344 124.269531 C 249.914062 114.746094 248.859375 105.34375 246.742188 96.058594 C 244.625 86.777344 241.492188 77.847656 237.351562 69.273438 C 192.898438 67.714844 127.113281 68.363281 100.421875 71.214844 Z M 100.421875 71.214844 " fill-opacity="1" fill-rule="nonzero"/><path fill="#eff7f9" d="M 197.945312 228.402344 L 165.179688 228.402344 L 165.179688 208.882812 C 165.179688 206.707031 165.59375 204.617188 166.425781 202.609375 C 167.257812 200.601562 168.441406 198.832031 169.976562 197.292969 L 180.175781 187.101562 C 181.710938 185.5625 183.488281 184.378906 185.496094 183.546875 C 187.507812 182.714844 189.597656 182.296875 191.773438 182.300781 L 217.09375 182.300781 L 217.09375 152.382812 L 214.40625 149.695312 L 156.277344 149.695312 L 152.828125 153.144531 L 152.828125 175.898438 L 120.0625 175.898438 L 120.0625 146.359375 C 120.0625 144.183594 120.480469 142.09375 121.3125 140.085938 C 122.144531 138.078125 123.328125 136.308594 124.863281 134.773438 L 137.90625 121.730469 C 139.441406 120.191406 141.214844 119.007812 143.222656 118.175781 C 145.230469 117.34375 147.320312 116.929688 149.492188 116.929688 L 221.183594 116.929688 C 223.355469 116.929688 225.445312 117.34375 227.449219 118.175781 C 229.457031 119.007812 231.226562 120.191406 232.761719 121.730469 L 245.050781 134.015625 C 246.585938 135.550781 247.769531 137.324219 248.601562 139.328125 C 249.429688 141.335938 249.847656 143.425781 249.847656 145.597656 L 249.847656 198.683594 C 249.847656 199.21875 249.820312 199.753906 249.769531 200.289062 C 249.714844 200.824219 249.636719 201.351562 249.53125 201.878906 C 249.425781 202.40625 249.296875 202.925781 249.140625 203.4375 C 248.984375 203.953125 248.804688 204.457031 248.601562 204.953125 C 248.394531 205.449219 248.164062 205.933594 247.914062 206.40625 C 247.660156 206.878906 247.382812 207.339844 247.085938 207.785156 C 246.789062 208.230469 246.46875 208.660156 246.128906 209.074219 C 245.789062 209.492188 245.429688 209.886719 245.046875 210.265625 C 244.667969 210.644531 244.273438 211.007812 243.859375 211.347656 C 243.441406 211.6875 243.011719 212.007812 242.566406 212.304688 C 242.121094 212.601562 241.660156 212.878906 241.1875 213.132812 C 240.714844 213.382812 240.230469 213.613281 239.734375 213.820312 C 239.238281 214.023438 238.734375 214.203125 238.21875 214.359375 C 237.707031 214.515625 237.1875 214.644531 236.660156 214.75 C 236.132812 214.855469 235.605469 214.933594 235.070312 214.988281 C 234.535156 215.039062 234 215.066406 233.464844 215.066406 L 198.546875 215.066406 L 197.945312 215.667969 Z M 197.945312 228.402344 " fill-opacity="1" fill-rule="nonzero"/><path fill="#eff7f9" d="M 165.179688 243.386719 L 197.945312 243.386719 L 197.945312 267.386719 L 165.179688 267.386719 Z M 165.179688 243.386719 " fill-opacity="1" fill-rule="nonzero"/><path fill="#ffffff" d="M 111.65625 101.808594 C 111.65625 102.457031 111.59375 103.097656 111.46875 103.730469 C 111.34375 104.367188 111.15625 104.980469 110.910156 105.578125 C 110.660156 106.175781 110.359375 106.742188 110 107.28125 C 109.640625 107.820312 109.230469 108.316406 108.773438 108.773438 C 108.316406 109.230469 107.820312 109.640625 107.28125 110 C 106.742188 110.359375 106.175781 110.660156 105.578125 110.910156 C 104.980469 111.15625 104.367188 111.34375 103.730469 111.46875 C 103.097656 111.59375 102.457031 111.65625 101.808594 111.65625 C 101.164062 111.65625 100.523438 111.59375 99.890625 111.46875 C 99.253906 111.34375 98.640625 111.15625 98.042969 110.910156 C 97.445312 110.660156 96.875 110.359375 96.339844 110 C 95.800781 109.640625 95.304688 109.230469 94.847656 108.773438 C 94.390625 108.316406 93.980469 107.820312 93.621094 107.28125 C 93.261719 106.742188 92.960938 106.175781 92.710938 105.578125 C 92.464844 104.980469 92.277344 104.367188 92.152344 103.730469 C 92.023438 103.097656 91.960938 102.457031 91.960938 101.808594 C 91.960938 101.164062 92.023438 100.523438 92.152344 99.890625 C 92.277344 99.253906 92.464844 98.640625 92.710938 98.042969 C 92.960938 97.445312 93.261719 96.875 93.621094 96.339844 C 93.980469 95.800781 94.390625 95.304688 94.847656 94.847656 C 95.304688 94.390625 95.800781 93.980469 96.339844 93.621094 C 96.875 93.261719 97.445312 92.960938 98.042969 92.710938 C 98.640625 92.464844 99.253906 92.277344 99.890625 92.152344 C 100.523438 92.023438 101.164062 91.960938 101.808594 91.960938 C 102.457031 91.960938 103.097656 92.023438 103.730469 92.152344 C 104.367188 92.277344 104.980469 92.464844 105.578125 92.710938 C 106.175781 92.960938 106.742188 93.261719 107.28125 93.621094 C 107.820312 93.980469 108.316406 94.390625 108.773438 94.847656 C 109.230469 95.304688 109.640625 95.800781 110 96.339844 C 110.359375 96.875 110.660156 97.445312 110.910156 98.042969 C 111.15625 98.640625 111.34375 99.253906 111.46875 99.890625 C 111.59375 100.523438 111.65625 101.164062 111.65625 101.808594 Z M 111.65625 101.808594 " fill-opacity="1" fill-rule="nonzero"/><path fill="#eff7f9" d="M 277.933594 268.085938 C 277.933594 268.734375 277.871094 269.375 277.746094 270.007812 C 277.617188 270.640625 277.433594 271.257812 277.183594 271.855469 C 276.9375 272.453125 276.632812 273.019531 276.273438 273.558594 C 275.914062 274.09375 275.507812 274.59375 275.050781 275.050781 C 274.59375 275.507812 274.09375 275.914062 273.558594 276.273438 C 273.019531 276.632812 272.453125 276.9375 271.855469 277.183594 C 271.257812 277.433594 270.640625 277.617188 270.007812 277.746094 C 269.375 277.871094 268.734375 277.933594 268.085938 277.933594 C 267.441406 277.933594 266.800781 277.871094 266.164062 277.746094 C 265.53125 277.617188 264.914062 277.433594 264.316406 277.183594 C 263.71875 276.9375 263.152344 276.632812 262.617188 276.273438 C 262.078125 275.914062 261.582031 275.507812 261.125 275.050781 C 260.664062 274.59375 260.257812 274.09375 259.898438 273.558594 C 259.539062 273.019531 259.234375 272.453125 258.988281 271.855469 C 258.742188 271.257812 258.554688 270.640625 258.429688 270.007812 C 258.300781 269.375 258.238281 268.734375 258.238281 268.085938 C 258.238281 267.441406 258.300781 266.800781 258.429688 266.164062 C 258.554688 265.53125 258.742188 264.914062 258.988281 264.316406 C 259.234375 263.71875 259.539062 263.152344 259.898438 262.617188 C 260.257812 262.078125 260.664062 261.582031 261.125 261.125 C 261.582031 260.664062 262.078125 260.257812 262.617188 259.898438 C 263.152344 259.539062 263.71875 259.234375 264.316406 258.988281 C 264.914062 258.742188 265.53125 258.554688 266.164062 258.429688 C 266.800781 258.300781 267.441406 258.238281 268.085938 258.238281 C 268.734375 258.238281 269.375 258.300781 270.007812 258.429688 C 270.640625 258.554688 271.257812 258.742188 271.855469 258.988281 C 272.453125 259.234375 273.019531 259.539062 273.558594 259.898438 C 274.09375 260.257812 274.59375 260.664062 275.050781 261.125 C 275.507812 261.582031 275.914062 262.078125 276.273438 262.617188 C 276.632812 263.152344 276.9375 263.71875 277.183594 264.316406 C 277.433594 264.914062 277.617188 265.53125 277.746094 266.164062 C 277.871094 266.800781 277.933594 267.441406 277.933594 268.085938 Z M 277.933594 268.085938 " fill-opacity="1" fill-rule="nonzero"/><path fill="#eff7f9" d="M 277.933594 101.808594 C 277.933594 102.457031 277.871094 103.097656 277.746094 103.730469 C 277.617188 104.367188 277.433594 104.980469 277.183594 105.578125 C 276.9375 106.175781 276.632812 106.742188 276.273438 107.28125 C 275.914062 107.820312 275.507812 108.316406 275.050781 108.773438 C 274.59375 109.230469 274.09375 109.640625 273.558594 110 C 273.019531 110.359375 272.453125 110.660156 271.855469 110.910156 C 271.257812 111.15625 270.640625 111.34375 270.007812 111.46875 C 269.375 111.59375 268.734375 111.65625 268.085938 111.65625 C 267.441406 111.65625 266.800781 111.59375 266.164062 111.46875 C 265.53125 111.34375 264.914062 111.15625 264.316406 110.910156 C 263.71875 110.660156 263.152344 110.359375 262.617188 110 C 262.078125 109.640625 261.582031 109.230469 261.125 108.773438 C 260.664062 108.316406 260.257812 107.820312 259.898438 107.28125 C 259.539062 106.742188 259.234375 106.175781 258.988281 105.578125 C 258.742188 104.980469 258.554688 104.367188 258.429688 103.730469 C 258.300781 103.097656 258.238281 102.457031 258.238281 101.808594 C 258.238281 101.164062 258.300781 100.523438 258.429688 99.890625 C 258.554688 99.253906 258.742188 98.640625 258.988281 98.042969 C 259.234375 97.445312 259.539062 96.875 259.898438 96.339844 C 260.257812 95.800781 260.664062 95.304688 261.125 94.847656 C 261.582031 94.390625 262.078125 93.980469 262.617188 93.621094 C 263.152344 93.261719 263.71875 92.960938 264.316406 92.710938 C 264.914062 92.464844 265.53125 92.277344 266.164062 92.152344 C 266.800781 92.023438 267.441406 91.960938 268.085938 91.960938 C 268.734375 91.960938 269.375 92.023438 270.007812 92.152344 C 270.640625 92.277344 271.257812 92.464844 271.855469 92.710938 C 272.453125 92.960938 273.019531 93.261719 273.558594 93.621094 C 274.09375 93.980469 274.59375 94.390625 275.050781 94.847656 C 275.507812 95.304688 275.914062 95.800781 276.273438 96.339844 C 276.632812 96.875 276.9375 97.445312 277.183594 98.042969 C 277.433594 98.640625 277.617188 99.253906 277.746094 99.890625 C 277.871094 100.523438 277.933594 101.164062 277.933594 101.808594 Z M 277.933594 101.808594 " fill-opacity="1" fill-rule="nonzero"/><path fill="#eff7f9" d="M 111.65625 268.085938 C 111.65625 268.734375 111.59375 269.375 111.46875 270.007812 C 111.34375 270.640625 111.15625 271.257812 110.910156 271.855469 C 110.660156 272.453125 110.359375 273.019531 110 273.558594 C 109.640625 274.09375 109.230469 274.59375 108.773438 275.050781 C 108.316406 275.507812 107.820312 275.914062 107.28125 276.273438 C 106.742188 276.632812 106.175781 276.9375 105.578125 277.183594 C 104.980469 277.433594 104.367188 277.617188 103.730469 277.746094 C 103.097656 277.871094 102.457031 277.933594 101.808594 277.933594 C 101.164062 277.933594 100.523438 277.871094 99.890625 277.746094 C 99.253906 277.617188 98.640625 277.433594 98.042969 277.183594 C 97.445312 276.9375 96.875 276.632812 96.339844 276.273438 C 95.800781 275.914062 95.304688 275.507812 94.847656 275.050781 C 94.390625 274.59375 93.980469 274.09375 93.621094 273.558594 C 93.261719 273.019531 92.960938 272.453125 92.710938 271.855469 C 92.464844 271.257812 92.277344 270.640625 92.152344 270.007812 C 92.023438 269.375 91.960938 268.734375 91.960938 268.085938 C 91.960938 267.441406 92.023438 266.800781 92.152344 266.164062 C 92.277344 265.53125 92.464844 264.914062 92.710938 264.316406 C 92.960938 263.71875 93.261719 263.152344 93.621094 262.617188 C 93.980469 262.078125 94.390625 261.582031 94.847656 261.125 C 95.304688 260.664062 95.800781 260.257812 96.339844 259.898438 C 96.875 259.539062 97.445312 259.234375 98.042969 258.988281 C 98.640625 258.742188 99.253906 258.554688 99.890625 258.429688 C 100.523438 258.300781 101.164062 258.238281 101.808594 258.238281 C 102.457031 258.238281 103.097656 258.300781 103.730469 258.429688 C 104.367188 258.554688 104.980469 258.742188 105.578125 258.988281 C 106.175781 259.234375 106.742188 259.539062 107.28125 259.898438 C 107.820312 260.257812 108.316406 260.664062 108.773438 261.125 C 109.230469 261.582031 109.640625 262.078125 110 262.617188 C 110.359375 263.152344 110.660156 263.71875 110.910156 264.316406 C 111.15625 264.914062 111.34375 265.53125 111.46875 266.164062 C 111.59375 266.800781 111.65625 267.441406 111.65625 268.085938 Z M 111.65625 268.085938 " fill-opacity="1" fill-rule="nonzero"/><path fill="#ffffff" d="M 245.050781 134.015625 L 232.761719 121.730469 C 231.226562 120.191406 229.457031 119.007812 227.449219 118.175781 C 225.445312 117.34375 223.355469 116.929688 221.183594 116.929688 L 149.476562 116.929688 C 147.300781 116.929688 145.210938 117.34375 143.203125 118.175781 C 141.195312 119.007812 139.425781 120.191406 137.890625 121.730469 L 124.847656 134.773438 C 123.308594 136.308594 122.125 138.078125 121.292969 140.085938 C 120.460938 142.089844 120.046875 144.179688 120.046875 146.351562 L 120.046875 175.910156 L 152.8125 175.910156 L 152.8125 153.15625 L 156.261719 149.707031 L 214.390625 149.707031 L 217.082031 152.398438 L 217.082031 182.3125 L 191.773438 182.3125 C 189.601562 182.3125 187.511719 182.730469 185.503906 183.5625 C 183.496094 184.394531 181.722656 185.578125 180.1875 187.113281 L 169.988281 197.308594 C 168.453125 198.84375 167.269531 200.617188 166.4375 202.625 C 165.609375 204.632812 165.191406 206.722656 165.195312 208.894531 L 165.195312 228.417969 L 197.960938 228.417969 L 197.960938 215.675781 L 198.558594 215.074219 L 211.511719 215.074219 C 216.632812 210.113281 221.300781 204.753906 225.515625 199 C 229.726562 193.242188 233.425781 187.175781 236.613281 180.792969 C 239.796875 174.414062 242.421875 167.808594 244.488281 160.984375 C 246.554688 154.15625 248.03125 147.203125 248.917969 140.128906 C 248.089844 137.800781 246.800781 135.761719 245.050781 134.015625 Z M 245.050781 134.015625 " fill-opacity="1" fill-rule="nonzero"/></svg>